SplineFontDB: 3.0
FontName: WFProgrammer2
FullName: WF Programmer2
FamilyName: WFProgrammer2
Weight: Programmer
Copyright: Modification to Ubuntu font to optimize for programming use
Version: 1.0
ItalicAngle: 0
UnderlinePosition: -67
UnderlineWidth: 79
Ascent: 800
Descent: 200
LayerCount: 2
Layer: 0 1 "Back"  1
Layer: 1 1 "Fore"  0
XUID: [1021 801 1562035527 10158481]
FSType: 0
OS2Version: 3
OS2_WeightWidthSlopeOnly: 0
OS2_UseTypoMetrics: 1
CreationTime: 1282805964
ModificationTime: 1297895445
PfmFamily: 17
TTFWeight: 400
TTFWidth: 5
LineGap: 28
VLineGap: 0
Panose: 2 11 5 4 3 6 2 3 2 4
OS2TypoAscent: -24
OS2TypoAOffset: 1
OS2TypoDescent: 15
OS2TypoDOffset: 1
OS2TypoLinegap: 56
OS2WinAscent: -30
OS2WinAOffset: 1
OS2WinDescent: 0
OS2WinDOffset: 1
HheadAscent: -30
HheadAOffset: 1
HheadDescent: 0
HheadDOffset: 1
OS2SubXSize: 700
OS2SubYSize: 650
OS2SubXOff: 0
OS2SubYOff: 140
OS2SupXSize: 700
OS2SupYSize: 650
OS2SupXOff: 0
OS2SupYOff: 477
OS2StrikeYSize: 79
OS2StrikeYPos: 250
OS2Vendor: 'DAMA'
OS2CodePages: 2000009f.56010000
OS2UnicodeRanges: e00002ff.5000205b.00000000.00000000
Lookup: 1 0 0 "'locl' Localized Forms in Latin lookup 0"  {"'locl' Localized Forms in Latin lookup 0 subtable"  } ['locl' ('latn' <'AZE ' > ) ]
Lookup: 1 0 0 "brack"  {"brack-1"  } []
Lookup: 6 0 0 "anglebracks"  {"anglebracks-2"  } ['locl' ('DFLT' <'dflt' > 'cyrl' <'BGR ' 'MKD ' 'SRB ' 'dflt' > 'grek' <'dflt' > 'latn' <'AZE ' 'CRT ' 'MOL ' 'ROM ' 'TRK ' 'dflt' > ) ]
Lookup: 1 0 0 "'locl' Localized Forms in Latin lookup 1"  {"'locl' Localized Forms in Latin lookup 1 subtable"  } ['locl' ('latn' <'TRK ' > ) ]
Lookup: 1 0 0 "'locl' Localized Forms in Latin lookup 2"  {"'locl' Localized Forms in Latin lookup 2 subtable"  } ['locl' ('latn' <'MOL ' > ) ]
Lookup: 1 0 0 "'locl' Localized Forms in Latin lookup 3"  {"'locl' Localized Forms in Latin lookup 3 subtable"  } ['locl' ('latn' <'ROM ' > ) ]

StartChar: .notdef
Encoding: 65536 -1 0
Width: 500
Flags: W
HStem: 0 50<100 400> 700 50<100 400>
VStem: 50 50<50 700> 400 50<50 700>
LayerCount: 2
Fore
SplineSet
50 0 m 1,0,-1
 50 750 l 1,1,-1
 450 750 l 1,2,-1
 450 0 l 1,3,-1
 50 0 l 1,0,-1
400 50 m 1,4,-1
 400 700 l 1,5,-1
 100 700 l 1,6,-1
 100 50 l 1,7,-1
 400 50 l 1,4,-1
EndSplineSet
Validated: 1
EndChar

StartChar: exclam
Encoding: 33 33 4
Width: 280
Flags: W
HStem: -13 134<91.5657 188.434> 673 20G<90 190>
VStem: 73 134<7.62671 100.373> 90 100<239.39 693>
LayerCount: 2
Fore
SplineSet
190 505 m 2,0,1
 190 421 190 421 184 352.5 c 128,-1,2
 178 284 178 284 169 216 c 1,3,-1
 111 216 l 1,4,5
 102 284 102 284 96 352.5 c 128,-1,6
 90 421 90 421 90 505 c 2,7,-1
 90 693 l 1,8,-1
 190 693 l 1,9,-1
 190 505 l 2,0,1
207 54 m 256,10,11
 207 27 207 27 189 7 c 128,-1,12
 171 -13 171 -13 140 -13 c 256,13,14
 109 -13 109 -13 91 7 c 128,-1,15
 73 27 73 27 73 54 c 256,16,17
 73 81 73 81 91 101 c 128,-1,18
 109 121 109 121 140 121 c 256,19,20
 171 121 171 121 189 101 c 128,-1,21
 207 81 207 81 207 54 c 256,10,11
EndSplineSet
Validated: 1
EndChar

StartChar: numbersign
Encoding: 35 35 6
Width: 671
Flags: W
HStem: 0 21G<104 191.825 350 437.825> 183 74<51 139 237 385 483 620> 436 74<51 187 286 434 532 620> 673 20G<233.175 321 479.175 567>
LayerCount: 2
Fore
SplineSet
286 510 m 1,0,-1
 448 510 l 1,1,-1
 483 693 l 1,2,-1
 567 693 l 1,3,-1
 532 510 l 1,4,-1
 620 510 l 1,5,-1
 620 436 l 1,6,-1
 517 436 l 1,7,-1
 483 257 l 1,8,-1
 620 257 l 1,9,-1
 620 183 l 1,10,-1
 469 183 l 1,11,-1
 434 0 l 1,12,-1
 350 0 l 1,13,-1
 385 183 l 1,14,-1
 223 183 l 1,15,-1
 188 0 l 1,16,-1
 104 0 l 1,17,-1
 139 183 l 1,18,-1
 51 183 l 1,19,-1
 51 257 l 1,20,-1
 153 257 l 1,21,-1
 187 436 l 1,22,-1
 51 436 l 1,23,-1
 51 510 l 1,24,-1
 202 510 l 1,25,-1
 237 693 l 1,26,-1
 321 693 l 1,27,-1
 286 510 l 1,0,-1
237 257 m 1,28,-1
 399 257 l 1,29,-1
 434 436 l 1,30,-1
 272 436 l 1,31,-1
 237 257 l 1,28,-1
EndSplineSet
Validated: 1
EndChar

StartChar: dollar
Encoding: 36 36 7
Width: 568
Flags: W
HStem: 20 75<129.019 243 326 367.945> 586 75<239 243 326 431.082> 756 20G<243 326>
VStem: 77 97<443.447 553.573> 243 83<-109 17 664 776> 403 99<128.4 240.447>
LayerCount: 2
Fore
SplineSet
264 95 m 0,0,1
 341 95 341 95 372 119.5 c 128,-1,2
 403 144 403 144 403 182 c 0,3,4
 403 210 403 210 389.5 230 c 128,-1,5
 376 250 376 250 353.5 265 c 128,-1,6
 331 280 331 280 301.5 292 c 128,-1,7
 272 304 272 304 241 315 c 0,8,9
 211 326 211 326 181.5 339.5 c 128,-1,10
 152 353 152 353 129 372.5 c 128,-1,11
 106 392 106 392 91.5 419.5 c 128,-1,12
 77 447 77 447 77 487 c 0,13,14
 77 558 77 558 119.5 603.5 c 128,-1,15
 162 649 162 649 243 661 c 1,16,-1
 243 776 l 1,17,-1
 326 776 l 1,18,-1
 326 664 l 1,19,20
 370 662 370 662 408 653 c 128,-1,21
 446 644 446 644 468 636 c 1,22,-1
 449 558 l 1,23,24
 425 567 425 567 389 576.5 c 128,-1,25
 353 586 353 586 299 586 c 0,26,27
 239 586 239 586 206.5 563 c 128,-1,28
 174 540 174 540 174 498 c 0,29,30
 174 475 174 475 183.5 459 c 128,-1,31
 193 443 193 443 211 430.5 c 128,-1,32
 229 418 229 418 253.5 408 c 128,-1,33
 278 398 278 398 308 387 c 0,34,35
 347 372 347 372 382 356 c 128,-1,36
 417 340 417 340 443.5 317.5 c 128,-1,37
 470 295 470 295 486 264 c 128,-1,38
 502 233 502 233 502 189 c 0,39,40
 502 118 502 118 459 74.5 c 128,-1,41
 416 31 416 31 326 20 c 1,42,-1
 326 -109 l 1,43,-1
 243 -109 l 1,44,-1
 243 17 l 1,45,46
 173 19 173 19 129 32.5 c 128,-1,47
 85 46 85 46 63 58 c 1,48,-1
 88 133 l 1,49,50
 118 119 118 119 160 107 c 128,-1,51
 202 95 202 95 264 95 c 0,0,1
EndSplineSet
Validated: 1
EndChar

StartChar: percent
Encoding: 37 37 8
Width: 862
Flags: W
HStem: -15 69<598.059 703.941> 0 21G<190 292.284> 284 69<598.059 703.941> 340 69<158.059 263.941> 639 69<158.059 263.941> 673 20G<569.716 672>
VStem: 52 78<439.588 608.412> 292 78<439.588 608.412> 492 78<84.5881 253.412> 732 78<84.5881 253.412>
LayerCount: 2
Fore
SplineSet
52 524 m 256,0,1
 52 569 52 569 64 603 c 128,-1,2
 76 637 76 637 97.5 660.5 c 128,-1,3
 119 684 119 684 148 696 c 128,-1,4
 177 708 177 708 211 708 c 256,5,6
 245 708 245 708 274 696 c 128,-1,7
 303 684 303 684 324.5 660.5 c 128,-1,8
 346 637 346 637 358 603 c 128,-1,9
 370 569 370 569 370 524 c 256,10,11
 370 479 370 479 358 445 c 128,-1,12
 346 411 346 411 324.5 387.5 c 128,-1,13
 303 364 303 364 274 352 c 128,-1,14
 245 340 245 340 211 340 c 256,15,16
 177 340 177 340 148 352 c 128,-1,17
 119 364 119 364 97.5 387.5 c 128,-1,18
 76 411 76 411 64 445 c 128,-1,19
 52 479 52 479 52 524 c 256,0,1
292 524 m 256,20,21
 292 578 292 578 271 608.5 c 128,-1,22
 250 639 250 639 211 639 c 256,23,24
 172 639 172 639 151 608.5 c 128,-1,25
 130 578 130 578 130 524 c 256,26,27
 130 470 130 470 151 439.5 c 128,-1,28
 172 409 172 409 211 409 c 256,29,30
 250 409 250 409 271 439.5 c 128,-1,31
 292 470 292 470 292 524 c 256,20,21
492 169 m 256,32,33
 492 214 492 214 504 248 c 128,-1,34
 516 282 516 282 537.5 305.5 c 128,-1,35
 559 329 559 329 588 341 c 128,-1,36
 617 353 617 353 651 353 c 256,37,38
 685 353 685 353 714 341 c 128,-1,39
 743 329 743 329 764.5 305.5 c 128,-1,40
 786 282 786 282 798 248 c 128,-1,41
 810 214 810 214 810 169 c 256,42,43
 810 124 810 124 798 90 c 128,-1,44
 786 56 786 56 764.5 32.5 c 128,-1,45
 743 9 743 9 714 -3 c 128,-1,46
 685 -15 685 -15 651 -15 c 256,47,48
 617 -15 617 -15 588 -3 c 128,-1,49
 559 9 559 9 537.5 32.5 c 128,-1,50
 516 56 516 56 504 90 c 128,-1,51
 492 124 492 124 492 169 c 256,32,33
732 169 m 256,52,53
 732 223 732 223 711 253.5 c 128,-1,54
 690 284 690 284 651 284 c 256,55,56
 612 284 612 284 591 253.5 c 128,-1,57
 570 223 570 223 570 169 c 256,58,59
 570 115 570 115 591 84.5 c 128,-1,60
 612 54 612 54 651 54 c 256,61,62
 690 54 690 54 711 84.5 c 128,-1,63
 732 115 732 115 732 169 c 256,52,53
672 693 m 1,64,-1
 281 0 l 1,65,-1
 190 0 l 1,66,-1
 581 693 l 1,67,-1
 672 693 l 1,64,-1
EndSplineSet
Validated: 1
EndChar

StartChar: ampersand
Encoding: 38 38 9
Width: 568
Flags: W
HStem: -9 77<149.793 298.204> 0 21G<445.466 530.979> 636 73<185.987 286.255>
VStem: 30.2295 76.4695<112.522 273.752> 91.0762 71.5358<463.979 610.323> 306.506 69.068<477.055 613.944> 429.844 63.312<241.64 334.106>
LayerCount: 2
Fore
SplineSet
30.2295 184 m 4,0,1
 30.2295 223 30.2295 223 40.0967 253.5 c 132,-1,2
 49.9639 284 49.9639 284 66.8193 308.5 c 132,-1,3
 83.6758 333 83.6758 333 105.877 351.5 c 132,-1,4
 128.077 370 128.077 370 151.923 384 c 5,5,6
 91.0762 458 91.0762 458 91.0762 537 c 4,7,8
 91.0762 577 91.0762 577 102.177 609 c 132,-1,9
 113.277 641 113.277 641 132.6 663 c 132,-1,10
 151.923 685 151.923 685 178.646 697 c 132,-1,11
 205.369 709 205.369 709 237.437 709 c 4,12,13
 270.327 709 270.327 709 296.228 697 c 132,-1,14
 322.129 685 322.129 685 339.807 665 c 132,-1,15
 357.485 645 357.485 645 366.529 617 c 132,-1,16
 375.574 589 375.574 589 375.574 558 c 4,17,18
 375.574 523 375.574 523 366.118 495 c 132,-1,19
 356.662 467 356.662 467 340.629 444 c 132,-1,20
 324.595 421 324.595 421 304.039 402 c 132,-1,21
 283.482 383 283.482 383 260.46 368 c 5,22,-1
 393.665 203 l 5,23,24
 421.621 266 421.621 266 429.844 343 c 5,25,-1
 493.156 333 l 5,26,27
 489.867 292 489.867 292 476.301 243.5 c 132,-1,28
 462.733 195 462.733 195 438.065 147 c 5,29,30
 466.845 109 466.845 109 491.102 72 c 132,-1,31
 515.356 35 515.356 35 530.979 0 c 5,32,-1
 450.399 0 l 5,33,34
 440.533 20 440.533 20 426.144 41 c 132,-1,35
 411.754 62 411.754 62 396.131 83 c 5,36,37
 362.419 42 362.419 42 318.018 16.5 c 132,-1,38
 273.615 -9 273.615 -9 216.059 -9 c 4,39,40
 162.612 -9 162.612 -9 127.256 9.5 c 132,-1,41
 91.8984 28 91.8984 28 70.1094 56.5 c 132,-1,42
 48.3184 85 48.3184 85 39.2744 119 c 132,-1,43
 30.2295 153 30.2295 153 30.2295 184 c 4,0,1
106.699 186 m 4,44,45
 106.699 168 106.699 168 112.455 147 c 132,-1,46
 118.21 126 118.21 126 131.367 108.5 c 132,-1,47
 144.522 91 144.522 91 165.489 79.5 c 132,-1,48
 186.457 68 186.457 68 217.702 68 c 4,49,50
 257.992 68 257.992 68 292.116 86 c 132,-1,51
 326.239 104 326.239 104 352.552 137 c 5,52,-1
 192.213 334 l 5,53,54
 177.413 325 177.413 325 162.201 313 c 132,-1,55
 146.989 301 146.989 301 134.655 283.5 c 132,-1,56
 122.322 266 122.322 266 114.51 242 c 132,-1,57
 106.699 218 106.699 218 106.699 186 c 4,44,45
306.506 555 m 4,58,59
 306.506 589 306.506 589 288.005 612.5 c 132,-1,60
 269.504 636 269.504 636 237.437 636 c 4,61,62
 201.258 636 201.258 636 181.935 609.5 c 132,-1,63
 162.612 583 162.612 583 162.612 544 c 4,64,65
 162.612 479 162.612 479 218.525 417 c 5,66,67
 236.614 428 236.614 428 252.648 441 c 132,-1,68
 268.682 454 268.682 454 280.605 471 c 132,-1,69
 292.527 488 292.527 488 299.517 508.5 c 132,-1,70
 306.506 529 306.506 529 306.506 555 c 4,58,59
EndSplineSet
Validated: 1
EndChar

StartChar: quotesingle
Encoding: 39 39 10
Width: 568
Flags: W
HStem: 501 259<243.468 305.532>
VStem: 226 97<502.656 760>
LayerCount: 2
Fore
SplineSet
323 760 m 5,0,-1
 323 710 l 6,1,2
 323 661 323 661 317 607.5 c 132,-1,3
 311 554 311 554 302 501 c 5,4,-1
 247 501 l 5,5,6
 238 554 238 554 232 607.5 c 132,-1,7
 226 661 226 661 226 711 c 6,8,-1
 226 760 l 5,9,-1
 323 760 l 5,0,-1
EndSplineSet
Validated: 1
EndChar

StartChar: parenleft
Encoding: 40 40 11
Width: 568
Flags: W
HStem: -185 21G<314 382.333>
VStem: 180 93<117.113 480.887>
LayerCount: 2
Fore
SplineSet
273 299 m 260,0,1
 273 171 273 171 310 62 c 132,-1,2
 347 -47 347 -47 419 -140 c 5,3,-1
 353 -185 l 5,4,5
 275 -90 275 -90 227.5 33.5 c 132,-1,6
 180 157 180 157 180 299 c 260,7,8
 180 441 180 441 227.5 564.5 c 132,-1,9
 275 688 275 688 353 783 c 5,10,-1
 419 738 l 5,11,12
 347 645 347 645 310 536 c 132,-1,13
 273 427 273 427 273 299 c 260,0,1
EndSplineSet
Validated: 1
Position2: "'case' Case-Sensitive Forms lookup 0 per glyph data 0" dx=0 dy=60 dh=0 dv=0
EndChar

StartChar: parenright
Encoding: 41 41 12
Width: 568
Flags: W
HStem: -185 21G<194.667 263>
VStem: 304 93<117.113 480.887>
LayerCount: 2
Fore
SplineSet
304 299 m 256,0,1
 304 427 304 427 267 536 c 128,-1,2
 230 645 230 645 158 738 c 1,3,-1
 224 783 l 1,4,5
 302 688 302 688 349.5 564.5 c 128,-1,6
 397 441 397 441 397 299 c 256,7,8
 397 157 397 157 349.5 33.5 c 128,-1,9
 302 -90 302 -90 224 -185 c 1,10,-1
 158 -140 l 1,11,12
 230 -47 230 -47 267 62 c 128,-1,13
 304 171 304 171 304 299 c 256,0,1
EndSplineSet
Validated: 1
Position2: "'case' Case-Sensitive Forms lookup 0 per glyph data 0" dx=0 dy=60 dh=0 dv=0
EndChar

StartChar: asterisk
Encoding: 42 42 13
Width: 568
Flags: W
HStem: 512 85<114 167.539 398.461 452> 673 20G<238 328>
VStem: 238 90<531.211 693>
LayerCount: 2
Fore
SplineSet
328 685 m 6,0,1
 328 643 328 643 320.5 604.5 c 132,-1,2
 313 566 313 566 305 525 c 5,3,4
 341 545 341 545 376 564 c 132,-1,5
 411 583 411 583 452 597 c 6,6,-1
 458 599 l 5,7,-1
 486 515 l 5,8,-1
 478 512 l 6,9,10
 438 497 438 497 398 492.5 c 132,-1,11
 358 488 358 488 316 485 c 5,12,13
 349 457 349 457 378 430.5 c 132,-1,14
 407 404 407 404 432 369 c 6,15,-1
 437 362 l 5,16,-1
 364 311 l 5,17,-1
 360 317 l 6,18,19
 336 353 336 353 318.5 388.5 c 132,-1,20
 301 424 301 424 283 462 c 5,21,22
 265 424 265 424 247.5 388.5 c 132,-1,23
 230 353 230 353 206 317 c 6,24,-1
 202 311 l 5,25,-1
 129 362 l 5,26,-1
 134 369 l 6,27,28
 159 404 159 404 188 430.5 c 132,-1,29
 217 457 217 457 250 485 c 5,30,31
 208 488 208 488 168 492.5 c 132,-1,32
 128 497 128 497 88 512 c 6,33,-1
 80 515 l 5,34,-1
 108 599 l 5,35,-1
 114 597 l 6,36,37
 155 583 155 583 190 564 c 132,-1,38
 225 545 225 545 261 525 c 5,39,40
 253 566 253 566 245.5 604.5 c 132,-1,41
 238 643 238 643 238 685 c 6,42,-1
 238 693 l 5,43,-1
 328 693 l 5,44,-1
 328 685 l 6,0,1
EndSplineSet
Validated: 1
EndChar

StartChar: plus
Encoding: 43 43 14
Width: 568
Flags: W
HStem: 255 79<55 244 324 513>
VStem: 244 80<48 255 334 540>
LayerCount: 2
Fore
SplineSet
55 334 m 1,0,-1
 244 334 l 1,1,-1
 244 540 l 1,2,-1
 324 540 l 1,3,-1
 324 334 l 1,4,-1
 513 334 l 1,5,-1
 513 255 l 1,6,-1
 324 255 l 1,7,-1
 324 48 l 1,8,-1
 244 48 l 1,9,-1
 244 255 l 1,10,-1
 55 255 l 1,11,-1
 55 334 l 1,0,-1
EndSplineSet
Validated: 1
EndChar

StartChar: comma
Encoding: 44 44 15
Width: 568
Flags: W
HStem: -159 273
VStem: 243 100<-51.0758 114>
LayerCount: 2
Fore
SplineSet
342 114 m 5,0,1
 343 106 343 106 343 98.5 c 132,-1,2
 343 91 343 91 343 83 c 4,3,4
 343 20 343 20 324.5 -41.5 c 132,-1,5
 306 -103 306 -103 274 -159 c 5,6,-1
 202 -136 l 5,7,8
 227 -85 227 -85 235 -32.5 c 132,-1,9
 243 20 243 20 243 66 c 4,10,11
 243 79 243 79 242.5 91 c 132,-1,12
 242 103 242 103 241 114 c 5,13,-1
 342 114 l 5,0,1
EndSplineSet
Validated: 1
EndChar

StartChar: hyphen
Encoding: 45 45 16
Width: 568
Flags: W
HStem: 243 87<161 408>
VStem: 161 247<243 330>
LayerCount: 2
Fore
SplineSet
161 330 m 1,0,-1
 408 330 l 1,1,-1
 408 243 l 1,2,-1
 161 243 l 1,3,-1
 161 330 l 1,0,-1
EndSplineSet
Validated: 1
Position2: "'case' Case-Sensitive Forms lookup 0 per glyph data 1" dx=0 dy=75 dh=0 dv=0
EndChar

StartChar: period
Encoding: 46 46 17
Width: 568
Flags: W
HStem: -13 134<218.566 315.434>
VStem: 200 134<7.62671 100.373>
LayerCount: 2
Fore
SplineSet
334 54 m 260,0,1
 334 27 334 27 316 7 c 132,-1,2
 298 -13 298 -13 267 -13 c 260,3,4
 236 -13 236 -13 218 7 c 132,-1,5
 200 27 200 27 200 54 c 260,6,7
 200 81 200 81 218 101 c 132,-1,8
 236 121 236 121 267 121 c 260,9,10
 298 121 298 121 316 101 c 132,-1,11
 334 81 334 81 334 54 c 260,0,1
EndSplineSet
Validated: 1
EndChar

StartChar: slash
Encoding: 47 47 18
Width: 568
Flags: W
LayerCount: 2
Fore
SplineSet
160 -92 m 5,0,-1
 65 -92 l 5,1,-1
 404 876 l 5,2,-1
 497 876 l 5,3,-1
 160 -92 l 5,0,-1
EndSplineSet
Validated: 1
Substitution2: "'frac' Diagonal Fractions lookup 16 subtable" fraction
EndChar

StartChar: zero
Encoding: 48 48 19
Width: 568
Flags: W
HStem: -15 82<222.142 345.858> 627 82<222.142 345.858>
VStem: 52 98<168.552 525.448> 418 98<168.552 525.448>
LayerCount: 2
Fore
SplineSet
330 568 m 29,0,-1
 368 510 l 25,1,-1
 222 128 l 25,2,-1
 188 210 l 25,3,-1
 330 568 l 29,0,-1
52 347 m 256,4,5
 52 521 52 521 113.5 615 c 128,-1,6
 175 709 175 709 284 709 c 256,7,8
 393 709 393 709 454.5 615 c 128,-1,9
 516 521 516 521 516 347 c 256,10,11
 516 173 516 173 454.5 79 c 128,-1,12
 393 -15 393 -15 284 -15 c 256,13,14
 175 -15 175 -15 113.5 79 c 128,-1,15
 52 173 52 173 52 347 c 256,4,5
418 347 m 256,16,17
 418 404 418 404 411.5 455 c 128,-1,18
 405 506 405 506 389.5 544 c 128,-1,19
 374 582 374 582 348 604.5 c 128,-1,20
 322 627 322 627 284 627 c 256,21,22
 246 627 246 627 220 604.5 c 128,-1,23
 194 582 194 582 178.5 544 c 128,-1,24
 163 506 163 506 156.5 455 c 128,-1,25
 150 404 150 404 150 347 c 256,26,27
 150 290 150 290 156.5 239 c 128,-1,28
 163 188 163 188 178.5 150 c 128,-1,29
 194 112 194 112 220 89.5 c 128,-1,30
 246 67 246 67 284 67 c 256,31,32
 322 67 322 67 348 89.5 c 128,-1,33
 374 112 374 112 389.5 150 c 128,-1,34
 405 188 405 188 411.5 239 c 128,-1,35
 418 290 418 290 418 347 c 256,16,17
EndSplineSet
Validated: 1
Substitution2: "'frac' Diagonal Fractions lookup 18 subtable" zerosuperior
Substitution2: "'sinf' Scientific Inferiors lookup 15 subtable" zero.sinf
Substitution2: "'subs' Subscript lookup 14 subtable" zero.sinf
Substitution2: "'sups' Superscript lookup 13 subtable" zero.sups
Substitution2: "'dnom' Denominators lookup 12 subtable" zeroinferior
Substitution2: "'numr' Numerators lookup 10 subtable" zerosuperior
Substitution2: "'pnum' Proportional Numbers lookup 8 subtable" zero.alt
EndChar

StartChar: one
Encoding: 49 49 20
Width: 568
Flags: W
HStem: 0 21G<278 371> 673 20G<282.5 371>
VStem: 278 93<0 564>
LayerCount: 2
Fore
SplineSet
95 550 m 1,0,1
 152 572 152 572 206 606.5 c 128,-1,2
 260 641 260 641 305 693 c 1,3,-1
 371 693 l 1,4,-1
 371 0 l 1,5,-1
 278 0 l 1,6,-1
 278 564 l 1,7,8
 266 553 266 553 248.5 541 c 128,-1,9
 231 529 231 529 210.5 518 c 128,-1,10
 190 507 190 507 167.5 497 c 128,-1,11
 145 487 145 487 124 480 c 1,12,-1
 95 550 l 1,0,1
EndSplineSet
Validated: 1
Substitution2: "'frac' Diagonal Fractions lookup 18 subtable" onesuperior
Substitution2: "'sinf' Scientific Inferiors lookup 15 subtable" one.sinf
Substitution2: "'subs' Subscript lookup 14 subtable" one.sinf
Substitution2: "'sups' Superscript lookup 13 subtable" one.sups
Substitution2: "'dnom' Denominators lookup 12 subtable" oneinferior
Substitution2: "'numr' Numerators lookup 10 subtable" onesuperior
Substitution2: "'pnum' Proportional Numbers lookup 8 subtable" one.alt
EndChar

StartChar: two
Encoding: 50 50 21
Width: 568
Flags: W
HStem: 0 79<173 492> 626 83<165.196 328.057>
VStem: 71 102<79 125.529> 370 99<436.995 584.388>
LayerCount: 2
Fore
SplineSet
469 516 m 0,0,1
 469 480 469 480 454.5 446.5 c 128,-1,2
 440 413 440 413 416 380.5 c 128,-1,3
 392 348 392 348 362 316.5 c 128,-1,4
 332 285 332 285 302 255 c 0,5,6
 285 238 285 238 262.5 215 c 128,-1,7
 240 192 240 192 220 167 c 128,-1,8
 200 142 200 142 186.5 119 c 128,-1,9
 173 96 173 96 173 79 c 1,10,-1
 492 79 l 1,11,-1
 492 0 l 1,12,-1
 72 0 l 1,13,14
 71 6 71 6 71 12 c 128,-1,15
 71 18 71 18 71 23 c 0,16,17
 71 70 71 70 86.5 110.5 c 128,-1,18
 102 151 102 151 127 187 c 128,-1,19
 152 223 152 223 183 255 c 128,-1,20
 214 287 214 287 244 317 c 0,21,22
 269 341 269 341 291.5 364.5 c 128,-1,23
 314 388 314 388 331.5 411.5 c 128,-1,24
 349 435 349 435 359.5 460 c 128,-1,25
 370 485 370 485 370 513 c 0,26,27
 370 543 370 543 360.5 564 c 128,-1,28
 351 585 351 585 335 599 c 128,-1,29
 319 613 319 613 297.5 619.5 c 128,-1,30
 276 626 276 626 252 626 c 0,31,32
 223 626 223 626 199 618 c 128,-1,33
 175 610 175 610 156 599.5 c 128,-1,34
 137 589 137 589 124 577.5 c 128,-1,35
 111 566 111 566 104 560 c 1,36,-1
 58 626 l 1,37,38
 67 636 67 636 85 650.5 c 128,-1,39
 103 665 103 665 128 678 c 128,-1,40
 153 691 153 691 184 700 c 128,-1,41
 215 709 215 709 251 709 c 0,42,43
 360 709 360 709 414.5 658.5 c 128,-1,44
 469 608 469 608 469 516 c 0,0,1
EndSplineSet
Validated: 1
Substitution2: "'frac' Diagonal Fractions lookup 18 subtable" twosuperior
Substitution2: "'sinf' Scientific Inferiors lookup 15 subtable" two.sinf
Substitution2: "'subs' Subscript lookup 14 subtable" two.sinf
Substitution2: "'sups' Superscript lookup 13 subtable" two.sups
Substitution2: "'dnom' Denominators lookup 12 subtable" twoinferior
Substitution2: "'numr' Numerators lookup 10 subtable" twosuperior
Substitution2: "'pnum' Proportional Numbers lookup 8 subtable" two.alt
EndChar

StartChar: three
Encoding: 51 51 22
Width: 568
Flags: W
HStem: -15 83<105.917 336.447> 331 76<181 311.623> 627 82<144.688 324.072>
VStem: 364 96<454.781 588.036> 394 97<122.228 269.509>
LayerCount: 2
Fore
SplineSet
228 68 m 0,0,1
 317 68 317 68 355.5 103 c 128,-1,2
 394 138 394 138 394 197 c 0,3,4
 394 235 394 235 378 261 c 128,-1,5
 362 287 362 287 336 302.5 c 128,-1,6
 310 318 310 318 275.5 324.5 c 128,-1,7
 241 331 241 331 205 331 c 2,8,-1
 181 331 l 1,9,-1
 181 407 l 1,10,-1
 214 407 l 2,11,12
 239 407 239 407 265.5 412 c 128,-1,13
 292 417 292 417 314 430 c 128,-1,14
 336 443 336 443 350 465.5 c 128,-1,15
 364 488 364 488 364 522 c 0,16,17
 364 550 364 550 354 570 c 128,-1,18
 344 590 344 590 327.5 603 c 128,-1,19
 311 616 311 616 289.5 621.5 c 128,-1,20
 268 627 268 627 244 627 c 0,21,22
 196 627 196 627 162.5 613 c 128,-1,23
 129 599 129 599 106 584 c 1,24,-1
 70 655 l 1,25,26
 82 663 82 663 100.5 672.5 c 128,-1,27
 119 682 119 682 142 690 c 128,-1,28
 165 698 165 698 191.5 703.5 c 128,-1,29
 218 709 218 709 247 709 c 0,30,31
 302 709 302 709 342 695.5 c 128,-1,32
 382 682 382 682 408 657.5 c 128,-1,33
 434 633 434 633 447 599.5 c 128,-1,34
 460 566 460 566 460 527 c 0,35,36
 460 473 460 473 429 434.5 c 128,-1,37
 398 396 398 396 354 376 c 1,38,39
 381 368 381 368 406 353 c 128,-1,40
 431 338 431 338 449.5 315 c 128,-1,41
 468 292 468 292 479.5 262 c 128,-1,42
 491 232 491 232 491 195 c 0,43,44
 491 150 491 150 475.5 111.5 c 128,-1,45
 460 73 460 73 427.5 45 c 128,-1,46
 395 17 395 17 346 1 c 128,-1,47
 297 -15 297 -15 230 -15 c 0,48,49
 204 -15 204 -15 176.5 -11 c 128,-1,50
 149 -7 149 -7 125 -1 c 128,-1,51
 101 5 101 5 83 11 c 128,-1,52
 65 17 65 17 57 21 c 1,53,-1
 75 102 l 1,54,55
 92 94 92 94 131.5 81 c 128,-1,56
 171 68 171 68 228 68 c 0,0,1
EndSplineSet
Validated: 1
Substitution2: "'frac' Diagonal Fractions lookup 18 subtable" threesuperior
Substitution2: "'sinf' Scientific Inferiors lookup 15 subtable" three.sinf
Substitution2: "'subs' Subscript lookup 14 subtable" three.sinf
Substitution2: "'sups' Superscript lookup 13 subtable" three.sups
Substitution2: "'dnom' Denominators lookup 12 subtable" threeinferior
Substitution2: "'numr' Numerators lookup 10 subtable" threesuperior
Substitution2: "'pnum' Proportional Numbers lookup 8 subtable" three.alt
EndChar

StartChar: four
Encoding: 52 52 23
Width: 568
Flags: W
HStem: 0 21G<352 442> 177 76<132 352 442 524> 673 20G<329 442>
VStem: 352 90<0 177 253 583>
LayerCount: 2
Fore
SplineSet
42 240 m 1,0,1
 61 284 61 284 94 342.5 c 128,-1,2
 127 401 127 401 168.5 463 c 128,-1,3
 210 525 210 525 257.5 585 c 128,-1,4
 305 645 305 645 353 693 c 1,5,-1
 442 693 l 1,6,-1
 442 253 l 1,7,-1
 524 253 l 1,8,-1
 524 177 l 1,9,-1
 442 177 l 1,10,-1
 442 0 l 1,11,-1
 352 0 l 1,12,-1
 352 177 l 1,13,-1
 42 177 l 1,14,-1
 42 240 l 1,0,1
352 583 m 1,15,16
 322 551 322 551 291.5 511.5 c 128,-1,17
 261 472 261 472 232 429 c 128,-1,18
 203 386 203 386 177.5 341 c 128,-1,19
 152 296 152 296 132 253 c 1,20,-1
 352 253 l 1,21,-1
 352 583 l 1,15,16
EndSplineSet
Validated: 1
Substitution2: "'frac' Diagonal Fractions lookup 18 subtable" foursuperior
Substitution2: "'sinf' Scientific Inferiors lookup 15 subtable" four.sinf
Substitution2: "'subs' Subscript lookup 14 subtable" four.sinf
Substitution2: "'sups' Superscript lookup 13 subtable" four.sups
Substitution2: "'dnom' Denominators lookup 12 subtable" fourinferior
Substitution2: "'numr' Numerators lookup 10 subtable" foursuperior
Substitution2: "'pnum' Proportional Numbers lookup 8 subtable" four.alt
EndChar

StartChar: five
Encoding: 53 53 24
Width: 568
Flags: W
HStem: -15 83<115.218 337.635> 350 76<201 291.427> 614 79<214.46 469>
VStem: 396 97<120.469 274.467>
LayerCount: 2
Fore
SplineSet
201 426 m 1,0,1
 352 420 352 420 422.5 360 c 128,-1,2
 493 300 493 300 493 197 c 0,3,4
 493 151 493 151 477.5 112 c 128,-1,5
 462 73 462 73 430.5 45 c 128,-1,6
 399 17 399 17 351 1 c 128,-1,7
 303 -15 303 -15 237 -15 c 0,8,9
 211 -15 211 -15 184 -11 c 128,-1,10
 157 -7 157 -7 134 -1 c 128,-1,11
 111 5 111 5 93 11 c 128,-1,12
 75 17 75 17 67 21 c 1,13,-1
 85 102 l 1,14,15
 102 94 102 94 140.5 81 c 128,-1,16
 179 68 179 68 235 68 c 0,17,18
 280 68 280 68 310.5 78 c 128,-1,19
 341 88 341 88 360 105 c 128,-1,20
 379 122 379 122 387.5 144.5 c 128,-1,21
 396 167 396 167 396 192 c 0,22,23
 396 230 396 230 383 259.5 c 128,-1,24
 370 289 370 289 337 309 c 128,-1,25
 304 329 304 329 249 339.5 c 128,-1,26
 194 350 194 350 110 350 c 1,27,28
 116 399 116 399 119.5 442 c 128,-1,29
 123 485 123 485 126 526 c 128,-1,30
 129 567 129 567 131 607.5 c 128,-1,31
 133 648 133 648 135 693 c 1,32,-1
 469 693 l 1,33,-1
 469 614 l 1,34,-1
 216 614 l 1,35,36
 215 599 215 599 213 573.5 c 128,-1,37
 211 548 211 548 209 520.5 c 128,-1,38
 207 493 207 493 205 467 c 128,-1,39
 203 441 203 441 201 426 c 1,0,1
EndSplineSet
Validated: 1
Substitution2: "'frac' Diagonal Fractions lookup 18 subtable" fivesuperior
Substitution2: "'sinf' Scientific Inferiors lookup 15 subtable" five.sinf
Substitution2: "'subs' Subscript lookup 14 subtable" five.sinf
Substitution2: "'sups' Superscript lookup 13 subtable" five.sups
Substitution2: "'dnom' Denominators lookup 12 subtable" fiveinferior
Substitution2: "'numr' Numerators lookup 10 subtable" fivesuperior
Substitution2: "'pnum' Proportional Numbers lookup 8 subtable" five.alt
EndChar

StartChar: six
Encoding: 54 54 25
Width: 568
Flags: W
HStem: -15 77<225.752 363.797> 349 76<187.354 370.441> 618 78<333.213 463>
VStem: 65 97<139.313 322.656> 419 96<121.84 298.507>
LayerCount: 2
Fore
SplineSet
65 278 m 0,0,1
 65 379 65 379 93 456.5 c 128,-1,2
 121 534 121 534 172.5 587 c 128,-1,3
 224 640 224 640 297.5 667.5 c 128,-1,4
 371 695 371 695 463 696 c 1,5,-1
 470 618 l 1,6,7
 411 617 411 617 362.5 605 c 128,-1,8
 314 593 314 593 276 567 c 128,-1,9
 238 541 238 541 212 499.5 c 128,-1,10
 186 458 186 458 173 397 c 1,11,12
 199 409 199 409 231.5 417 c 128,-1,13
 264 425 264 425 299 425 c 0,14,15
 358 425 358 425 399 407 c 128,-1,16
 440 389 440 389 466 359.5 c 128,-1,17
 492 330 492 330 503.5 291.5 c 128,-1,18
 515 253 515 253 515 211 c 0,19,20
 515 173 515 173 502 133 c 128,-1,21
 489 93 489 93 462.5 60 c 128,-1,22
 436 27 436 27 395 6 c 128,-1,23
 354 -15 354 -15 298 -15 c 0,24,25
 184 -15 184 -15 124.5 63 c 128,-1,26
 65 141 65 141 65 278 c 0,0,1
289 349 m 0,27,28
 254 349 254 349 224 342.5 c 128,-1,29
 194 336 194 336 164 323 c 1,30,31
 163 312 163 312 162.5 300.5 c 128,-1,32
 162 289 162 289 162 278 c 0,33,34
 162 234 162 234 168 195 c 128,-1,35
 174 156 174 156 189.5 126.5 c 128,-1,36
 205 97 205 97 231 79.5 c 128,-1,37
 257 62 257 62 297 62 c 0,38,39
 330 62 330 62 353 76 c 128,-1,40
 376 90 376 90 391 112 c 128,-1,41
 406 134 406 134 412.5 159.5 c 128,-1,42
 419 185 419 185 419 209 c 0,43,44
 419 277 419 277 386.5 313 c 128,-1,45
 354 349 354 349 289 349 c 0,27,28
EndSplineSet
Validated: 1
Substitution2: "'frac' Diagonal Fractions lookup 18 subtable" sixsuperior
Substitution2: "'sinf' Scientific Inferiors lookup 15 subtable" six.sinf
Substitution2: "'subs' Subscript lookup 14 subtable" six.sinf
Substitution2: "'sups' Superscript lookup 13 subtable" six.sups
Substitution2: "'dnom' Denominators lookup 12 subtable" sixinferior
Substitution2: "'numr' Numerators lookup 10 subtable" sixsuperior
Substitution2: "'pnum' Proportional Numbers lookup 8 subtable" six.alt
EndChar

StartChar: seven
Encoding: 55 55 26
Width: 568
Flags: W
HStem: 0 21G<165 265> 612 81<62 399>
VStem: 165 97<0 139.781>
LayerCount: 2
Fore
SplineSet
165 0 m 1,0,1
 171 80 171 80 193.5 168.5 c 128,-1,2
 216 257 216 257 249 340.5 c 128,-1,3
 282 424 282 424 321.5 495.5 c 128,-1,4
 361 567 361 567 399 612 c 1,5,-1
 62 612 l 1,6,-1
 62 693 l 1,7,-1
 503 693 l 1,8,-1
 503 616 l 1,9,10
 470 578 470 578 430 511.5 c 128,-1,11
 390 445 390 445 354.5 362.5 c 128,-1,12
 319 280 319 280 293.5 186.5 c 128,-1,13
 268 93 268 93 262 0 c 1,14,-1
 165 0 l 1,0,1
EndSplineSet
Validated: 1
Substitution2: "'frac' Diagonal Fractions lookup 18 subtable" sevensuperior
Substitution2: "'sinf' Scientific Inferiors lookup 15 subtable" seven.sinf
Substitution2: "'subs' Subscript lookup 14 subtable" seven.sinf
Substitution2: "'sups' Superscript lookup 13 subtable" seven.sups
Substitution2: "'dnom' Denominators lookup 12 subtable" seveninferior
Substitution2: "'numr' Numerators lookup 10 subtable" sevensuperior
Substitution2: "'pnum' Proportional Numbers lookup 8 subtable" seven.alt
EndChar

StartChar: eight
Encoding: 56 56 27
Width: 568
Flags: W
HStem: -15 77<200.759 367.053> 632 77<208.982 357.528>
VStem: 57 94<109.175 257.494> 73 93<455.547 590.25> 401 93<445.844 589.05> 417 94<108.951 246.295>
LayerCount: 2
Fore
SplineSet
511 180 m 0,0,1
 511 138 511 138 496.5 102.5 c 128,-1,2
 482 67 482 67 453.5 40.5 c 128,-1,3
 425 14 425 14 382 -0.5 c 128,-1,4
 339 -15 339 -15 283 -15 c 0,5,6
 218 -15 218 -15 174.5 3.5 c 128,-1,7
 131 22 131 22 105 50 c 128,-1,8
 79 78 79 78 68 111.5 c 128,-1,9
 57 145 57 145 57 175 c 0,10,11
 57 204 57 204 66.5 230.5 c 128,-1,12
 76 257 76 257 91.5 280 c 128,-1,13
 107 303 107 303 127.5 321.5 c 128,-1,14
 148 340 148 340 171 354 c 1,15,16
 73 410 73 410 73 519 c 0,17,18
 73 557 73 557 88 591.5 c 128,-1,19
 103 626 103 626 130.5 652 c 128,-1,20
 158 678 158 678 197 693.5 c 128,-1,21
 236 709 236 709 284 709 c 0,22,23
 340 709 340 709 380 692 c 128,-1,24
 420 675 420 675 445.5 648.5 c 128,-1,25
 471 622 471 622 482.5 590 c 128,-1,26
 494 558 494 558 494 528 c 0,27,28
 494 499 494 499 485.5 473.5 c 128,-1,29
 477 448 477 448 462.5 426 c 128,-1,30
 448 404 448 404 429.5 387 c 128,-1,31
 411 370 411 370 391 357 c 1,32,33
 509 301 509 301 511 180 c 0,0,1
151 174 m 0,34,35
 151 156 151 156 157.5 136.5 c 128,-1,36
 164 117 164 117 180 100.5 c 128,-1,37
 196 84 196 84 221 73 c 128,-1,38
 246 62 246 62 284 62 c 0,39,40
 318 62 318 62 343.5 72 c 128,-1,41
 369 82 369 82 385 97.5 c 128,-1,42
 401 113 401 113 409 133 c 128,-1,43
 417 153 417 153 417 174 c 0,44,45
 417 206 417 206 405 230 c 128,-1,46
 393 254 393 254 370.5 272 c 128,-1,47
 348 290 348 290 316.5 302.5 c 128,-1,48
 285 315 285 315 245 324 c 1,49,50
 200 299 200 299 175.5 262 c 128,-1,51
 151 225 151 225 151 174 c 0,34,35
401 529 m 0,52,53
 401 544 401 544 394.5 562 c 128,-1,54
 388 580 388 580 374 595.5 c 128,-1,55
 360 611 360 611 338 621.5 c 128,-1,56
 316 632 316 632 284 632 c 256,57,58
 252 632 252 632 229.5 622 c 128,-1,59
 207 612 207 612 193 596.5 c 128,-1,60
 179 581 179 581 172.5 562.5 c 128,-1,61
 166 544 166 544 166 526 c 0,62,63
 166 504 166 504 174 482 c 128,-1,64
 182 460 182 460 199 441 c 128,-1,65
 216 422 216 422 243.5 407 c 128,-1,66
 271 392 271 392 309 383 c 1,67,68
 351 408 351 408 376 441.5 c 128,-1,69
 401 475 401 475 401 529 c 0,52,53
EndSplineSet
Validated: 1
Substitution2: "'frac' Diagonal Fractions lookup 18 subtable" eightsuperior
Substitution2: "'sinf' Scientific Inferiors lookup 15 subtable" eight.sinf
Substitution2: "'subs' Subscript lookup 14 subtable" eight.sinf
Substitution2: "'sups' Superscript lookup 13 subtable" eight.sups
Substitution2: "'dnom' Denominators lookup 12 subtable" eightinferior
Substitution2: "'numr' Numerators lookup 10 subtable" eightsuperior
Substitution2: "'pnum' Proportional Numbers lookup 8 subtable" eight.alt
EndChar

StartChar: nine
Encoding: 57 57 28
Width: 568
Flags: W
HStem: -2 78<96 238.63> 271 76<197.559 384.094> 632 77<203.876 342.278>
VStem: 53 96<396.658 572.507> 406 97<373.344 555.103>
LayerCount: 2
Fore
SplineSet
503 416 m 0,0,1
 503 210 503 210 400.5 104.5 c 128,-1,2
 298 -1 298 -1 96 -2 c 1,3,-1
 93 76 l 1,4,5
 156 76 156 76 206.5 88 c 128,-1,6
 257 100 257 100 295 126.5 c 128,-1,7
 333 153 333 153 358.5 195 c 128,-1,8
 384 237 384 237 396 298 c 1,9,10
 370 286 370 286 337 278.5 c 128,-1,11
 304 271 304 271 269 271 c 0,12,13
 210 271 210 271 169 288.5 c 128,-1,14
 128 306 128 306 102 335.5 c 128,-1,15
 76 365 76 365 64.5 403.5 c 128,-1,16
 53 442 53 442 53 484 c 0,17,18
 53 521 53 521 66 561 c 128,-1,19
 79 601 79 601 105.5 634 c 128,-1,20
 132 667 132 667 173 688 c 128,-1,21
 214 709 214 709 270 709 c 0,22,23
 327 709 327 709 370.5 689 c 128,-1,24
 414 669 414 669 443.5 631 c 128,-1,25
 473 593 473 593 488 538.5 c 128,-1,26
 503 484 503 484 503 416 c 0,0,1
279 347 m 0,27,28
 314 347 314 347 345 353.5 c 128,-1,29
 376 360 376 360 405 373 c 1,30,31
 406 384 406 384 406 394.5 c 128,-1,32
 406 405 406 405 406 416 c 0,33,34
 406 459 406 459 400 498.5 c 128,-1,35
 394 538 394 538 378.5 567.5 c 128,-1,36
 363 597 363 597 337 614.5 c 128,-1,37
 311 632 311 632 271 632 c 0,38,39
 238 632 238 632 215 618 c 128,-1,40
 192 604 192 604 177 582.5 c 128,-1,41
 162 561 162 561 155.5 535.5 c 128,-1,42
 149 510 149 510 149 486 c 0,43,44
 149 418 149 418 181.5 382.5 c 128,-1,45
 214 347 214 347 279 347 c 0,27,28
EndSplineSet
Validated: 1
Substitution2: "'frac' Diagonal Fractions lookup 18 subtable" ninesuperior
Substitution2: "'sinf' Scientific Inferiors lookup 15 subtable" nine.sinf
Substitution2: "'subs' Subscript lookup 14 subtable" nine.sinf
Substitution2: "'sups' Superscript lookup 13 subtable" nine.sups
Substitution2: "'dnom' Denominators lookup 12 subtable" nineinferior
Substitution2: "'numr' Numerators lookup 10 subtable" ninesuperior
Substitution2: "'pnum' Proportional Numbers lookup 8 subtable" nine.alt
EndChar

StartChar: less
Encoding: 60 60 31
Width: 568
Flags: W
LayerCount: 2
Fore
SplineSet
186 294 m 1,0,-1
 462 78 l 1,1,-1
 414 14 l 1,2,-1
 110 254 l 1,3,-1
 110 334 l 1,4,-1
 415 554 l 1,5,-1
 464 478 l 1,6,-1
 186 294 l 1,0,-1
EndSplineSet
Validated: 1
Substitution2: "brack-1" uni3008
EndChar

StartChar: equal
Encoding: 61 61 32
Width: 568
Flags: W
HStem: 148 79<55 513> 361 79<55 513>
LayerCount: 2
Fore
SplineSet
55 227 m 1,0,-1
 513 227 l 1,1,-1
 513 148 l 1,2,-1
 55 148 l 1,3,-1
 55 227 l 1,0,-1
55 440 m 1,4,-1
 513 440 l 1,5,-1
 513 361 l 1,6,-1
 55 361 l 1,7,-1
 55 440 l 1,4,-1
EndSplineSet
Validated: 1
EndChar

StartChar: greater
Encoding: 62 62 33
Width: 568
Flags: W
HStem: 0 21G<134.667 172.409>
LayerCount: 2
Fore
SplineSet
103 494 m 1,0,-1
 145 558 l 1,1,-1
 458 334 l 1,2,-1
 458 254 l 1,3,-1
 148 0 l 1,4,-1
 104 66 l 1,5,-1
 378 298 l 1,6,-1
 103 494 l 1,0,-1
EndSplineSet
Validated: 1
Substitution2: "brack-1" uni3009
EndChar

StartChar: question
Encoding: 63 63 34
Width: 568
Flags: W
HStem: -13 134<207.566 304.434> 631 78<156.243 333.787>
VStem: 189 134<7.62671 100.373> 208 81<216 313.549> 366 97<470.462 598.588>
LayerCount: 2
Fore
SplineSet
260 631 m 4,0,1
 194 631 194 631 131 597 c 5,2,-1
 105 669 l 5,3,4
 139 687 139 687 181.5 698 c 132,-1,5
 224 709 224 709 272 709 c 4,6,7
 329 709 329 709 365.5 693.5 c 132,-1,8
 402 678 402 678 424 654 c 132,-1,9
 446 630 446 630 454.5 600.5 c 132,-1,10
 463 571 463 571 463 544 c 4,11,12
 463 510 463 510 450 483.5 c 132,-1,13
 437 457 437 457 418 434 c 132,-1,14
 399 411 399 411 376 390 c 132,-1,15
 353 369 353 369 334 346.5 c 132,-1,16
 315 324 315 324 302 297.5 c 132,-1,17
 289 271 289 271 289 238 c 4,18,19
 289 233 289 233 289 227 c 132,-1,20
 289 221 289 221 290 216 c 5,21,-1
 212 216 l 5,22,23
 208 236 208 236 208 258 c 4,24,25
 208 290 208 290 219.5 316 c 132,-1,26
 231 342 231 342 249 364.5 c 132,-1,27
 267 387 267 387 287 406.5 c 132,-1,28
 307 426 307 426 325 446 c 132,-1,29
 343 466 343 466 354.5 488 c 132,-1,30
 366 510 366 510 366 536 c 4,31,32
 366 578 366 578 339 604.5 c 132,-1,33
 312 631 312 631 260 631 c 4,0,1
323 54 m 260,34,35
 323 27 323 27 305 7 c 132,-1,36
 287 -13 287 -13 256 -13 c 260,37,38
 225 -13 225 -13 207 7 c 132,-1,39
 189 27 189 27 189 54 c 260,40,41
 189 81 189 81 207 101 c 132,-1,42
 225 121 225 121 256 121 c 260,43,44
 287 121 287 121 305 101 c 132,-1,45
 323 81 323 81 323 54 c 260,34,35
EndSplineSet
Validated: 1
EndChar

StartChar: at
Encoding: 64 64 35
Width: 954
Flags: W
HStem: -153 76<363.232 650.485> -133 74<323.203 498.221 502.839 648.338> 47 77<421.402 572.726 667.381 748.929> 434 77<425.211 567.663> 634 75<358.805 610.478>
VStem: 67 86<135.868 419.491> 272 94<184.344 369.57> 568 91<142.406 431.875> 801 86<194.999 445.35>
LayerCount: 2
Fore
SplineSet
692 43 m 0,0,1
 660 43 660 43 639 52 c 128,-1,2
 618 61 618 61 604 76 c 1,3,4
 582 64 582 64 551 55.5 c 128,-1,5
 520 47 520 47 489 47 c 0,6,7
 441 47 441 47 401.5 62 c 128,-1,8
 362 77 362 77 333 106.5 c 128,-1,9
 304 136 304 136 288 179 c 128,-1,10
 272 222 272 222 272 279 c 0,11,12
 272 327 272 327 287 369.5 c 128,-1,13
 302 412 302 412 331.5 443.5 c 128,-1,14
 361 475 361 475 403.5 493 c 128,-1,15
 446 511 446 511 500 511 c 0,16,17
 551 511 551 511 593.5 503 c 128,-1,18
 636 495 636 495 659 487 c 1,19,-1
 659 181 l 2,20,21
 659 149 659 149 670 136 c 128,-1,22
 681 123 681 123 699 123 c 0,23,24
 725 123 725 123 744.5 141 c 128,-1,25
 764 159 764 159 776.5 188 c 128,-1,26
 789 217 789 217 795 253.5 c 128,-1,27
 801 290 801 290 801 328 c 0,28,29
 801 391 801 391 779 446.5 c 128,-1,30
 757 502 757 502 716 544 c 128,-1,31
 675 586 675 586 616.5 610 c 128,-1,32
 558 634 558 634 485 634 c 256,33,34
 412 634 412 634 351 609.5 c 128,-1,35
 290 585 290 585 246 539.5 c 128,-1,36
 202 494 202 494 177.5 428 c 128,-1,37
 153 362 153 362 153 278 c 0,38,39
 153 190 153 190 179 123.5 c 128,-1,40
 205 57 205 57 251.5 12.5 c 128,-1,41
 298 -32 298 -32 361.5 -54.5 c 128,-1,42
 425 -77 425 -77 501 -77 c 0,43,44
 560 -77 560 -77 598.5 -70 c 128,-1,45
 637 -63 637 -63 648 -59 c 1,46,-1
 658 -133 l 1,47,48
 641 -139 641 -139 596.5 -146 c 128,-1,49
 552 -153 552 -153 501 -153 c 0,50,51
 412 -153 412 -153 333 -127.5 c 128,-1,52
 254 -102 254 -102 195 -49.5 c 128,-1,53
 136 3 136 3 101.5 84.5 c 128,-1,54
 67 166 67 166 67 278 c 0,55,56
 67 386 67 386 101 467 c 128,-1,57
 135 548 135 548 192.5 601.5 c 128,-1,58
 250 655 250 655 325.5 682 c 128,-1,59
 401 709 401 709 485 709 c 0,60,61
 567 709 567 709 640 682.5 c 128,-1,62
 713 656 713 656 768 605.5 c 128,-1,63
 823 555 823 555 855 483.5 c 128,-1,64
 887 412 887 412 887 322 c 0,65,66
 887 254 887 254 871.5 202 c 128,-1,67
 856 150 856 150 830 114.5 c 128,-1,68
 804 79 804 79 768 61 c 128,-1,69
 732 43 732 43 692 43 c 0,0,1
492 124 m 0,70,71
 513 124 513 124 534.5 128.5 c 128,-1,72
 556 133 556 133 573 142 c 1,73,74
 570 155 570 155 569 168 c 128,-1,75
 568 181 568 181 568 193 c 2,76,-1
 568 428 l 1,77,78
 562 430 562 430 545 432 c 128,-1,79
 528 434 528 434 507 434 c 0,80,81
 436 434 436 434 401 390 c 128,-1,82
 366 346 366 346 366 279 c 0,83,84
 366 208 366 208 400 166 c 128,-1,85
 434 124 434 124 492 124 c 0,70,71
EndSplineSet
Validated: 1
Position2: "'case' Case-Sensitive Forms lookup 0 per glyph data 2" dx=0 dy=90 dh=0 dv=0
EndChar

StartChar: A
Encoding: 65 65 36
Width: 568
Flags: W
HStem: 0 21G<8 115.341 455.114 568> 176 79<184 395> 672 20G<236.5 334>
LayerCount: 2
Fore
SplineSet
395 255 m 17,0,1
 343 446 343 446 326 496 c 0,2,3
 304 562 304 562 290 585 c 1,4,5
 272 558 272 558 252 493 c 0,6,7
 198 316 198 316 184 255 c 25,8,-1
 395 255 l 17,0,1
8 0 m 17,9,10
 36 88 36 88 63 186 c 8,11,-1
 159 499 l 0,12,13
 184 586 184 586 217 658 c 0,14,15
 230 685 230 685 243 692 c 25,16,-1
 334 691 l 25,17,18
 348 684 348 684 358 660 c 0,19,20
 388 587 388 587 400 554 c 0,21,22
 401 549 401 549 516 176 c 24,23,-1
 568 0 l 25,24,-1
 460 0 l 25,25,-1
 417 176 l 25,26,-1
 157 176 l 25,27,-1
 110 0 l 25,28,-1
 8 0 l 17,9,10
EndSplineSet
Validated: 3073
EndChar

StartChar: B
Encoding: 66 66 37
Width: 568
Flags: W
HStem: -2.86035 80.1904<151.153 372.795> 322.85 77.2207<151.153 362.602> 615.89 80.1904<151.448 357.95>
VStem: 62.04 89.1133<78.4672 322.85 400.07 614.961> 403.808 94.416<439.7 574.384> 430.369 97.0547<128.537 279.613>
LayerCount: 2
Fore
SplineSet
245.4 -2.86035 m 0,0,1
 201.479 -2.86035 201.479 -2.86035 180.899 -1.87012 c 128,-1,2
 160.319 -0.879883 160.319 -0.879883 139.739 1.09961 c 128,-1,3
 119.16 3.08008 119.16 3.08008 99 6.0498 c 128,-1,4
 78.8398 9.01953 78.8398 9.01953 62.04 13.9697 c 1,5,-1
 62.04 679.25 l 1,6,7
 78.8398 684.2 78.8398 684.2 99 687.17 c 128,-1,8
 119.16 690.14 119.16 690.14 139.739 692.12 c 128,-1,9
 160.319 694.1 160.319 694.1 180.479 695.09 c 0,10,11
 197.684 696.08 197.684 696.08 244.56 696.08 c 0,12,13
 308.384 696.08 308.384 696.08 352.483 687.17 c 128,-1,14
 396.584 678.26 396.584 678.26 428.924 656.975 c 128,-1,15
 461.264 635.689 461.264 635.689 479.744 601.04 c 128,-1,16
 498.224 566.39 498.224 566.39 498.224 515.9 c 0,17,18
 498.224 459.47 498.224 459.47 475.544 423.335 c 128,-1,19
 452.864 387.2 452.864 387.2 415.063 369.38 c 1,20,21
 466.304 351.56 466.304 351.56 496.863 312.925 c 128,-1,22
 527.424 274.29 527.424 274.29 527.424 204 c 0,23,24
 527.424 101.04 527.424 101.04 462.844 49.0898 c 128,-1,25
 398.307 -2.86035 398.307 -2.86035 245.4 -2.86035 c 0,0,1
151.153 322.85 m 1,26,-1
 151.153 81.29 l 1,27,28
 157.252 80.2998 157.252 80.2998 165.567 79.3096 c 0,29,30
 172.774 78.3203 172.774 78.3203 182.478 77.8252 c 0,31,32
 191.713 77.3301 191.713 77.3301 250.44 77.3301 c 0,33,34
 297.564 77.3301 297.564 77.3301 327.642 82.7754 c 128,-1,35
 357.717 88.2197 357.717 88.2197 380.371 102.08 c 128,-1,36
 403.026 115.94 403.026 115.94 416.697 140.69 c 128,-1,37
 430.369 165.44 430.369 165.44 430.369 203.06 c 0,38,39
 430.369 236.72 430.369 236.72 420.214 259.985 c 128,-1,40
 410.057 283.25 410.057 283.25 390.918 297.11 c 128,-1,41
 371.779 310.97 371.779 310.97 345.218 316.91 c 128,-1,42
 318.657 322.85 318.657 322.85 273.96 322.85 c 2,43,-1
 151.153 322.85 l 1,26,-1
151.153 400.07 m 1,44,-1
 254.64 400.07 l 2,45,46
 296.002 400.07 296.002 400.07 321 405.02 c 128,-1,47
 345.999 409.97 345.999 409.97 364.357 422.84 c 128,-1,48
 382.716 435.71 382.716 435.71 393.262 456.5 c 128,-1,49
 403.808 477.29 403.808 477.29 403.808 508.97 c 0,50,51
 403.808 538.67 403.808 538.67 392.871 558.965 c 128,-1,52
 381.935 579.26 381.935 579.26 362.795 591.635 c 0,53,54
 344.196 603.66 344.196 603.66 317.876 609.95 c 0,55,56
 293.023 615.89 293.023 615.89 249.6 615.89 c 256,57,58
 183.862 615.89 183.862 615.89 172.22 614.9 c 128,-1,59
 160.578 613.91 160.578 613.91 151.153 611.93 c 1,60,-1
 151.153 400.07 l 1,44,-1
EndSplineSet
Validated: 1
EndChar

StartChar: C
Encoding: 67 67 38
Width: 568
Flags: W
HStem: -15 85<250.382 482.335> 624 85<257.343 471.156>
VStem: 44 95<205.599 483.528>
LayerCount: 2
Fore
SplineSet
353.4 -15 m 0,0,1
 267.9 -15 267.9 -15 213.9 9 c 128,-1,2
 159.9 33 159.9 33 121.2 79 c 0,3,4
 79.627 128.415 79.627 128.415 61.3506 192.5 c 0,5,6
 44 253.34 44 253.34 44 347 c 256,7,8
 44 444.754 44 444.754 64.0498 501.5 c 0,9,10
 87.9004 569 87.9004 569 128.4 615 c 128,-1,11
 168.901 661.001 168.901 661.001 222.9 685 c 128,-1,12
 276.9 709 276.9 709 357.9 709 c 0,13,14
 396.6 709 396.6 709 427.65 703 c 128,-1,15
 458.7 697 458.7 697 481.65 689 c 128,-1,16
 504.6 681 504.6 681 519 673 c 128,-1,17
 533.4 665 533.4 665 538.8 661 c 1,18,-1
 513.6 581 l 1,19,20
 505.5 587 505.5 587 490.2 594 c 128,-1,21
 474.9 601 474.9 601 455.55 608 c 128,-1,22
 436.2 615 436.2 615 413.25 619.5 c 128,-1,23
 390.3 624 390.3 624 366.9 624 c 0,24,25
 297.601 624 297.601 624 261.05 605 c 128,-1,26
 224.5 586 224.5 586 196.6 550 c 128,-1,27
 168.7 514 168.7 514 153.85 462.5 c 128,-1,28
 139 411 139 411 139 347 c 0,29,30
 139 285 139 285 152.05 234 c 128,-1,31
 165.1 183 165.1 183 191.2 146.5 c 128,-1,32
 217.298 110.001 217.298 110.001 253.399 90.0005 c 128,-1,33
 289.5 70 289.5 70 361.5 70 c 0,34,35
 421.8 70 421.8 70 461.4 84 c 128,-1,36
 501 98 501 98 520.8 109 c 1,37,-1
 544 29 l 1,38,39
 537.7 24 537.7 24 521.15 16.5 c 128,-1,40
 504.6 9 504.6 9 480.3 2 c 128,-1,41
 456 -5 456 -5 423.6 -10 c 128,-1,42
 391.2 -15 391.2 -15 353.4 -15 c 0,0,1
EndSplineSet
Validated: 1
EndChar

StartChar: D
Encoding: 68 68 39
Width: 568
Flags: W
HStem: -4 86<123.94 314.306> 617 84.5<123.574 328.151>
VStem: 27 96<82 617> 436 105<210.203 491.986>
LayerCount: 2
Fore
SplineSet
541 347 m 256,0,1
 541.978 257.005 541.978 257.005 520.489 190.503 c 128,-1,2
 499 124 499 124 461 80.5 c 128,-1,3
 423 37 423 37 353 16.5 c 128,-1,4
 283 -4 283 -4 193 -4 c 0,5,6
 133 -4 133 -4 95.5 0 c 128,-1,7
 58 4 58 4 27 14 c 1,8,-1
 27 686 l 1,9,10
 51.975 694.219 51.975 694.219 95 699 c 0,11,12
 113 701 113 701 198 701.5 c 128,-1,13
 283 702 283 702 352.5 679.5 c 128,-1,14
 422 657 422 657 460.5 613.5 c 128,-1,15
 499 570 499 570 519.5 504.5 c 128,-1,16
 540 439 540 439 541 347 c 256,0,1
201 82 m 0,17,18
 340 88 340 88 388 158 c 0,19,20
 436 230 436 230 436 348 c 256,21,22
 436 462 436 462 396 534 c 0,23,24
 344 626 344 626 183 618 c 0,25,26
 147 616 147 616 145 617 c 0,27,28
 134 616 134 616 123 614 c 1,29,-1
 123 82 l 1,30,31
 144 82 144 82 165 82 c 0,32,33
 183 82 183 82 201 82 c 0,17,18
EndSplineSet
Validated: 19489
EndChar

StartChar: E
Encoding: 69 69 40
Width: 568
Flags: W
HStem: 0 83<185 522> 323 81<185 461> 610 83<185 497>
VStem: 88 97<83 323 404 610>
LayerCount: 2
Fore
SplineSet
88 0 m 1,0,-1
 88 693 l 1,1,-1
 497 693 l 1,2,-1
 497 610 l 1,3,-1
 185 610 l 1,4,-1
 185 404 l 1,5,-1
 461 404 l 1,6,-1
 461 323 l 1,7,-1
 185 323 l 1,8,-1
 185 83 l 1,9,-1
 522 83 l 1,10,-1
 522 0 l 1,11,-1
 88 0 l 1,0,-1
EndSplineSet
Validated: 1
EndChar

StartChar: F
Encoding: 70 70 41
Width: 568
Flags: W
HStem: 0 21G<88 185> 319 82<185 484> 610 83<185 520>
VStem: 88 97<0 319 401 610>
LayerCount: 2
Fore
SplineSet
88 0 m 1,0,-1
 88 693 l 1,1,-1
 520 693 l 1,2,-1
 520 610 l 1,3,-1
 185 610 l 1,4,-1
 185 401 l 1,5,-1
 484 401 l 1,6,-1
 484 319 l 1,7,-1
 185 319 l 1,8,-1
 185 0 l 1,9,-1
 88 0 l 1,0,-1
EndSplineSet
Validated: 1
EndChar

StartChar: G
Encoding: 71 71 42
Width: 676
Flags: W
HStem: -14 84<291.77 510.244> 624 85<296.177 526.939>
VStem: 60 103<212.31 475.317> 511 97<77.9393 341>
LayerCount: 2
Fore
SplineSet
511 341 m 1,0,-1
 608 341 l 1,1,-1
 608 17 l 1,2,3
 596 13 596 13 573.5 8 c 128,-1,4
 551 3 551 3 521.5 -2 c 128,-1,5
 492 -7 492 -7 457 -10.5 c 128,-1,6
 422 -14 422 -14 386 -14 c 0,7,8
 313 -14 313 -14 253 10 c 128,-1,9
 193 34 193 34 150 80 c 128,-1,10
 107 126 107 126 83.5 193 c 128,-1,11
 60 260 60 260 60 347 c 256,12,13
 60 434 60 434 86.5 501.5 c 128,-1,14
 113 569 113 569 158 615 c 128,-1,15
 203 661 203 661 263.5 685 c 128,-1,16
 324 709 324 709 393 709 c 0,17,18
 440 709 440 709 476.5 703 c 128,-1,19
 513 697 513 697 539 689 c 128,-1,20
 565 681 565 681 581.5 673 c 128,-1,21
 598 665 598 665 604 661 c 1,22,-1
 573 580 l 1,23,24
 544 599 544 599 496 611.5 c 128,-1,25
 448 624 448 624 398 624 c 0,26,27
 345 624 345 624 301.5 605 c 128,-1,28
 258 586 258 586 227.5 550 c 128,-1,29
 197 514 197 514 180 462.5 c 128,-1,30
 163 411 163 411 163 347 c 0,31,32
 163 285 163 285 177.5 234 c 128,-1,33
 192 183 192 183 221.5 146.5 c 128,-1,34
 251 110 251 110 294.5 90 c 128,-1,35
 338 70 338 70 397 70 c 0,36,37
 439 70 439 70 468.5 74.5 c 128,-1,38
 498 79 498 79 511 83 c 1,39,-1
 511 341 l 1,0,-1
EndSplineSet
Validated: 1
EndChar

StartChar: H
Encoding: 72 72 43
Width: 709
Flags: W
HStem: 0 21G<88 185 524 621> 320 84<185 524> 673 20G<88 185 524 621>
VStem: 88 97<0 320 404 693> 524 97<0 320 404 693>
LayerCount: 2
Fore
SplineSet
524 693 m 1,0,-1
 621 693 l 1,1,-1
 621 0 l 1,2,-1
 524 0 l 1,3,-1
 524 320 l 1,4,-1
 185 320 l 1,5,-1
 185 0 l 1,6,-1
 88 0 l 1,7,-1
 88 693 l 1,8,-1
 185 693 l 1,9,-1
 185 404 l 1,10,-1
 524 404 l 1,11,-1
 524 693 l 1,0,-1
EndSplineSet
Validated: 1
EndChar

StartChar: I
Encoding: 73 73 44
Width: 229
Flags: W
HStem: 0 21G<64 163> 671 20G<64 163>
VStem: 64 99<0 691>
LayerCount: 2
Fore
SplineSet
64 691 m 25,0,-1
 163 691 l 25,1,-1
 163 0 l 25,2,-1
 64 0 l 25,3,-1
 64 691 l 25,0,-1
EndSplineSet
Validated: 19457
EndChar

StartChar: J
Encoding: 74 74 45
Width: 504
Flags: W
HStem: -15 85<92.1243 273.742> 673 20G<324 421>
VStem: 324 97<122.033 693>
LayerCount: 2
Fore
SplineSet
421 223 m 2,0,1
 421 173 421 173 410.5 130 c 128,-1,2
 400 87 400 87 373.5 54.5 c 128,-1,3
 347 22 347 22 302.5 3.5 c 128,-1,4
 258 -15 258 -15 191 -15 c 0,5,6
 157 -15 157 -15 128.5 -9.5 c 128,-1,7
 100 -4 100 -4 77 4.5 c 128,-1,8
 54 13 54 13 37 22.5 c 128,-1,9
 20 32 20 32 10 41 c 1,10,-1
 48 118 l 1,11,12
 69 103 69 103 102.5 86.5 c 128,-1,13
 136 70 136 70 186 70 c 0,14,15
 258 70 258 70 291 106.5 c 128,-1,16
 324 143 324 143 324 232 c 2,17,-1
 324 693 l 1,18,-1
 421 693 l 1,19,-1
 421 223 l 2,0,1
EndSplineSet
Validated: 1
EndChar

StartChar: K
Encoding: 75 75 46
Width: 633
Flags: W
HStem: 0 21G<88 185 496 625> 673 20G<88 185 471.5 601>
VStem: 88 97<0 329 387 693>
LayerCount: 2
Fore
SplineSet
601 693 m 1,0,1
 570 659 570 659 531 617.5 c 128,-1,2
 492 576 492 576 449.5 532.5 c 128,-1,3
 407 489 407 489 365 447 c 128,-1,4
 323 405 323 405 286 369 c 1,5,6
 329 339 329 339 377 295 c 128,-1,7
 425 251 425 251 471 201 c 128,-1,8
 517 151 517 151 557.5 99 c 128,-1,9
 598 47 598 47 625 0 c 1,10,-1
 511 0 l 1,11,12
 481 47 481 47 442 94.5 c 128,-1,13
 403 142 403 142 359.5 185.5 c 128,-1,14
 316 229 316 229 271.5 266 c 128,-1,15
 227 303 227 303 185 329 c 1,16,-1
 185 0 l 1,17,-1
 88 0 l 1,18,-1
 88 693 l 1,19,-1
 185 693 l 1,20,-1
 185 387 l 1,21,22
 220 420 220 420 262 461.5 c 128,-1,23
 304 503 304 503 345 545 c 128,-1,24
 386 587 386 587 422.5 625.5 c 128,-1,25
 459 664 459 664 484 693 c 1,26,-1
 601 693 l 1,0,1
EndSplineSet
Validated: 1
EndChar

StartChar: L
Encoding: 76 76 47
Width: 523
Flags: W
HStem: 0 84<185 505> 673 20G<88 185>
VStem: 88 97<84 693>
LayerCount: 2
Fore
SplineSet
505 84 m 1,0,-1
 505 0 l 1,1,-1
 88 0 l 1,2,-1
 88 693 l 1,3,-1
 185 693 l 1,4,-1
 185 84 l 1,5,-1
 505 84 l 1,0,-1
EndSplineSet
Validated: 1
EndChar

StartChar: M
Encoding: 77 77 48
Width: 875
Flags: W
HStem: 0 21G<69 166.5 709.5 807> 673 20G<115.5 218.5 657.5 773>
VStem: 69 95<0 260.303> 712 95<0 254.342>
LayerCount: 2
Fore
SplineSet
399 96 m 1,0,1
 389 120 389 120 372.5 157 c 128,-1,2
 356 194 356 194 337 237 c 128,-1,3
 318 280 318 280 296.5 325.5 c 128,-1,4
 275 371 275 371 256 411.5 c 128,-1,5
 237 452 237 452 220.5 484 c 128,-1,6
 204 516 204 516 194 533 c 1,7,8
 183 415 183 415 176 277.5 c 128,-1,9
 169 140 169 140 164 0 c 1,10,-1
 69 0 l 1,11,12
 73 90 73 90 78 181.5 c 128,-1,13
 83 273 83 273 89.5 361.5 c 128,-1,14
 96 450 96 450 103.5 534 c 128,-1,15
 111 618 111 618 120 693 c 1,16,-1
 205 693 l 1,17,18
 232 649 232 649 263 589 c 128,-1,19
 294 529 294 529 325 463.5 c 128,-1,20
 356 398 356 398 385 332.5 c 128,-1,21
 414 267 414 267 438 213 c 1,22,23
 462 267 462 267 491 332.5 c 128,-1,24
 520 398 520 398 551 463.5 c 128,-1,25
 582 529 582 529 613 589 c 128,-1,26
 644 649 644 649 671 693 c 1,27,-1
 756 693 l 1,28,29
 790 358 790 358 807 0 c 1,30,-1
 712 0 l 1,31,32
 707 140 707 140 700 277.5 c 128,-1,33
 693 415 693 415 682 533 c 1,34,35
 672 516 672 516 655.5 484 c 128,-1,36
 639 452 639 452 620 411.5 c 128,-1,37
 601 371 601 371 579.5 325.5 c 128,-1,38
 558 280 558 280 539 237 c 128,-1,39
 520 194 520 194 503.5 157 c 128,-1,40
 487 120 487 120 477 96 c 1,41,-1
 399 96 l 1,0,1
EndSplineSet
Validated: 1
EndChar

StartChar: N
Encoding: 78 78 49
Width: 732
Flags: W
HStem: 0 21G<88 183 552 644> 673 20G<88 188.5 549 644>
VStem: 88 95<0 541> 549 95<180 693>
LayerCount: 2
Fore
SplineSet
563 0 m 1,0,1
 541 37 541 37 512.5 83 c 128,-1,2
 484 129 484 129 451 178.5 c 128,-1,3
 418 228 418 228 382.5 279 c 128,-1,4
 347 330 347 330 312 377.5 c 128,-1,5
 277 425 277 425 244 467 c 128,-1,6
 211 509 211 509 183 541 c 1,7,-1
 183 0 l 1,8,-1
 88 0 l 1,9,-1
 88 693 l 1,10,-1
 165 693 l 1,11,12
 212 643 212 643 265.5 576.5 c 128,-1,13
 319 510 319 510 371.5 439.5 c 128,-1,14
 424 369 424 369 470.5 301 c 128,-1,15
 517 233 517 233 549 180 c 1,16,-1
 549 693 l 1,17,-1
 644 693 l 1,18,-1
 644 0 l 1,19,-1
 563 0 l 1,0,1
EndSplineSet
Validated: 1
EndChar

StartChar: O
Encoding: 79 79 50
Width: 782
Flags: W
HStem: -15 85<291.436 490.554> 624 85<291.436 490.554>
VStem: 60 102<215.747 478.253> 619 103<215.747 478.253>
LayerCount: 2
Fore
SplineSet
60 347 m 256,0,1
 60 436 60 436 86.5 504 c 128,-1,2
 113 572 113 572 158.5 617.5 c 128,-1,3
 204 663 204 663 264.5 686 c 128,-1,4
 325 709 325 709 393 709 c 0,5,6
 460 709 460 709 519.5 686 c 128,-1,7
 579 663 579 663 624 617.5 c 128,-1,8
 669 572 669 572 695.5 504 c 128,-1,9
 722 436 722 436 722 347 c 256,10,11
 722 258 722 258 695.5 190 c 128,-1,12
 669 122 669 122 624 76.5 c 128,-1,13
 579 31 579 31 519.5 8 c 128,-1,14
 460 -15 460 -15 393 -15 c 0,15,16
 325 -15 325 -15 264.5 8 c 128,-1,17
 204 31 204 31 158.5 76.5 c 128,-1,18
 113 122 113 122 86.5 190 c 128,-1,19
 60 258 60 258 60 347 c 256,0,1
162 347 m 256,20,21
 162 284 162 284 178 232.5 c 128,-1,22
 194 181 194 181 223.5 145 c 128,-1,23
 253 109 253 109 295.5 89.5 c 128,-1,24
 338 70 338 70 391 70 c 256,25,26
 444 70 444 70 486 89.5 c 128,-1,27
 528 109 528 109 557.5 145 c 128,-1,28
 587 181 587 181 603 232.5 c 128,-1,29
 619 284 619 284 619 347 c 256,30,31
 619 410 619 410 603 461.5 c 128,-1,32
 587 513 587 513 557.5 549 c 128,-1,33
 528 585 528 585 486 604.5 c 128,-1,34
 444 624 444 624 391 624 c 256,35,36
 338 624 338 624 295.5 604.5 c 128,-1,37
 253 585 253 585 223.5 549 c 128,-1,38
 194 513 194 513 178 461.5 c 128,-1,39
 162 410 162 410 162 347 c 256,20,21
EndSplineSet
Validated: 1
EndChar

StartChar: P
Encoding: 80 80 51
Width: 612
Flags: W
HStem: 0 21G<88 185> 257 83<185 401.923> 615 85<185 404.384>
VStem: 88 97<0 257 340 613.45> 473 102<400.409 554.608>
LayerCount: 2
Fore
SplineSet
272 700 m 0,0,1
 418 700 418 700 496.5 644.5 c 128,-1,2
 575 589 575 589 575 479 c 0,3,4
 575 419 575 419 553.5 376.5 c 128,-1,5
 532 334 532 334 491.5 307.5 c 128,-1,6
 451 281 451 281 393 269 c 128,-1,7
 335 257 335 257 262 257 c 2,8,-1
 185 257 l 1,9,-1
 185 0 l 1,10,-1
 88 0 l 1,11,-1
 88 683 l 1,12,13
 129 693 129 693 179.5 696.5 c 128,-1,14
 230 700 230 700 272 700 c 0,0,1
280 615 m 0,15,16
 218 615 218 615 185 612 c 1,17,-1
 185 340 l 1,18,-1
 258 340 l 2,19,20
 308 340 308 340 348 346.5 c 128,-1,21
 388 353 388 353 415.5 368.5 c 128,-1,22
 443 384 443 384 458 411 c 128,-1,23
 473 438 473 438 473 480 c 0,24,25
 473 520 473 520 457.5 546 c 128,-1,26
 442 572 442 572 415.5 587.5 c 128,-1,27
 389 603 389 603 354 609 c 128,-1,28
 319 615 319 615 280 615 c 0,15,16
EndSplineSet
Validated: 1
EndChar

StartChar: Q
Encoding: 81 81 52
Width: 782
Flags: W
HStem: -185 76<560.944 652.118> 624 85<291.436 490.554>
VStem: 60 102<215.466 478.253> 619 103<215.473 478.253>
LayerCount: 2
Fore
SplineSet
60 347 m 0,0,1
 60 436 60 436 86.5 504 c 128,-1,2
 113 572 113 572 158.5 617.5 c 128,-1,3
 204 663 204 663 264.5 686 c 128,-1,4
 325 709 325 709 393 709 c 0,5,6
 460 709 460 709 519.5 686 c 128,-1,7
 579 663 579 663 624 617.5 c 128,-1,8
 669 572 669 572 695.5 504 c 128,-1,9
 722 436 722 436 722 347 c 0,10,11
 722 269 722 269 702 208 c 128,-1,12
 682 147 682 147 646.5 102.5 c 128,-1,13
 611 58 611 58 563.5 30.5 c 128,-1,14
 516 3 516 3 462 -7 c 1,15,16
 463 -30 463 -30 482.5 -47.5 c 128,-1,17
 502 -65 502 -65 532 -77 c 128,-1,18
 562 -89 562 -89 599 -97 c 128,-1,19
 636 -105 636 -105 673 -109 c 1,20,-1
 650 -185 l 1,21,22
 598 -178 598 -178 550.5 -166.5 c 128,-1,23
 503 -155 503 -155 464.5 -136 c 128,-1,24
 426 -117 426 -117 400 -87.5 c 128,-1,25
 374 -58 374 -58 365 -14 c 1,26,27
 302 -10 302 -10 246 15.5 c 128,-1,28
 190 41 190 41 149 86.5 c 128,-1,29
 108 132 108 132 84 197 c 128,-1,30
 60 262 60 262 60 347 c 0,0,1
162 347 m 256,31,32
 162 284 162 284 178 232.5 c 128,-1,33
 194 181 194 181 223.5 145 c 128,-1,34
 253 109 253 109 295.5 89.5 c 128,-1,35
 338 70 338 70 391 70 c 256,36,37
 444 70 444 70 486 89.5 c 128,-1,38
 528 109 528 109 557.5 145 c 128,-1,39
 587 181 587 181 603 232.5 c 128,-1,40
 619 284 619 284 619 347 c 256,41,42
 619 410 619 410 603 461.5 c 128,-1,43
 587 513 587 513 557.5 549 c 128,-1,44
 528 585 528 585 486 604.5 c 128,-1,45
 444 624 444 624 391 624 c 256,46,47
 338 624 338 624 295.5 604.5 c 128,-1,48
 253 585 253 585 223.5 549 c 128,-1,49
 194 513 194 513 178 461.5 c 128,-1,50
 162 410 162 410 162 347 c 256,31,32
EndSplineSet
Validated: 1
EndChar

StartChar: R
Encoding: 82 82 53
Width: 633
Flags: W
HStem: 0 21G<88 185 497 613> 271 80<185 325.594> 615 85<185 403.621>
VStem: 88 97<0 271 351 613.45> 469 102<404.474 556.132>
LayerCount: 2
Fore
SplineSet
427 290 m 1,0,1
 443 270 443 270 467.5 237.5 c 128,-1,2
 492 205 492 205 518 165.5 c 128,-1,3
 544 126 544 126 569.5 83 c 128,-1,4
 595 40 595 40 613 0 c 1,5,-1
 507 0 l 1,6,7
 487 38 487 38 463.5 77 c 128,-1,8
 440 116 440 116 416 151.5 c 128,-1,9
 392 187 392 187 368.5 218 c 128,-1,10
 345 249 345 249 326 272 c 1,11,12
 313 271 313 271 299.5 271 c 128,-1,13
 286 271 286 271 272 271 c 2,14,-1
 185 271 l 1,15,-1
 185 0 l 1,16,-1
 88 0 l 1,17,-1
 88 683 l 1,18,19
 129 693 129 693 179.5 696.5 c 128,-1,20
 230 700 230 700 272 700 c 0,21,22
 418 700 418 700 494.5 645 c 128,-1,23
 571 590 571 590 571 481 c 0,24,25
 571 412 571 412 534.5 363 c 128,-1,26
 498 314 498 314 427 290 c 1,0,1
280 615 m 0,27,28
 218 615 218 615 185 612 c 1,29,-1
 185 351 l 1,30,-1
 254 351 l 2,31,32
 304 351 304 351 344 356 c 128,-1,33
 384 361 384 361 411.5 375 c 128,-1,34
 439 389 439 389 454 414.5 c 128,-1,35
 469 440 469 440 469 482 c 0,36,37
 469 521 469 521 454 547 c 128,-1,38
 439 573 439 573 413.5 588 c 128,-1,39
 388 603 388 603 353.5 609 c 128,-1,40
 319 615 319 615 280 615 c 0,27,28
EndSplineSet
Validated: 1
EndChar

StartChar: S
Encoding: 83 83 54
Width: 536
Flags: W
HStem: -15 84<117.174 355.958> 625 84<194.148 408.328>
VStem: 51 100<464.865 586.039> 401 102<109.47 239.513>
LayerCount: 2
Fore
SplineSet
249 69 m 0,0,1
 401 69 401 69 401 173 c 0,2,3
 401 205 401 205 387.5 227.5 c 128,-1,4
 374 250 374 250 351 266.5 c 128,-1,5
 328 283 328 283 298.5 295 c 128,-1,6
 269 307 269 307 236 319 c 0,7,8
 198 332 198 332 164 348.5 c 128,-1,9
 130 365 130 365 105 387.5 c 128,-1,10
 80 410 80 410 65.5 441 c 128,-1,11
 51 472 51 472 51 516 c 0,12,13
 51 607 51 607 113 658 c 128,-1,14
 175 709 175 709 284 709 c 0,15,16
 347 709 347 709 398.5 695.5 c 128,-1,17
 450 682 450 682 474 666 c 1,18,-1
 443 587 l 1,19,20
 422 600 422 600 380.5 612.5 c 128,-1,21
 339 625 339 625 284 625 c 0,22,23
 256 625 256 625 232 619 c 128,-1,24
 208 613 208 613 190 601 c 128,-1,25
 172 589 172 589 161.5 570.5 c 128,-1,26
 151 552 151 552 151 527 c 0,27,28
 151 499 151 499 162 480 c 128,-1,29
 173 461 173 461 193 446.5 c 128,-1,30
 213 432 213 432 239.5 420 c 128,-1,31
 266 408 266 408 298 396 c 0,32,33
 343 378 343 378 380.5 360 c 128,-1,34
 418 342 418 342 445.5 317 c 128,-1,35
 473 292 473 292 488 257.5 c 128,-1,36
 503 223 503 223 503 174 c 0,37,38
 503 83 503 83 436.5 34 c 128,-1,39
 370 -15 370 -15 249 -15 c 0,40,41
 208 -15 208 -15 173.5 -9.5 c 128,-1,42
 139 -4 139 -4 112 3.5 c 128,-1,43
 85 11 85 11 65.5 19.5 c 128,-1,44
 46 28 46 28 35 34 c 1,45,-1
 64 114 l 1,46,47
 87 101 87 101 134 85 c 128,-1,48
 181 69 181 69 249 69 c 0,0,1
EndSplineSet
Validated: 1
EndChar

StartChar: T
Encoding: 84 84 55
Width: 569
Flags: W
HStem: 0 21G<236 333> 609 84<18 236 333 551>
VStem: 236 97<0 609>
LayerCount: 2
Fore
SplineSet
551 693 m 1,0,-1
 551 609 l 1,1,-1
 333 609 l 1,2,-1
 333 0 l 1,3,-1
 236 0 l 1,4,-1
 236 609 l 1,5,-1
 18 609 l 1,6,-1
 18 693 l 1,7,-1
 551 693 l 1,0,-1
EndSplineSet
Validated: 1
EndChar

StartChar: U
Encoding: 85 85 56
Width: 692
Flags: W
HStem: -15 86<259.238 434.686> 673 20G<83 180 512 609>
VStem: 83 97<153.133 693> 512 97<154.705 693>
LayerCount: 2
Fore
SplineSet
346 -15 m 256,0,1
 278 -15 278 -15 228 6 c 128,-1,2
 178 27 178 27 146 63.5 c 128,-1,3
 114 100 114 100 98.5 150 c 128,-1,4
 83 200 83 200 83 258 c 2,5,-1
 83 693 l 1,6,-1
 180 693 l 1,7,-1
 180 269 l 2,8,9
 180 165 180 165 226 118 c 128,-1,10
 272 71 272 71 346 71 c 0,11,12
 383 71 383 71 413.5 82.5 c 128,-1,13
 444 94 444 94 466 118 c 128,-1,14
 488 142 488 142 500 179.5 c 128,-1,15
 512 217 512 217 512 269 c 2,16,-1
 512 693 l 1,17,-1
 609 693 l 1,18,-1
 609 258 l 2,19,20
 609 200 609 200 593.5 150 c 128,-1,21
 578 100 578 100 545.5 63.5 c 128,-1,22
 513 27 513 27 463.5 6 c 128,-1,23
 414 -15 414 -15 346 -15 c 256,0,1
EndSplineSet
Validated: 1
EndChar

StartChar: V
Encoding: 86 86 57
Width: 660
Flags: W
HStem: 0 21G<268 393> 673 20G<12 146 517.5 648>
LayerCount: 2
Fore
SplineSet
648 693 m 1,0,1
 610 583 610 583 575.5 489.5 c 128,-1,2
 541 396 541 396 508 312 c 128,-1,3
 475 228 475 228 442.5 151.5 c 128,-1,4
 410 75 410 75 376 0 c 1,5,-1
 285 0 l 1,6,7
 251 75 251 75 218.5 151.5 c 128,-1,8
 186 228 186 228 152.5 312 c 128,-1,9
 119 396 119 396 84 489.5 c 128,-1,10
 49 583 49 583 12 693 c 1,11,-1
 119 693 l 1,12,13
 173 535 173 535 225 389 c 128,-1,14
 277 243 277 243 332 115 c 1,15,16
 387 242 387 242 439 388.5 c 128,-1,17
 491 535 491 535 544 693 c 1,18,-1
 648 693 l 1,0,1
EndSplineSet
Validated: 1
EndChar

StartChar: W
Encoding: 87 87 58
Width: 933
Flags: W
HStem: 0 21G<172.5 317.5 615 760> 673 20G<30 139 797 903>
LayerCount: 2
Fore
SplineSet
467 470 m 1,0,1
 425 336 425 336 382 222 c 128,-1,2
 339 108 339 108 296 0 c 1,3,-1
 199 0 l 1,4,5
 146 153 146 153 105.5 323 c 128,-1,6
 65 493 65 493 30 693 c 1,7,-1
 132 693 l 1,8,9
 146 615 146 615 161 537 c 128,-1,10
 176 459 176 459 192 385.5 c 128,-1,11
 208 312 208 312 224 245 c 128,-1,12
 240 178 240 178 257 121 c 1,13,14
 297 226 297 226 342 351.5 c 128,-1,15
 387 477 387 477 426 611 c 1,16,-1
 510 611 l 1,17,18
 549 477 549 477 595 351.5 c 128,-1,19
 641 226 641 226 681 121 c 1,20,21
 697 177 697 177 713 244 c 128,-1,22
 729 311 729 311 744.5 384.5 c 128,-1,23
 760 458 760 458 775 536.5 c 128,-1,24
 790 615 790 615 804 693 c 1,25,-1
 903 693 l 1,26,27
 867 493 867 493 826.5 323 c 128,-1,28
 786 153 786 153 734 0 c 1,29,-1
 637 0 l 1,30,31
 593 108 593 108 551 222 c 128,-1,32
 509 336 509 336 467 470 c 1,0,1
EndSplineSet
Validated: 1
EndChar

StartChar: X
Encoding: 88 88 59
Width: 568
Flags: W
HStem: 0 21G<25 139.633 432.024 548.32> 673 20G<33.0098 158.611 409.526 534.08>
LayerCount: 2
Fore
SplineSet
438.165 0 m 1,0,1
 425.883 30 425.883 30 408.688 66.5 c 128,-1,2
 391.494 103 391.494 103 371.023 142.5 c 128,-1,3
 350.554 182 350.554 182 328.446 221.5 c 128,-1,4
 306.338 261 306.338 261 285.868 296 c 1,5,6
 276 282 276 282 243.211 221.5 c 0,7,8
 232 204 232 204 201.043 142.5 c 0,9,10
 180.981 103 180.981 103 163.378 66.5 c 128,-1,11
 145.773 30 145.773 30 133.492 0 c 1,12,-1
 25 0 l 1,13,14
 65.0498 88 65.0498 88 112.21 179 c 128,-1,15
 159.37 270 159.37 270 219 366 c 1,16,-1
 33.0098 693 l 1,17,-1
 148 693 l 1,18,-1
 284.88 435 l 1,19,-1
 420 693 l 1,20,-1
 534.08 693 l 1,21,-1
 351 370 l 1,22,23
 411.521 273 411.521 273 459.45 181 c 128,-1,24
 507.38 89 507.38 89 548.32 0 c 1,25,-1
 438.165 0 l 1,0,1
EndSplineSet
Validated: 1
EndChar

StartChar: Y
Encoding: 89 89 60
Width: 602
Flags: W
HStem: 0 21G<253 350> 673 20G<8 141 466.5 594>
VStem: 253 97<0 280>
LayerCount: 2
Fore
SplineSet
253 0 m 1,0,-1
 253 278 l 1,1,2
 184 385 184 385 123 489 c 128,-1,3
 62 593 62 593 8 693 c 1,4,-1
 122 693 l 1,5,6
 160 611 160 611 207 526.5 c 128,-1,7
 254 442 254 442 304 364 c 1,8,9
 353 442 353 442 400 526.5 c 128,-1,10
 447 611 447 611 486 693 c 1,11,-1
 594 693 l 1,12,13
 540 593 540 593 479 489.5 c 128,-1,14
 418 386 418 386 350 280 c 1,15,-1
 350 0 l 1,16,-1
 253 0 l 1,0,-1
EndSplineSet
Validated: 1
EndChar

StartChar: Z
Encoding: 90 90 61
Width: 577
Flags: W
HStem: 0 83<148 538> 610 83<53 409>
LayerCount: 2
Fore
SplineSet
528 616 m 1,0,1
 505 590 505 590 474.5 553.5 c 128,-1,2
 444 517 444 517 410 472.5 c 128,-1,3
 376 428 376 428 340 378.5 c 128,-1,4
 304 329 304 329 269.5 278.5 c 128,-1,5
 235 228 235 228 204 178 c 128,-1,6
 173 128 173 128 148 83 c 1,7,-1
 538 83 l 1,8,-1
 538 0 l 1,9,-1
 35 0 l 1,10,-1
 35 65 l 1,11,12
 56 105 56 105 84.5 153 c 128,-1,13
 113 201 113 201 145.5 251 c 128,-1,14
 178 301 178 301 213 352 c 128,-1,15
 248 403 248 403 282.5 450 c 128,-1,16
 317 497 317 497 349.5 538 c 128,-1,17
 382 579 382 579 409 610 c 1,18,-1
 53 610 l 1,19,-1
 53 693 l 1,20,-1
 528 693 l 1,21,-1
 528 616 l 1,0,1
EndSplineSet
Validated: 1
EndChar

StartChar: bracketleft
Encoding: 91 91 62
Width: 568
Flags: W
HStem: -185 73<261 399> 710 73<261 399>
VStem: 174 225<-185 -112 710 783> 174 87<-112 710>
LayerCount: 2
Fore
SplineSet
174 783 m 5,0,-1
 399 783 l 5,1,-1
 399 710 l 5,2,-1
 261 710 l 5,3,-1
 261 -112 l 5,4,-1
 399 -112 l 5,5,-1
 399 -185 l 5,6,-1
 174 -185 l 5,7,-1
 174 783 l 5,0,-1
EndSplineSet
Validated: 1
Position2: "'case' Case-Sensitive Forms lookup 0 per glyph data 0" dx=0 dy=60 dh=0 dv=0
EndChar

StartChar: backslash
Encoding: 92 92 63
Width: 568
Flags: W
HStem: -185 21G<396.037 498>
LayerCount: 2
Fore
SplineSet
-19 783 m 5,0,-1
 74 783 l 5,1,-1
 599 -185 l 1,2,-1
 504 -185 l 1,3,-1
 -19 783 l 5,0,-1
EndSplineSet
EndChar

StartChar: bracketright
Encoding: 93 93 64
Width: 567
Flags: W
HStem: -185 73<183 321> 710 73<183 321>
VStem: 183 225<-185 -112 710 783> 321 87<-112 710>
LayerCount: 2
Fore
SplineSet
408 -185 m 1,0,-1
 183 -185 l 1,1,-1
 183 -112 l 1,2,-1
 321 -112 l 1,3,-1
 321 710 l 1,4,-1
 183 710 l 1,5,-1
 183 783 l 1,6,-1
 408 783 l 1,7,-1
 408 -185 l 1,0,-1
EndSplineSet
Validated: 1
Position2: "'case' Case-Sensitive Forms lookup 0 per glyph data 0" dx=0 dy=60 dh=0 dv=0
EndChar

StartChar: asciicircum
Encoding: 94 94 65
Width: 568
Flags: W
HStem: 673 20G<231.588 336.412>
LayerCount: 2
Fore
SplineSet
325 693 m 1,0,-1
 519 353 l 1,1,-1
 445 315 l 1,2,-1
 284 597 l 1,3,-1
 123 315 l 1,4,-1
 49 353 l 1,5,-1
 243 693 l 1,6,-1
 325 693 l 1,0,-1
EndSplineSet
Validated: 1
EndChar

StartChar: underscore
Encoding: 95 95 66
Width: 568
Flags: W
HStem: -185 79<-2 572>
LayerCount: 2
Fore
SplineSet
-2 -106 m 1,0,-1
 572 -106 l 1,1,-1
 572 -185 l 1,2,-1
 -2 -185 l 1,3,-1
 -2 -106 l 1,0,-1
EndSplineSet
Validated: 1
EndChar

StartChar: grave
Encoding: 96 96 67
Width: 568
Flags: W
HStem: 580 196
VStem: 147 219
LayerCount: 2
Fore
SplineSet
200 776 m 5,0,-1
 366 632 l 5,1,-1
 326 580 l 5,2,-1
 147 707 l 5,3,-1
 200 776 l 5,0,-1
EndSplineSet
Validated: 1
EndChar

StartChar: a
Encoding: 97 97 68
Width: 568
Flags: W
HStem: -11 78<184.319 412.268> 261.5 75<191.039 412.817> 453.25 79.75<126.536 372.453>
VStem: 61 94<94.4583 224.931> 413 91<70.291 255.483 323.5 412.211>
LayerCount: 2
Fore
SplineSet
282 67 m 128,-1,1
 345 67 345 67 370.5 68.5 c 128,-1,2
 396 70 396 70 413 74 c 1,3,-1
 413 249.5 l 1,4,5
 407.32 251.826 407.32 251.826 380.5 258 c 0,6,7
 365.295 261.5 365.295 261.5 288 261.5 c 0,8,9
 267 261.5 267 261.5 243.5 258.5 c 128,-1,10
 220 255.5 220 255.5 200.5 246 c 128,-1,11
 181 236.5 181 236.5 168 209.75 c 128,-1,12
 155 183 155 183 155 156 c 0,13,14
 155 106 155 106 187 86.5 c 128,-1,0
 219 67 219 67 282 67 c 128,-1,1
266 533 m 0,15,16
 359.999 533 359.999 533 398.5 518.5 c 128,-1,17
 437 504 437 504 460.5 477.5 c 128,-1,18
 484 451 484 451 494 414.5 c 128,-1,19
 504 378 504 378 504 334 c 2,20,-1
 504 9 l 1,21,22
 492 7 492 7 470.5 3.5 c 0,23,24
 436.301 -2.06738 436.301 -2.06738 422 -3 c 0,25,26
 381.689 -7.70312 381.689 -7.70312 363.5 -8.5 c 0,27,28
 314.266 -11 314.266 -11 263 -11 c 0,29,30
 219 -11 219 -11 182 -2 c 128,-1,31
 145 7 145 7 118 26.5 c 128,-1,32
 91 46 91 46 76 78 c 128,-1,33
 61 110 61 110 61 155 c 0,34,35
 61 198 61 198 78.5 229 c 128,-1,36
 96 260 96 260 126 288 c 128,-1,37
 156 316 156 316 196 327.5 c 0,38,39
 228.886 336.955 228.886 336.955 280 336.5 c 0,40,41
 326.628 337.036 326.628 337.036 347 335 c 0,42,43
 362 333.5 362 333.5 375.5 331 c 128,-1,44
 389 328.5 389 328.5 399 326.5 c 128,-1,45
 409 324.5 409 324.5 413 323.5 c 1,46,-1
 413 349.5 l 2,47,48
 413 372.5 413 372.5 408 384.75 c 128,-1,49
 403 397 403 397 390 414.5 c 0,50,51
 376.472 432.712 376.472 432.712 354.5 442.5 c 0,52,53
 329.807 453.5 329.807 453.5 270.903 453.25 c 128,-1,54
 212 453 212 453 177.5 446.5 c 128,-1,55
 143 440 143 440 126 433 c 1,56,-1
 115 510 l 1,57,58
 133 518 133 518 175 525.5 c 128,-1,59
 217 533 217 533 266 533 c 0,15,16
EndSplineSet
Validated: 3105
Substitution2: "'case' Case-Sensitive Forms lookup 21 subtable" A
Substitution2: "'ordn' Ordinals in Latin lookup 11 subtable" ordfeminine
EndChar

StartChar: b
Encoding: 98 98 69
Width: 568
Flags: W
HStem: -12 82<158.279 346.679> 450 82<187.289 357.7> 756 20G<65 158>
VStem: 65 93<76.1953 424.172 497 760> 426 97<154.479 374.848>
LayerCount: 2
Fore
SplineSet
158 497 m 5,0,1
 175 508 175 508 209.5 520 c 132,-1,2
 244 532 244 532 289 532 c 4,3,4
 345 532 345 532 388.5 512 c 132,-1,5
 432 492 432 492 462 456 c 132,-1,6
 492 420 492 420 507.5 370 c 132,-1,7
 523 320 523 320 523 260 c 4,8,9
 523 197 523 197 504.5 146.5 c 132,-1,10
 486 96 486 96 452 61 c 132,-1,11
 418 26 418 26 370 7 c 132,-1,12
 322 -12 322 -12 262 -12 c 4,13,14
 197 -12 197 -12 147 -3 c 132,-1,15
 97 6 97 6 65 15 c 5,16,-1
 65 760 l 5,17,-1
 158 776 l 5,18,-1
 158 497 l 5,0,1
158 81 m 5,19,20
 172 77 172 77 197.5 73.5 c 132,-1,21
 223 70 223 70 261 70 c 4,22,23
 336 70 336 70 381 119.5 c 132,-1,24
 426 169 426 169 426 260 c 4,25,26
 426 300 426 300 418 335 c 132,-1,27
 410 370 410 370 392 395.5 c 132,-1,28
 374 421 374 421 345.5 435.5 c 132,-1,29
 317 450 317 450 277 450 c 4,30,31
 239 450 239 450 207 437 c 132,-1,32
 175 424 175 424 158 410 c 5,33,-1
 158 81 l 5,19,20
EndSplineSet
Validated: 1
Substitution2: "'case' Case-Sensitive Forms lookup 21 subtable" B
EndChar

StartChar: c
Encoding: 99 99 70
Width: 568
Flags: W
HStem: -12 82<238.135 489.235> 451 82<249.414 470.342>
VStem: 66 97<147.733 365.722>
LayerCount: 2
Fore
SplineSet
344 -12 m 0,0,1
 273 -10 273 -10 224 6 c 128,-1,2
 175 22 175 22 135.5 62 c 128,-1,3
 96 102 96 102 81 150.5 c 128,-1,4
 66 199 66 199 66 259 c 256,5,6
 66 315.413 66 315.413 83.5 369 c 0,7,8
 100.184 420.089 100.184 420.089 135 458 c 0,9,10
 176.117 500.732 176.117 500.732 230 517 c 0,11,12
 282.993 533 282.993 533 355 533 c 0,13,14
 390 533 390 533 425 527 c 128,-1,15
 460 521 460 521 492 508 c 1,16,-1
 471 429 l 1,17,18
 450 439 450 439 422.5 445 c 128,-1,19
 395 451 395 451 364 451 c 0,20,21
 265.857 451 265.857 451 219 410 c 0,22,23
 163 361 163 361 163 259 c 0,24,25
 163 217 163 217 172.5 182 c 0,26,27
 182.923 143.598 182.923 143.598 202.462 118.799 c 0,28,29
 223.962 91.5094 223.962 91.5094 274 79 c 0,30,31
 310 70 310 70 373 70 c 0,32,33
 405 70 405 70 437.5 77 c 128,-1,34
 470 84 470 84 487 92 c 1,35,-1
 500 14 l 1,36,37
 492 9 492 9 477 4.5 c 128,-1,38
 462 0 462 0 443 -3.5 c 128,-1,39
 424 -7 424 -7 394 -9.5 c 128,-1,40
 364 -12 364 -12 344 -12 c 0,0,1
EndSplineSet
Validated: 19457
Substitution2: "'case' Case-Sensitive Forms lookup 21 subtable" C
EndChar

StartChar: d
Encoding: 100 100 71
Width: 568
Flags: W
HStem: -12 82<218.321 406.721> 450 82<207.3 377.711> 756 20G<407 500>
VStem: 42 97<154.479 374.848> 407 93<76.1953 424.172 497 760>
LayerCount: 2
Fore
SplineSet
407 410 m 1,0,1
 390 424 390 424 358 437 c 128,-1,2
 326 450 326 450 288 450 c 0,3,4
 248 450 248 450 219.5 435.5 c 128,-1,5
 191 421 191 421 173 395.5 c 128,-1,6
 155 370 155 370 147 335 c 128,-1,7
 139 300 139 300 139 260 c 0,8,9
 139 169 139 169 184 119.5 c 128,-1,10
 229 70 229 70 304 70 c 0,11,12
 342 70 342 70 367.5 73.5 c 128,-1,13
 393 77 393 77 407 81 c 1,14,-1
 407 410 l 1,0,1
407 760 m 1,15,-1
 500 776 l 1,16,-1
 500 15 l 1,17,18
 468 6 468 6 418 -3 c 128,-1,19
 368 -12 368 -12 303 -12 c 0,20,21
 243 -12 243 -12 195 7 c 128,-1,22
 147 26 147 26 113 61 c 128,-1,23
 79 96 79 96 60.5 146.5 c 128,-1,24
 42 197 42 197 42 260 c 0,25,26
 42 320 42 320 57.5 370 c 128,-1,27
 73 420 73 420 103 456 c 128,-1,28
 133 492 133 492 176.5 512 c 128,-1,29
 220 532 220 532 276 532 c 0,30,31
 321 532 321 532 355.5 520 c 128,-1,32
 390 508 390 508 407 497 c 1,33,-1
 407 760 l 1,15,-1
EndSplineSet
Validated: 1
Substitution2: "'case' Case-Sensitive Forms lookup 21 subtable" D
EndChar

StartChar: e
Encoding: 101 101 72
Width: 568
Flags: W
HStem: -11 82<222.315 468.701> 235 75<136.5 435> 455 79<206.674 381.606>
VStem: 37.5 97<155.161 235 310 379.49> 435 90<311 399.924>
LayerCount: 2
Fore
SplineSet
37.5 259 m 0,0,1
 37.5 328 37.5 328 57.5 379.5 c 128,-1,2
 77.5 431 77.5 431 110.5 465 c 0,3,4
 140.141 495.539 140.141 495.539 195.5 516.5 c 0,5,6
 245 535 245 535 308 534 c 0,7,8
 416.726 529.642 416.726 529.642 469 468.5 c 0,9,10
 525 403 525 403 525 269 c 0,11,12
 525 263 525 263 525 253.5 c 128,-1,13
 525 244 525 244 524 236 c 1,14,-1
 134.5 235 l 1,15,16
 140.506 153.913 140.506 153.913 190.5 112.5 c 128,-1,17
 240.599 71 240.599 71 343 71 c 0,18,19
 392 71 392 71 425.5 79.5 c 128,-1,20
 459 88 459 88 476 96 c 1,21,-1
 489 18 l 1,22,23
 472 9 472 9 429.5 -1 c 128,-1,24
 387 -11 387 -11 333 -11 c 0,25,26
 249.501 -11 249.501 -11 191 9 c 128,-1,27
 132.5 29 132.5 29 100.5 65 c 128,-1,28
 68.5 101 68.5 101 53 150.5 c 128,-1,29
 37.5 200 37.5 200 37.5 259 c 0,0,1
435 311 m 1,30,31
 436 374.037 436 374.037 403.5 414.5 c 128,-1,32
 371 455 371 455 307 455 c 0,33,34
 259.501 455 259.501 455 226 442 c 128,-1,35
 192.5 429 192.5 429 175.5 409 c 128,-1,36
 158.5 389 158.5 389 149 363 c 128,-1,37
 139.5 337 139.5 337 136.5 310 c 1,38,-1
 435 311 l 1,30,31
EndSplineSet
Validated: 3105
Substitution2: "'case' Case-Sensitive Forms lookup 21 subtable" E
EndChar

StartChar: f
Encoding: 102 102 73
Width: 430
Flags: W
HStem: 0 21G<117.167 210> 442 78<18 116.028 209 396>
VStem: 116.079 92.9209<0 440 522 660.178>
LayerCount: 2
Fore
SplineSet
330 786 m 0,0,1
 380 786 380 786 410 778 c 128,-1,2
 440 770 440 770 455 759 c 1,3,-1
 438 679 l 1,4,5
 436 682 436 682 402 692 c 0,6,7
 317 715 317 715 262 688 c 0,8,9
 209 662 209 662 209 565 c 2,10,-1
 209 520 l 1,11,-1
 396 520 l 1,12,-1
 396 442 l 1,13,-1
 209 442 l 1,14,15
 209 221 209 221 210 0 c 1,16,-1
 118 0 l 1,17,18
 116 6 116 6 116 127 c 0,19,-1
 116 440 l 1,20,-1
 18 440 l 1,21,-1
 18 522 l 1,22,-1
 116 522 l 1,23,-1
 116 567 l 2,24,25
 116 709 116 709 206 756 c 0,26,27
 264 786 264 786 330 786 c 0,0,1
EndSplineSet
Validated: 3105
Substitution2: "'case' Case-Sensitive Forms lookup 21 subtable" F
EndChar

StartChar: g
Encoding: 103 103 74
Width: 582
Flags: W
HStem: -188 80<116.801 355.12> -161 81<97.5309 175.125> 19 80<214.924 385.784> 449 82<222.055 406.339>
VStem: 53 97<169.588 371.368> 407 93<-57.998 52 120.875 442.92>
LayerCount: 2
Fore
SplineSet
408 52 m 1,0,1
 396 44 396 44 361.5 31.5 c 128,-1,2
 327 19 327 19 281 19 c 0,3,4
 234 19 234 19 192.5 34 c 128,-1,5
 151 49 151 49 120 80.5 c 128,-1,6
 89 112 89 112 71 159 c 128,-1,7
 53 206 53 206 53 271 c 0,8,9
 53 328 53 328 70 375.5 c 128,-1,10
 87 423 87 423 119.5 457.5 c 128,-1,11
 152 492 152 492 199 511.5 c 128,-1,12
 246 531 246 531 305 531 c 0,13,14
 370 531 370 531 418.5 521.5 c 128,-1,15
 467 512 467 512 500 504 c 1,16,-1
 500 40 l 2,17,18
 500 -80 500 -80 438 -134 c 128,-1,19
 376 -188 376 -188 250 -188 c 0,20,21
 201 -188 201 -188 157.5 -180 c 128,-1,22
 114 -172 114 -172 82 -161 c 1,23,-1
 99 -80 l 1,24,25
 127 -91 127 -91 167.5 -99.5 c 128,-1,26
 208 -108 208 -108 252 -108 c 0,27,28
 335 -108 335 -108 371.5 -75 c 128,-1,29
 408 -42 408 -42 408 30 c 2,30,-1
 408 52 l 1,0,1
407 438 m 1,31,32
 393 442 393 442 369.5 445.5 c 128,-1,33
 346 449 346 449 306 449 c 0,34,35
 231 449 231 449 190.5 400 c 128,-1,36
 150 351 150 351 150 270 c 0,37,38
 150 225 150 225 161.5 193 c 128,-1,39
 173 161 173 161 192.5 140 c 128,-1,40
 212 119 212 119 237.5 109 c 128,-1,41
 263 99 263 99 290 99 c 0,42,43
 327 99 327 99 358 109.5 c 128,-1,44
 389 120 389 120 407 134 c 1,45,-1
 407 438 l 1,31,32
EndSplineSet
Validated: 1
Substitution2: "'case' Case-Sensitive Forms lookup 21 subtable" G
EndChar

StartChar: h
Encoding: 104 104 75
Width: 575
Flags: W
HStem: 0 21G<82 175 409 502> 449 82<175.813 362.833> 756 20G<82 175>
VStem: 82 93<0 438.289 510 760> 409 93<0 398.475>
LayerCount: 2
Fore
SplineSet
82 0 m 1,0,-1
 82 760 l 1,1,-1
 175 776 l 1,2,-1
 175 510 l 1,3,4
 201 520 201 520 230.5 525.5 c 128,-1,5
 260 531 260 531 289 531 c 0,6,7
 351 531 351 531 392 513.5 c 128,-1,8
 433 496 433 496 457.5 464.5 c 128,-1,9
 482 433 482 433 492 389 c 128,-1,10
 502 345 502 345 502 292 c 2,11,-1
 502 0 l 1,12,-1
 409 0 l 1,13,-1
 409 272 l 2,14,15
 409 320 409 320 402.5 354 c 128,-1,16
 396 388 396 388 381 409 c 128,-1,17
 366 430 366 430 341 439.5 c 128,-1,18
 316 449 316 449 279 449 c 0,19,20
 264 449 264 449 248 447 c 128,-1,21
 232 445 232 445 217.5 442.5 c 128,-1,22
 203 440 203 440 191.5 437 c 128,-1,23
 180 434 180 434 175 432 c 1,24,-1
 175 0 l 1,25,-1
 82 0 l 1,0,-1
EndSplineSet
Validated: 1
Substitution2: "'case' Case-Sensitive Forms lookup 21 subtable" H
EndChar

StartChar: i
Encoding: 105 105 76
Width: 257
Flags: W
HStem: 0 21G<82 175> 500 20G<82 175> 614 122<86.0487 169.951>
VStem: 68 120<631.018 718.982> 82 93<0 520>
LayerCount: 2
Fore
SplineSet
175 0 m 1,0,-1
 82 0 l 1,1,-1
 82 520 l 1,2,-1
 175 520 l 1,3,-1
 175 0 l 1,0,-1
128 614 m 256,4,5
 103 614 103 614 85.5 630.5 c 128,-1,6
 68 647 68 647 68 675 c 256,7,8
 68 703 68 703 85.5 719.5 c 128,-1,9
 103 736 103 736 128 736 c 256,10,11
 153 736 153 736 170.5 719.5 c 128,-1,12
 188 703 188 703 188 675 c 256,13,14
 188 647 188 647 170.5 630.5 c 128,-1,15
 153 614 153 614 128 614 c 256,4,5
EndSplineSet
Validated: 1
Substitution2: "'case' Case-Sensitive Forms lookup 21 subtable" I
Substitution2: "'locl' Localized Forms in Latin lookup 4 subtable" i.locl
Substitution2: "'locl' Localized Forms in Latin lookup 1 subtable" i.locl
Substitution2: "'locl' Localized Forms in Latin lookup 0 subtable" i.locl
EndChar

StartChar: j
Encoding: 106 106 77
Width: 257
Flags: W
HStem: -187 80<-53.6868 54.1715> 500 20G<82 175> 614 122<86.0487 169.951>
VStem: 68 120<631.018 718.982> 82 93<-79.3149 520>
LayerCount: 2
Fore
SplineSet
-3 -187 m 0,0,1
 -15 -187 -15 -187 -34 -184 c 128,-1,2
 -53 -181 -53 -181 -66 -176 c 1,3,-1
 -54 -100 l 1,4,5
 -44 -103 -44 -103 -31 -105 c 128,-1,6
 -18 -107 -18 -107 -7 -107 c 0,7,8
 41 -107 41 -107 61.5 -77.5 c 128,-1,9
 82 -48 82 -48 82 9 c 2,10,-1
 82 520 l 1,11,-1
 175 520 l 1,12,-1
 175 10 l 2,13,14
 175 -90 175 -90 129.5 -138.5 c 128,-1,15
 84 -187 84 -187 -3 -187 c 0,0,1
128 614 m 256,16,17
 103 614 103 614 85.5 630.5 c 128,-1,18
 68 647 68 647 68 675 c 256,19,20
 68 703 68 703 85.5 719.5 c 128,-1,21
 103 736 103 736 128 736 c 256,22,23
 153 736 153 736 170.5 719.5 c 128,-1,24
 188 703 188 703 188 675 c 256,25,26
 188 647 188 647 170.5 630.5 c 128,-1,27
 153 614 153 614 128 614 c 256,16,17
EndSplineSet
Validated: 1
Substitution2: "'case' Case-Sensitive Forms lookup 21 subtable" J
EndChar

StartChar: k
Encoding: 107 107 78
Width: 526
Flags: W
HStem: 0 21G<82 175 390.5 510> 500 20G<372 490> 756 20G<82 175>
VStem: 82 93<0 250 302 760>
LayerCount: 2
Fore
SplineSet
270 286 m 1,0,1
 300 263 300 263 333.5 229 c 128,-1,2
 367 195 367 195 399.5 155.5 c 128,-1,3
 432 116 432 116 461 75.5 c 128,-1,4
 490 35 490 35 510 0 c 1,5,-1
 401 0 l 1,6,7
 380 35 380 35 352.5 71.5 c 128,-1,8
 325 108 325 108 295 141.5 c 128,-1,9
 265 175 265 175 234 203 c 128,-1,10
 203 231 203 231 175 250 c 1,11,-1
 175 0 l 1,12,-1
 82 0 l 1,13,-1
 82 760 l 1,14,-1
 175 776 l 1,15,-1
 175 302 l 1,16,17
 199 326 199 326 228 355 c 128,-1,18
 257 384 257 384 285 414 c 128,-1,19
 313 444 313 444 338 471.5 c 128,-1,20
 363 499 363 499 381 520 c 1,21,-1
 490 520 l 1,22,23
 467 495 467 495 440 465 c 128,-1,24
 413 435 413 435 384 404.5 c 128,-1,25
 355 374 355 374 325.5 343.5 c 128,-1,26
 296 313 296 313 270 286 c 1,0,1
EndSplineSet
Validated: 1
Substitution2: "'case' Case-Sensitive Forms lookup 21 subtable" K
EndChar

StartChar: l
Encoding: 108 108 79
Width: 277
Flags: W
HStem: -10 78<189.167 238> 756 20G<80 173>
VStem: 80 93<85.9844 760>
LayerCount: 2
Fore
SplineSet
238 -10 m 1,0,1
 152 -8 152 -8 116 27 c 128,-1,2
 80 62 80 62 80 136 c 2,3,-1
 80 760 l 1,4,-1
 173 776 l 1,5,-1
 173 151 l 2,6,7
 173 128 173 128 177 113 c 128,-1,8
 181 98 181 98 190 89 c 128,-1,9
 199 80 199 80 214 75.5 c 128,-1,10
 229 71 229 71 251 68 c 1,11,-1
 238 -10 l 1,0,1
EndSplineSet
Validated: 1
Substitution2: "'case' Case-Sensitive Forms lookup 21 subtable" L
EndChar

StartChar: m
Encoding: 109 109 80
Width: 865
Flags: W
HStem: 0 21G<82 175 389 482 696 789> 449 82<176.489 349.188 487.341 657.306>
VStem: 82 93<0 442.91> 389 93<0 404.614> 696 93<0 406.676>
CounterMasks: 1 38
LayerCount: 2
Fore
SplineSet
82 505 m 1,0,1
 114 513 114 513 166.5 522 c 128,-1,2
 219 531 219 531 288 531 c 0,3,4
 338 531 338 531 372 517.5 c 128,-1,5
 406 504 406 504 429 478 c 1,6,7
 436 483 436 483 451 492 c 128,-1,8
 466 501 466 501 488 509.5 c 128,-1,9
 510 518 510 518 537 524.5 c 128,-1,10
 564 531 564 531 595 531 c 0,11,12
 655 531 655 531 693 513.5 c 128,-1,13
 731 496 731 496 752.5 464 c 128,-1,14
 774 432 774 432 781.5 388 c 128,-1,15
 789 344 789 344 789 292 c 2,16,-1
 789 0 l 1,17,-1
 696 0 l 1,18,-1
 696 272 l 2,19,20
 696 318 696 318 691.5 351 c 128,-1,21
 687 384 687 384 674.5 406 c 128,-1,22
 662 428 662 428 640.5 438.5 c 128,-1,23
 619 449 619 449 585 449 c 0,24,25
 538 449 538 449 507.5 436.5 c 128,-1,26
 477 424 477 424 466 414 c 1,27,28
 474 388 474 388 478 357 c 128,-1,29
 482 326 482 326 482 292 c 2,30,-1
 482 0 l 1,31,-1
 389 0 l 1,32,-1
 389 272 l 2,33,34
 389 318 389 318 384 351 c 128,-1,35
 379 384 379 384 366.5 406 c 128,-1,36
 354 428 354 428 332.5 438.5 c 128,-1,37
 311 449 311 449 278 449 c 0,38,39
 264 449 264 449 248 448 c 128,-1,40
 232 447 232 447 217.5 445.5 c 128,-1,41
 203 444 203 444 191 442 c 128,-1,42
 179 440 179 440 175 439 c 1,43,-1
 175 0 l 1,44,-1
 82 0 l 1,45,-1
 82 505 l 1,0,1
EndSplineSet
Validated: 1
Substitution2: "'case' Case-Sensitive Forms lookup 21 subtable" M
EndChar

StartChar: n
Encoding: 110 110 81
Width: 578
Flags: W
HStem: 0 21G<82 175 409 502> 449 82<175.379 362.833>
VStem: 82 93<0 442.851> 409 93<0 398.475>
LayerCount: 2
Fore
SplineSet
82 505 m 1,0,1
 114 513 114 513 167 522 c 128,-1,2
 220 531 220 531 289 531 c 0,3,4
 351 531 351 531 392 513.5 c 128,-1,5
 433 496 433 496 457.5 464.5 c 128,-1,6
 482 433 482 433 492 389 c 128,-1,7
 502 345 502 345 502 292 c 2,8,-1
 502 0 l 1,9,-1
 409 0 l 1,10,-1
 409 272 l 2,11,12
 409 320 409 320 402.5 354 c 128,-1,13
 396 388 396 388 381 409 c 128,-1,14
 366 430 366 430 341 439.5 c 128,-1,15
 316 449 316 449 279 449 c 0,16,17
 264 449 264 449 248 448 c 128,-1,18
 232 447 232 447 217.5 445.5 c 128,-1,19
 203 444 203 444 191.5 442 c 128,-1,20
 180 440 180 440 175 439 c 1,21,-1
 175 0 l 1,22,-1
 82 0 l 1,23,-1
 82 505 l 1,0,1
EndSplineSet
Validated: 1
Substitution2: "'case' Case-Sensitive Forms lookup 21 subtable" N
EndChar

StartChar: o
Encoding: 111 111 82
Width: 594
Flags: W
HStem: -13 82<221.052 372.948> 451 82<221.052 372.948>
VStem: 53 97<150 369.742> 444 97<150 369.742>
LayerCount: 2
Fore
SplineSet
541 260 m 0,0,1
 541 198 541 198 523 148 c 128,-1,2
 505 98 505 98 472.5 62 c 128,-1,3
 440 26 440 26 395 6.5 c 128,-1,4
 350 -13 350 -13 297 -13 c 256,5,6
 244 -13 244 -13 199 6.5 c 128,-1,7
 154 26 154 26 121.5 62 c 128,-1,8
 89 98 89 98 71 148 c 128,-1,9
 53 198 53 198 53 260 c 0,10,11
 53 321 53 321 71 371.5 c 128,-1,12
 89 422 89 422 121.5 458 c 128,-1,13
 154 494 154 494 199 513.5 c 128,-1,14
 244 533 244 533 297 533 c 256,15,16
 350 533 350 533 395 513.5 c 128,-1,17
 440 494 440 494 472.5 458 c 128,-1,18
 505 422 505 422 523 371.5 c 128,-1,19
 541 321 541 321 541 260 c 0,0,1
444 260 m 256,20,21
 444 348 444 348 404.5 399.5 c 128,-1,22
 365 451 365 451 297 451 c 256,23,24
 229 451 229 451 189.5 399.5 c 128,-1,25
 150 348 150 348 150 260 c 256,26,27
 150 172 150 172 189.5 120.5 c 128,-1,28
 229 69 229 69 297 69 c 256,29,30
 365 69 365 69 404.5 120.5 c 128,-1,31
 444 172 444 172 444 260 c 256,20,21
EndSplineSet
Validated: 1
Substitution2: "'case' Case-Sensitive Forms lookup 21 subtable" O
Substitution2: "'ordn' Ordinals in Latin lookup 11 subtable" ordmasculine
EndChar

StartChar: p
Encoding: 112 112 83
Width: 593
Flags: W
HStem: -185 21G<82 175> -12 82<204.289 374.7> 448 83<175.477 363.679>
VStem: 82 93<-185 23 95.8284 442.715> 443 97<145.117 364.403>
LayerCount: 2
Fore
SplineSet
443 259 m 0,0,1
 443 350 443 350 398 399 c 128,-1,2
 353 448 353 448 278 448 c 0,3,4
 236 448 236 448 212.5 445 c 128,-1,5
 189 442 189 442 175 438 c 1,6,-1
 175 110 l 1,7,8
 192 96 192 96 224 83 c 128,-1,9
 256 70 256 70 294 70 c 0,10,11
 334 70 334 70 362.5 84.5 c 128,-1,12
 391 99 391 99 409 124.5 c 128,-1,13
 427 150 427 150 435 184.5 c 128,-1,14
 443 219 443 219 443 259 c 0,0,1
540 259 m 0,15,16
 540 200 540 200 524.5 150 c 128,-1,17
 509 100 509 100 479 64 c 128,-1,18
 449 28 449 28 405.5 8 c 128,-1,19
 362 -12 362 -12 306 -12 c 0,20,21
 261 -12 261 -12 226.5 0 c 128,-1,22
 192 12 192 12 175 23 c 1,23,-1
 175 -185 l 1,24,-1
 82 -185 l 1,25,-1
 82 504 l 1,26,27
 115 512 115 512 164.5 521.5 c 128,-1,28
 214 531 214 531 279 531 c 0,29,30
 339 531 339 531 387 512 c 128,-1,31
 435 493 435 493 469 458 c 128,-1,32
 503 423 503 423 521.5 372.5 c 128,-1,33
 540 322 540 322 540 259 c 0,15,16
EndSplineSet
Validated: 1
Substitution2: "'case' Case-Sensitive Forms lookup 21 subtable" P
EndChar

StartChar: q
Encoding: 113 113 84
Width: 593
Flags: W
HStem: -185 21G<418 511> -12 82<218.3 388.711> 448 83<229.321 417.523>
VStem: 53 97<145.117 364.403> 418 93<-185 23 95.8284 442.715>
LayerCount: 2
Fore
SplineSet
150 259 m 0,0,1
 150 219 150 219 158 184.5 c 128,-1,2
 166 150 166 150 184 124.5 c 128,-1,3
 202 99 202 99 230.5 84.5 c 128,-1,4
 259 70 259 70 299 70 c 0,5,6
 337 70 337 70 369 83 c 128,-1,7
 401 96 401 96 418 110 c 1,8,-1
 418 438 l 1,9,10
 404 442 404 442 380.5 445 c 128,-1,11
 357 448 357 448 315 448 c 0,12,13
 240 448 240 448 195 399 c 128,-1,14
 150 350 150 350 150 259 c 0,0,1
53 259 m 0,15,16
 53 322 53 322 71.5 372.5 c 128,-1,17
 90 423 90 423 124 458 c 128,-1,18
 158 493 158 493 206 512 c 128,-1,19
 254 531 254 531 314 531 c 0,20,21
 379 531 379 531 428.5 521.5 c 128,-1,22
 478 512 478 512 511 504 c 1,23,-1
 511 -185 l 1,24,-1
 418 -185 l 1,25,-1
 418 23 l 1,26,27
 401 12 401 12 366.5 0 c 128,-1,28
 332 -12 332 -12 287 -12 c 0,29,30
 231 -12 231 -12 187.5 8 c 128,-1,31
 144 28 144 28 114 64 c 128,-1,32
 84 100 84 100 68.5 150 c 128,-1,33
 53 200 53 200 53 259 c 0,15,16
EndSplineSet
Validated: 1
Substitution2: "'case' Case-Sensitive Forms lookup 21 subtable" Q
EndChar

StartChar: r
Encoding: 114 114 85
Width: 390
Flags: W
HStem: 0 21G<82 175> 435 81<175 259.188 261.246 272.097 274.376 363.383> 450 81<176.438 361.653>
VStem: 82 93<0 441.969>
LayerCount: 2
Fore
SplineSet
274 531 m 0,0,1
 286 531 286 531 301.5 529.5 c 128,-1,2
 317 528 317 528 332 525.5 c 128,-1,3
 347 523 347 523 359.5 520.5 c 128,-1,4
 372 518 372 518 378 516 c 1,5,-1
 362 435 l 1,6,7
 351 439 351 439 325.5 444.5 c 128,-1,8
 300 450 300 450 260 450 c 0,9,10
 234 450 234 450 208.5 444.5 c 128,-1,11
 183 439 183 439 175 437 c 1,12,-1
 175 0 l 1,13,-1
 82 0 l 1,14,-1
 82 498 l 1,15,16
 115 510 115 510 164 520.5 c 128,-1,17
 213 531 213 531 274 531 c 0,0,1
EndSplineSet
Validated: 1
Substitution2: "'case' Case-Sensitive Forms lookup 21 subtable" R
EndChar

StartChar: s
Encoding: 115 115 86
Width: 450
Flags: W
HStem: -12 79<81.3081 292.153> 455 78<168.17 357.683>
VStem: 50 93<341.663 434.577> 315 94<86.1334 179.448>
LayerCount: 2
Fore
SplineSet
203 67 m 0,0,1
 260 67 260 67 287.5 82 c 128,-1,2
 315 97 315 97 315 130 c 0,3,4
 315 164 315 164 288 184 c 128,-1,5
 261 204 261 204 199 229 c 0,6,7
 169 241 169 241 141.5 253.5 c 128,-1,8
 114 266 114 266 94 283 c 128,-1,9
 74 300 74 300 62 324 c 128,-1,10
 50 348 50 348 50 383 c 0,11,12
 50 452 50 452 101 492.5 c 128,-1,13
 152 533 152 533 240 533 c 0,14,15
 262 533 262 533 284 530.5 c 128,-1,16
 306 528 306 528 325 524.5 c 128,-1,17
 344 521 344 521 358.5 517 c 128,-1,18
 373 513 373 513 381 510 c 1,19,-1
 364 430 l 1,20,21
 349 438 349 438 317 446.5 c 128,-1,22
 285 455 285 455 240 455 c 0,23,24
 201 455 201 455 172 439.5 c 128,-1,25
 143 424 143 424 143 391 c 0,26,27
 143 374 143 374 149.5 361 c 128,-1,28
 156 348 156 348 169.5 337.5 c 128,-1,29
 183 327 183 327 203 318 c 128,-1,30
 223 309 223 309 251 299 c 0,31,32
 288 285 288 285 317 271.5 c 128,-1,33
 346 258 346 258 366.5 240 c 128,-1,34
 387 222 387 222 398 196.5 c 128,-1,35
 409 171 409 171 409 134 c 0,36,37
 409 62 409 62 355.5 25 c 128,-1,38
 302 -12 302 -12 203 -12 c 0,39,40
 134 -12 134 -12 95 -0.5 c 128,-1,41
 56 11 56 11 42 17 c 1,42,-1
 59 97 l 1,43,44
 75 91 75 91 110 79 c 128,-1,45
 145 67 145 67 203 67 c 0,0,1
EndSplineSet
Validated: 1
Substitution2: "'case' Case-Sensitive Forms lookup 21 subtable" S
EndChar

StartChar: t
Encoding: 116 116 87
Width: 406
Flags: W
HStem: -11 82<197.639 365.228> 442 78<169 366>
VStem: 76 93<101.009 442 520 665>
LayerCount: 2
Fore
SplineSet
169 520 m 1,0,-1
 366 520 l 1,1,-1
 366 442 l 1,2,-1
 169 442 l 1,3,-1
 169 202 l 2,4,5
 169 163 169 163 175 137.5 c 128,-1,6
 181 112 181 112 193 97.5 c 128,-1,7
 205 83 205 83 223 77 c 128,-1,8
 241 71 241 71 265 71 c 0,9,10
 307 71 307 71 332.5 80.5 c 128,-1,11
 358 90 358 90 368 94 c 1,12,-1
 386 17 l 1,13,14
 372 10 372 10 337 -0.5 c 128,-1,15
 302 -11 302 -11 257 -11 c 0,16,17
 204 -11 204 -11 169.5 2.5 c 128,-1,18
 135 16 135 16 114 43 c 128,-1,19
 93 70 93 70 84.5 109.5 c 128,-1,20
 76 149 76 149 76 201 c 2,21,-1
 76 665 l 1,22,-1
 169 681 l 1,23,-1
 169 520 l 1,0,-1
EndSplineSet
Validated: 1
Substitution2: "'case' Case-Sensitive Forms lookup 21 subtable" T
EndChar

StartChar: u
Encoding: 117 117 88
Width: 578
Flags: W
HStem: -11 82<219.433 401.511> 500 20G<76 169 403 496>
VStem: 76 93<126.131 520> 403 93<76.8438 520>
LayerCount: 2
Fore
SplineSet
496 15 m 1,0,1
 464 7 464 7 411.5 -2 c 128,-1,2
 359 -11 359 -11 290 -11 c 0,3,4
 230 -11 230 -11 189 6.5 c 128,-1,5
 148 24 148 24 123 56 c 128,-1,6
 98 88 98 88 87 131.5 c 128,-1,7
 76 175 76 175 76 228 c 2,8,-1
 76 520 l 1,9,-1
 169 520 l 1,10,-1
 169 248 l 2,11,12
 169 153 169 153 199 112 c 128,-1,13
 229 71 229 71 300 71 c 0,14,15
 315 71 315 71 331 72 c 128,-1,16
 347 73 347 73 361 74.5 c 128,-1,17
 375 76 375 76 386.5 77.5 c 128,-1,18
 398 79 398 79 403 81 c 1,19,-1
 403 520 l 1,20,-1
 496 520 l 1,21,-1
 496 15 l 1,0,1
EndSplineSet
Validated: 1
Substitution2: "'case' Case-Sensitive Forms lookup 21 subtable" U
EndChar

StartChar: v
Encoding: 118 118 89
Width: 506
Flags: W
HStem: 0 21G<186.5 319.5> 500 20G<18 124 386 488>
LayerCount: 2
Fore
SplineSet
488 520 m 1,0,1
 449 374 449 374 396.5 240 c 128,-1,2
 344 106 344 106 295 0 c 1,3,-1
 211 0 l 1,4,5
 162 106 162 106 109.5 240 c 128,-1,6
 57 374 57 374 18 520 c 1,7,-1
 118 520 l 1,8,9
 130 471 130 471 146.5 415.5 c 128,-1,10
 163 360 163 360 181.5 305.5 c 128,-1,11
 200 251 200 251 219 200 c 128,-1,12
 238 149 238 149 255 109 c 1,13,14
 272 149 272 149 291 200 c 128,-1,15
 310 251 310 251 328.5 305.5 c 128,-1,16
 347 360 347 360 363.5 415.5 c 128,-1,17
 380 471 380 471 392 520 c 1,18,-1
 488 520 l 1,0,1
EndSplineSet
Validated: 1
Substitution2: "'case' Case-Sensitive Forms lookup 21 subtable" V
EndChar

StartChar: w
Encoding: 119 119 90
Width: 781
Flags: W
HStem: 0 21G<170 288 493 611> 500 20G<20 125 350 436.5 660 761>
VStem: 355 77<429.912 520>
LayerCount: 2
Fore
SplineSet
507 0 m 1,0,1
 479 72 479 72 447.5 164.5 c 128,-1,2
 416 257 416 257 390 357 c 1,3,4
 364 257 364 257 333 164.5 c 128,-1,5
 302 72 302 72 274 0 c 1,6,-1
 193 0 l 1,7,8
 147 103 147 103 103 235 c 128,-1,9
 59 367 59 367 20 520 c 1,10,-1
 120 520 l 1,11,12
 130 473 130 473 144 418 c 128,-1,13
 158 363 158 363 173.5 308 c 128,-1,14
 189 253 189 253 206 202 c 128,-1,15
 223 151 223 151 238 113 c 1,16,17
 255 160 255 160 271.5 212.5 c 128,-1,18
 288 265 288 265 303 318.5 c 128,-1,19
 318 372 318 372 331.5 423.5 c 128,-1,20
 345 475 345 475 355 520 c 1,21,-1
 432 520 l 1,22,23
 441 475 441 475 454 423.5 c 128,-1,24
 467 372 467 372 482 318.5 c 128,-1,25
 497 265 497 265 513.5 212.5 c 128,-1,26
 530 160 530 160 547 113 c 1,27,28
 562 151 562 151 578.5 202 c 128,-1,29
 595 253 595 253 611 308 c 128,-1,30
 627 363 627 363 641 418 c 128,-1,31
 655 473 655 473 665 520 c 1,32,-1
 761 520 l 1,33,34
 722 367 722 367 678 235 c 128,-1,35
 634 103 634 103 588 0 c 1,36,-1
 507 0 l 1,0,1
EndSplineSet
Validated: 1
Substitution2: "'case' Case-Sensitive Forms lookup 21 subtable" W
EndChar

StartChar: x
Encoding: 120 120 91
Width: 568
Flags: W
HStem: 0 21G<36 137.5 405.5 513> 500 20G<44 162.626 384.264 497>
LayerCount: 2
Fore
SplineSet
411 0 m 1,0,1
 400 22 400 22 384 49 c 128,-1,2
 368 76 368 76 349 104.5 c 128,-1,3
 330 133 330 133 310 161 c 128,-1,4
 290 189 290 189 271 214 c 1,5,6
 252 189 252 189 232 160.5 c 128,-1,7
 212 132 212 132 193.5 103.5 c 128,-1,8
 175 75 175 75 159 48 c 128,-1,9
 143 21 143 21 132 0 c 1,10,-1
 36 0 l 1,11,12
 71 68 71 68 119.5 138.5 c 128,-1,13
 168 209 168 209 216 273 c 1,14,-1
 44 520 l 1,15,-1
 149 520 l 1,16,-1
 273 338 l 1,17,-1
 398 520 l 1,18,-1
 497 520 l 1,19,-1
 329 279 l 1,20,21
 377 214 377 214 427.5 141.5 c 128,-1,22
 478 69 478 69 513 0 c 1,23,-1
 411 0 l 1,0,1
EndSplineSet
Validated: 1
Substitution2: "'case' Case-Sensitive Forms lookup 21 subtable" X
EndChar

StartChar: y
Encoding: 121 121 92
Width: 501
Flags: W
HStem: -188 77<21.3453 166.031> 500 20G<18 123.5 372.5 481>
LayerCount: 2
Fore
SplineSet
21 -97 m 1,0,1
 32 -102 32 -102 49.5 -106.5 c 128,-1,2
 67 -111 67 -111 84 -111 c 0,3,4
 139 -111 139 -111 170 -86.5 c 128,-1,5
 201 -62 201 -62 226 -7 c 1,6,7
 163 113 163 113 108.5 247.5 c 128,-1,8
 54 382 54 382 18 520 c 1,9,-1
 118 520 l 1,10,11
 129 475 129 475 144.5 423 c 128,-1,12
 160 371 160 371 179 316 c 128,-1,13
 198 261 198 261 220 206 c 128,-1,14
 242 151 242 151 266 100 c 1,15,16
 304 205 304 205 332 308 c 128,-1,17
 360 411 360 411 385 520 c 1,18,-1
 481 520 l 1,19,20
 445 373 445 373 401 237.5 c 128,-1,21
 357 102 357 102 306 -16 c 0,22,23
 286 -61 286 -61 264.5 -93.5 c 128,-1,24
 243 -126 243 -126 217 -147 c 128,-1,25
 191 -168 191 -168 158.5 -178 c 128,-1,26
 126 -188 126 -188 85 -188 c 0,27,28
 74 -188 74 -188 62 -186.5 c 128,-1,29
 50 -185 50 -185 38.5 -182.5 c 128,-1,30
 27 -180 27 -180 17.5 -177 c 128,-1,31
 8 -174 8 -174 4 -172 c 1,32,-1
 21 -97 l 1,0,1
EndSplineSet
Validated: 1
Substitution2: "'case' Case-Sensitive Forms lookup 21 subtable" Y
EndChar

StartChar: z
Encoding: 122 122 93
Width: 475
Flags: W
HStem: 0 78<149 435> 442 78<52 309>
LayerCount: 2
Fore
SplineSet
427 450 m 1,0,1
 406 427 406 427 371.5 385 c 128,-1,2
 337 343 337 343 297.5 292 c 128,-1,3
 258 241 258 241 218.5 185 c 128,-1,4
 179 129 179 129 149 78 c 1,5,-1
 435 78 l 1,6,-1
 435 0 l 1,7,-1
 38 0 l 1,8,-1
 38 62 l 1,9,10
 62 106 62 106 97 159 c 128,-1,11
 132 212 132 212 170.5 264.5 c 128,-1,12
 209 317 209 317 245.5 363.5 c 128,-1,13
 282 410 282 410 309 442 c 1,14,-1
 52 442 l 1,15,-1
 52 520 l 1,16,-1
 427 520 l 1,17,-1
 427 450 l 1,0,1
EndSplineSet
Validated: 1
Substitution2: "'case' Case-Sensitive Forms lookup 21 subtable" Z
EndChar

StartChar: braceleft
Encoding: 123 123 94
Width: 568
Flags: W
HStem: -185 73<348.606 448> 263 72<86 188.344> 710 73<348.606 448>
VStem: 222 87<-77.0024 231.018 366.982 675.002>
CounterMasks: 1 e0
LayerCount: 2
Fore
SplineSet
86 335 m 1,0,1
 110 335 110 335 149 343.5 c 128,-1,2
 188 352 188 352 199.5 365.5 c 128,-1,3
 211 379 211 379 216.5 396.5 c 128,-1,4
 222 414 222 414 222 432 c 2,5,-1
 222 612 l 2,6,7
 222 653 222 653 231 685 c 128,-1,8
 240 717 240 717 262 738.5 c 128,-1,9
 284 760 284 760 337 771.5 c 128,-1,10
 390 783 390 783 444 783 c 2,11,-1
 448 783 l 1,12,-1
 448 710 l 1,13,14
 391 710 391 710 350 689.5 c 128,-1,15
 309 669 309 669 309 611 c 2,16,-1
 309 457 l 2,17,18
 309 391 309 391 291.5 355 c 128,-1,19
 274 319 274 319 242 299 c 1,20,21
 274 279 274 279 291.5 243 c 128,-1,22
 309 207 309 207 309 141 c 2,23,-1
 309 -13 l 2,24,25
 309 -71 309 -71 350 -91.5 c 128,-1,26
 391 -112 391 -112 448 -112 c 1,27,-1
 448 -185 l 1,28,-1
 444 -185 l 2,29,30
 390 -185 390 -185 337 -174 c 128,-1,31
 284 -163 284 -163 262 -141 c 128,-1,32
 240 -119 240 -119 231 -87 c 128,-1,33
 222 -55 222 -55 222 -14 c 2,34,-1
 222 166 l 2,35,36
 222 184 222 184 216.5 201.5 c 128,-1,37
 211 219 211 219 199.5 232.5 c 128,-1,38
 188 246 188 246 149 254.5 c 128,-1,39
 110 263 110 263 86 263 c 1,40,-1
 86 335 l 1,0,1
EndSplineSet
Validated: 1
Position2: "'case' Case-Sensitive Forms lookup 0 per glyph data 0" dx=0 dy=60 dh=0 dv=0
EndChar

StartChar: bar
Encoding: 124 124 95
Width: 567
Flags: W
HStem: -185 21G<243 330>
VStem: 243 87<-185 783>
LayerCount: 2
Fore
SplineSet
243 783 m 5,0,-1
 330 783 l 5,1,-1
 330 -185 l 5,2,-1
 243 -185 l 5,3,-1
 243 783 l 5,0,-1
EndSplineSet
Validated: 1
EndChar

StartChar: braceright
Encoding: 125 125 96
Width: 568
Flags: W
HStem: -185 73<96 199.312> 263 72<361.185 464> 710 73<96 199.312>
VStem: 240.5 87<-75.7341 231.018 366.982 673.734>
CounterMasks: 1 e0
LayerCount: 2
Fore
SplineSet
464 263 m 1,0,1
 440 263 440 263 400.75 254.5 c 128,-1,2
 361.5 246 361.5 246 350 232.5 c 128,-1,3
 338.5 219 338.5 219 333 201.5 c 128,-1,4
 327.5 184 327.5 184 327.5 166 c 2,5,-1
 327.5 -14 l 2,6,7
 327.5 -55 327.5 -55 318.5 -87 c 128,-1,8
 309.5 -119 309.5 -119 287.5 -141 c 128,-1,9
 265.5 -163 265.5 -163 209.75 -174 c 128,-1,10
 154 -185 154 -185 100 -185 c 2,11,-1
 96 -185 l 1,12,-1
 96 -112 l 1,13,14
 153 -112 153 -112 196.75 -91.5 c 128,-1,15
 240.5 -71 240.5 -71 240.5 -13 c 2,16,-1
 240.5 141 l 2,17,18
 240.5 207 240.5 207 258 243 c 128,-1,19
 275.5 279 275.5 279 307.5 299 c 1,20,21
 275.5 319 275.5 319 258 355 c 128,-1,22
 240.5 391 240.5 391 240.5 457 c 2,23,-1
 240.5 611 l 2,24,25
 240.5 669 240.5 669 196.75 689.5 c 128,-1,26
 153 710 153 710 96 710 c 1,27,-1
 96 783 l 1,28,-1
 100 783 l 2,29,30
 154 783 154 783 209.75 771.5 c 128,-1,31
 265.5 760 265.5 760 287.5 738.5 c 128,-1,32
 309.5 717 309.5 717 318.5 685 c 128,-1,33
 327.5 653 327.5 653 327.5 612 c 2,34,-1
 327.5 432 l 2,35,36
 327.5 414 327.5 414 333 396.5 c 128,-1,37
 338.5 379 338.5 379 350 365.5 c 128,-1,38
 361.5 352 361.5 352 400.75 343.5 c 128,-1,39
 440 335 440 335 464 335 c 1,40,-1
 464 263 l 1,0,1
EndSplineSet
Validated: 1
Position2: "'case' Case-Sensitive Forms lookup 0 per glyph data 0" dx=0 dy=60 dh=0 dv=0
EndChar

StartChar: asciitilde
Encoding: 126 126 97
Width: 568
Flags: W
HStem: 212 80<326.38 432.533> 297 80<133.467 239.62>
VStem: 44 64<235.031 270.044> 458 64<319.03 353.969>
LayerCount: 2
Fore
SplineSet
522 352 m 1,0,1
 518 332 518 332 509.5 308 c 128,-1,2
 501 284 501 284 485 262.5 c 128,-1,3
 469 241 469 241 444.5 226.5 c 128,-1,4
 420 212 420 212 385 212 c 0,5,6
 355 212 355 212 329.5 224 c 128,-1,7
 304 236 304 236 281 250 c 0,8,9
 254 266 254 266 229 281.5 c 128,-1,10
 204 297 204 297 176 297 c 0,11,12
 160 297 160 297 149 289.5 c 128,-1,13
 138 282 138 282 130 270.5 c 128,-1,14
 122 259 122 259 117 245.5 c 128,-1,15
 112 232 112 232 108 219 c 1,16,-1
 44 237 l 1,17,18
 48 256 48 256 57 280.5 c 128,-1,19
 66 305 66 305 81.5 326.5 c 128,-1,20
 97 348 97 348 121.5 362.5 c 128,-1,21
 146 377 146 377 181 377 c 0,22,23
 211 377 211 377 236.5 365 c 128,-1,24
 262 353 262 353 285 339 c 0,25,26
 312 323 312 323 337 307.5 c 128,-1,27
 362 292 362 292 390 292 c 0,28,29
 406 292 406 292 417 299.5 c 128,-1,30
 428 307 428 307 436 318.5 c 128,-1,31
 444 330 444 330 449 343.5 c 128,-1,32
 454 357 454 357 458 370 c 1,33,-1
 522 352 l 1,0,1
EndSplineSet
Validated: 1
EndChar

StartChar: Euro
Encoding: 8364 8364 98
Width: 568
Flags: W
HStem: -13 81<314.865 520.776> 227 72<47 129 233 420> 400 72<47 129 235 454> 626 80<315.74 514.249>
VStem: 128 96<299 400>
LayerCount: 2
Fore
SplineSet
139 472 m 1,0,1
 162 589 162 589 230 647.5 c 128,-1,2
 298 706 298 706 404 706 c 0,3,4
 448 706 448 706 477 700.5 c 128,-1,5
 506 695 506 695 535 686 c 1,6,-1
 515 606 l 1,7,8
 491 615 491 615 462.5 620.5 c 128,-1,9
 434 626 434 626 404 626 c 0,10,11
 366 626 366 626 337.5 615 c 128,-1,12
 309 604 309 604 288.5 584 c 128,-1,13
 268 564 268 564 255 535.5 c 128,-1,14
 242 507 242 507 235 472 c 1,15,-1
 468 472 l 1,16,-1
 454 400 l 1,17,-1
 225 400 l 1,18,19
 224 387 224 387 224 374 c 128,-1,20
 224 361 224 361 224 347 c 0,21,22
 224 334 224 334 224 322 c 128,-1,23
 224 310 224 310 225 299 c 1,24,-1
 434 299 l 1,25,-1
 420 227 l 1,26,-1
 233 227 l 1,27,28
 250 138 250 138 294.5 103 c 128,-1,29
 339 68 339 68 406 68 c 0,30,31
 448 68 448 68 478.5 76 c 128,-1,32
 509 84 509 84 533 95 c 1,33,-1
 553 16 l 1,34,35
 536 7 536 7 494 -3 c 128,-1,36
 452 -13 452 -13 401 -13 c 0,37,38
 284 -13 284 -13 220 50.5 c 128,-1,39
 156 114 156 114 137 227 c 1,40,-1
 47 227 l 1,41,-1
 47 299 l 1,42,-1
 129 299 l 1,43,44
 128 310 128 310 128 322 c 128,-1,45
 128 334 128 334 128 347 c 0,46,47
 128 361 128 361 128 374 c 128,-1,48
 128 387 128 387 129 400 c 1,49,-1
 47 400 l 1,50,-1
 47 472 l 1,51,-1
 139 472 l 1,0,1
EndSplineSet
Validated: 1
EndChar

StartChar: quotesinglbase
Encoding: 8218 8218 99
Width: 239
Flags: W
HStem: -126 240
VStem: 77 100<-24.6211 114>
LayerCount: 2
Fore
SplineSet
177 114 m 1,0,1
 177 103 177 103 177 92.5 c 128,-1,2
 177 82 177 82 176 72 c 0,3,4
 172 20 172 20 153 -31 c 128,-1,5
 134 -82 134 -82 107 -126 c 1,6,-1
 35 -103 l 1,7,8
 56 -59 56 -59 66.5 -14 c 128,-1,9
 77 31 77 31 77 70 c 0,10,11
 77 80 77 80 76.5 91.5 c 128,-1,12
 76 103 76 103 75 114 c 1,13,-1
 177 114 l 1,0,1
EndSplineSet
Validated: 1
EndChar

StartChar: florin
Encoding: 402 402 100
Width: 568
Flags: W
HStem: -185 80<-63.7163 81.5596> -171 79<-65.6835 9.1582 10.9663 17.7845 20.4658 94.7637> 342 78<284 463> 626 80<344.884 513.432>
LayerCount: 2
Fore
SplineSet
222 26 m 2,0,1
 214 -24 214 -24 199 -63.5 c 128,-1,2
 184 -103 184 -103 160 -130 c 128,-1,3
 136 -157 136 -157 101 -171 c 128,-1,4
 66 -185 66 -185 19 -185 c 0,5,6
 -20 -185 -20 -185 -45.5 -180.5 c 128,-1,7
 -71 -176 -71 -176 -83 -171 c 1,8,-1
 -64 -92 l 1,9,10
 -55 -96 -55 -96 -36 -100.5 c 128,-1,11
 -17 -105 -17 -105 10 -105 c 0,12,13
 41 -105 41 -105 62 -95.5 c 128,-1,14
 83 -86 83 -86 96 -68.5 c 128,-1,15
 109 -51 109 -51 116.5 -26.5 c 128,-1,16
 124 -2 124 -2 129 28 c 2,17,-1
 203 495 l 2,18,19
 211 545 211 545 226.5 584.5 c 128,-1,20
 242 624 242 624 267.5 651 c 128,-1,21
 293 678 293 678 329.5 692 c 128,-1,22
 366 706 366 706 416 706 c 0,23,24
 457 706 457 706 486.5 699 c 128,-1,25
 516 692 516 692 528 687 c 1,26,-1
 509 607 l 1,27,28
 497 613 497 613 475 619.5 c 128,-1,29
 453 626 453 626 421 626 c 0,30,31
 388 626 388 626 366 616.5 c 128,-1,32
 344 607 344 607 330 589.5 c 128,-1,33
 316 572 316 572 308.5 547.5 c 128,-1,34
 301 523 301 523 296 493 c 2,35,-1
 284 420 l 1,36,-1
 463 420 l 1,37,-1
 463 342 l 1,38,-1
 272 342 l 1,39,-1
 222 26 l 2,0,1
EndSplineSet
Validated: 1
EndChar

StartChar: dagger
Encoding: 8224 8224 103
Width: 480
Flags: W
HStem: 399 77<41 200 280 439> 673 20G<200 280>
VStem: 200 80<-142.875 399 476 693>
LayerCount: 2
Fore
SplineSet
280 399 m 1,0,-1
 280 144 l 2,1,2
 280 60 280 60 276 -8.5 c 128,-1,3
 272 -77 272 -77 263 -145 c 1,4,-1
 217 -145 l 1,5,6
 208 -77 208 -77 204 -8.5 c 128,-1,7
 200 60 200 60 200 144 c 2,8,-1
 200 399 l 1,9,-1
 41 399 l 1,10,-1
 41 476 l 1,11,-1
 200 476 l 1,12,-1
 200 693 l 1,13,-1
 280 693 l 1,14,-1
 280 476 l 1,15,-1
 439 476 l 1,16,-1
 439 399 l 1,17,-1
 280 399 l 1,0,-1
EndSplineSet
Validated: 1
EndChar

StartChar: daggerdbl
Encoding: 8225 8225 104
Width: 480
Flags: W
HStem: 134 77<41 200 280 439> 399 77<41 200 280 439> 673 20G<200 280>
VStem: 200 80<-142.907 134 211 399 476 693>
LayerCount: 2
Fore
SplineSet
280 134 m 1,0,1
 280 53 280 53 276 -12.5 c 128,-1,2
 272 -78 272 -78 263 -145 c 1,3,-1
 217 -145 l 1,4,5
 208 -78 208 -78 204 -12.5 c 128,-1,6
 200 53 200 53 200 134 c 1,7,-1
 41 134 l 1,8,-1
 41 211 l 1,9,-1
 200 211 l 1,10,-1
 200 399 l 1,11,-1
 41 399 l 1,12,-1
 41 476 l 1,13,-1
 200 476 l 1,14,-1
 200 693 l 1,15,-1
 280 693 l 1,16,-1
 280 476 l 1,17,-1
 439 476 l 1,18,-1
 439 399 l 1,19,-1
 280 399 l 1,20,-1
 280 211 l 1,21,-1
 439 211 l 1,22,-1
 439 134 l 1,23,-1
 280 134 l 1,0,1
EndSplineSet
Validated: 1
EndChar

StartChar: circumflex
Encoding: 710 710 105
Width: 380
Flags: W
HStem: 582 187
VStem: 54 272
LayerCount: 2
Fore
SplineSet
190 769 m 1,0,-1
 326 626 l 1,1,-1
 287 582 l 1,2,-1
 190 670 l 1,3,-1
 93 582 l 1,4,-1
 54 626 l 1,5,-1
 190 769 l 1,0,-1
EndSplineSet
Validated: 1
EndChar

StartChar: perthousand
Encoding: 8240 8240 106
Width: 1231
Flags: W
HStem: -15 69<598.059 703.941 967.059 1072.94> 0 21G<190 292.284> 284 69<598.059 703.941 967.059 1072.94> 340 69<158.059 263.941> 639 69<158.059 263.941> 673 20G<569.716 672>
VStem: 52 78<439.588 608.412> 292 78<439.588 608.412> 492 78<84.5881 253.412> 732 78<84.5881 253.412> 861 78<84.5881 253.412> 1101 78<84.5881 253.412>
LayerCount: 2
Fore
SplineSet
52 524 m 256,0,1
 52 569 52 569 64 603 c 128,-1,2
 76 637 76 637 97.5 660.5 c 128,-1,3
 119 684 119 684 148 696 c 128,-1,4
 177 708 177 708 211 708 c 256,5,6
 245 708 245 708 274 696 c 128,-1,7
 303 684 303 684 324.5 660.5 c 128,-1,8
 346 637 346 637 358 603 c 128,-1,9
 370 569 370 569 370 524 c 256,10,11
 370 479 370 479 358 445 c 128,-1,12
 346 411 346 411 324.5 387.5 c 128,-1,13
 303 364 303 364 274 352 c 128,-1,14
 245 340 245 340 211 340 c 256,15,16
 177 340 177 340 148 352 c 128,-1,17
 119 364 119 364 97.5 387.5 c 128,-1,18
 76 411 76 411 64 445 c 128,-1,19
 52 479 52 479 52 524 c 256,0,1
292 524 m 256,20,21
 292 578 292 578 271 608.5 c 128,-1,22
 250 639 250 639 211 639 c 256,23,24
 172 639 172 639 151 608.5 c 128,-1,25
 130 578 130 578 130 524 c 256,26,27
 130 470 130 470 151 439.5 c 128,-1,28
 172 409 172 409 211 409 c 256,29,30
 250 409 250 409 271 439.5 c 128,-1,31
 292 470 292 470 292 524 c 256,20,21
492 169 m 256,32,33
 492 214 492 214 504 248 c 128,-1,34
 516 282 516 282 537.5 305.5 c 128,-1,35
 559 329 559 329 588 341 c 128,-1,36
 617 353 617 353 651 353 c 256,37,38
 685 353 685 353 714 341 c 128,-1,39
 743 329 743 329 764.5 305.5 c 128,-1,40
 786 282 786 282 798 248 c 128,-1,41
 810 214 810 214 810 169 c 256,42,43
 810 124 810 124 798 90 c 128,-1,44
 786 56 786 56 764.5 32.5 c 128,-1,45
 743 9 743 9 714 -3 c 128,-1,46
 685 -15 685 -15 651 -15 c 256,47,48
 617 -15 617 -15 588 -3 c 128,-1,49
 559 9 559 9 537.5 32.5 c 128,-1,50
 516 56 516 56 504 90 c 128,-1,51
 492 124 492 124 492 169 c 256,32,33
732 169 m 256,52,53
 732 223 732 223 711 253.5 c 128,-1,54
 690 284 690 284 651 284 c 256,55,56
 612 284 612 284 591 253.5 c 128,-1,57
 570 223 570 223 570 169 c 256,58,59
 570 115 570 115 591 84.5 c 128,-1,60
 612 54 612 54 651 54 c 256,61,62
 690 54 690 54 711 84.5 c 128,-1,63
 732 115 732 115 732 169 c 256,52,53
672 693 m 1,64,-1
 281 0 l 1,65,-1
 190 0 l 1,66,-1
 581 693 l 1,67,-1
 672 693 l 1,64,-1
861 169 m 256,68,69
 861 214 861 214 873 248 c 128,-1,70
 885 282 885 282 906.5 305.5 c 128,-1,71
 928 329 928 329 957 341 c 128,-1,72
 986 353 986 353 1020 353 c 256,73,74
 1054 353 1054 353 1083 341 c 128,-1,75
 1112 329 1112 329 1133.5 305.5 c 128,-1,76
 1155 282 1155 282 1167 248 c 128,-1,77
 1179 214 1179 214 1179 169 c 256,78,79
 1179 124 1179 124 1167 90 c 128,-1,80
 1155 56 1155 56 1133.5 32.5 c 128,-1,81
 1112 9 1112 9 1083 -3 c 128,-1,82
 1054 -15 1054 -15 1020 -15 c 256,83,84
 986 -15 986 -15 957 -3 c 128,-1,85
 928 9 928 9 906.5 32.5 c 128,-1,86
 885 56 885 56 873 90 c 128,-1,87
 861 124 861 124 861 169 c 256,68,69
1101 169 m 256,88,89
 1101 223 1101 223 1080 253.5 c 128,-1,90
 1059 284 1059 284 1020 284 c 256,91,92
 981 284 981 284 960 253.5 c 128,-1,93
 939 223 939 223 939 169 c 256,94,95
 939 115 939 115 960 84.5 c 128,-1,96
 981 54 981 54 1020 54 c 256,97,98
 1059 54 1059 54 1080 84.5 c 128,-1,99
 1101 115 1101 115 1101 169 c 256,88,89
EndSplineSet
Validated: 1
EndChar

StartChar: guilsinglleft
Encoding: 8249 8249 108
Width: 295
Flags: W
VStem: 32 221
LayerCount: 2
Fore
SplineSet
32 284 m 1,0,-1
 188 505 l 1,1,-1
 253 470 l 1,2,-1
 142 284 l 1,3,-1
 253 98 l 1,4,-1
 188 63 l 1,5,-1
 32 284 l 1,0,-1
EndSplineSet
Validated: 1
Position2: "'case' Case-Sensitive Forms lookup 0 per glyph data 1" dx=0 dy=75 dh=0 dv=0
EndChar

StartChar: OE
Encoding: 338 338 109
Width: 997
Flags: W
HStem: -7 84<315.526 524.399> 0 81<437.72 524.718 622 958> 324 79<622 897> 612 81<438.72 524.312 622 933> 616 84<315.126 524.312>
VStem: 60 103<226.483 465.752> 525 97<81.0081 324 403 611.972>
LayerCount: 2
Fore
SplineSet
163 347 m 0,0,1
 163 283 163 283 182 233 c 128,-1,2
 201 183 201 183 236.5 148.5 c 128,-1,3
 272 114 272 114 323 95.5 c 128,-1,4
 374 77 374 77 437 77 c 0,5,6
 460 77 460 77 476.5 77.5 c 128,-1,7
 493 78 493 78 504 79 c 0,8,9
 516 80 516 80 525 82 c 1,10,-1
 525 611 l 1,11,12
 503 614 503 614 481 615 c 128,-1,13
 459 616 459 616 437 616 c 0,14,15
 374 616 374 616 323 597.5 c 128,-1,16
 272 579 272 579 236.5 544.5 c 128,-1,17
 201 510 201 510 182 460 c 128,-1,18
 163 410 163 410 163 347 c 0,0,1
437 -7 m 0,19,20
 356 -7 356 -7 287 15 c 128,-1,21
 218 37 218 37 167.5 81 c 128,-1,22
 117 125 117 125 88.5 191.5 c 128,-1,23
 60 258 60 258 60 347 c 256,24,25
 60 436 60 436 89 502 c 128,-1,26
 118 568 118 568 168.5 612 c 128,-1,27
 219 656 219 656 288 678 c 128,-1,28
 357 700 357 700 438 700 c 0,29,30
 461 700 461 700 489 698 c 128,-1,31
 517 696 517 696 542 693 c 1,32,-1
 933 693 l 1,33,-1
 933 612 l 1,34,-1
 622 612 l 1,35,-1
 622 403 l 1,36,-1
 897 403 l 1,37,-1
 897 324 l 1,38,-1
 622 324 l 1,39,-1
 622 81 l 1,40,-1
 958 81 l 1,41,-1
 958 0 l 1,42,-1
 542 0 l 1,43,44
 517 -3 517 -3 488.5 -5 c 128,-1,45
 460 -7 460 -7 437 -7 c 0,19,20
EndSplineSet
Validated: 1
EndChar

StartChar: quoteleft
Encoding: 8216 8216 110
Width: 239
Flags: W
HStem: 520 240
VStem: 62 100<520 658.621>
LayerCount: 2
Fore
SplineSet
62 520 m 1,0,1
 62 531 62 531 62 541.5 c 128,-1,2
 62 552 62 552 63 562 c 0,3,4
 67 614 67 614 86 665 c 128,-1,5
 105 716 105 716 132 760 c 1,6,-1
 204 737 l 1,7,8
 183 693 183 693 172.5 648 c 128,-1,9
 162 603 162 603 162 564 c 0,10,11
 162 554 162 554 162.5 542.5 c 128,-1,12
 163 531 163 531 164 520 c 1,13,-1
 62 520 l 1,0,1
EndSplineSet
Validated: 1
EndChar

StartChar: quoteright
Encoding: 8217 8217 111
Width: 239
Flags: W
HStem: 510 240
VStem: 77 100<611.818 750>
LayerCount: 2
Fore
SplineSet
177 750 m 1,0,1
 177 739 177 739 177 728.5 c 128,-1,2
 177 718 177 718 176 708 c 0,3,4
 172 656 172 656 153 605.5 c 128,-1,5
 134 555 134 555 107 510 c 1,6,-1
 35 533 l 1,7,8
 56 578 56 578 66.5 622.5 c 128,-1,9
 77 667 77 667 77 706 c 0,10,11
 77 716 77 716 76.5 727.5 c 128,-1,12
 76 739 76 739 75 750 c 1,13,-1
 177 750 l 1,0,1
EndSplineSet
Validated: 1
EndChar

StartChar: bullet
Encoding: 8226 8226 114
Width: 364
Flags: W
HStem: 226 254<108.007 255.993>
VStem: 54 256<279.412 426.499>
LayerCount: 2
Fore
SplineSet
310 353 m 0,0,1
 310 327 310 327 301 304 c 128,-1,2
 292 281 292 281 275.5 264 c 128,-1,3
 259 247 259 247 235.5 236.5 c 128,-1,4
 212 226 212 226 182 226 c 256,5,6
 152 226 152 226 128.5 236.5 c 128,-1,7
 105 247 105 247 88.5 264 c 128,-1,8
 72 281 72 281 63 304 c 128,-1,9
 54 327 54 327 54 353 c 0,10,11
 54 378 54 378 63 401.5 c 128,-1,12
 72 425 72 425 88.5 442 c 128,-1,13
 105 459 105 459 128.5 469.5 c 128,-1,14
 152 480 152 480 182 480 c 256,15,16
 212 480 212 480 235.5 469.5 c 128,-1,17
 259 459 259 459 275.5 442 c 128,-1,18
 292 425 292 425 301 401.5 c 128,-1,19
 310 378 310 378 310 353 c 0,0,1
EndSplineSet
Validated: 1
EndChar

StartChar: endash
Encoding: 8211 8211 115
Width: 500
Flags: W
HStem: 264 79<0 500>
LayerCount: 2
Fore
SplineSet
0 343 m 1,0,-1
 500 343 l 1,1,-1
 500 264 l 1,2,-1
 0 264 l 1,3,-1
 0 343 l 1,0,-1
EndSplineSet
Validated: 1
Position2: "'case' Case-Sensitive Forms lookup 0 per glyph data 1" dx=0 dy=75 dh=0 dv=0
EndChar

StartChar: emdash
Encoding: 8212 8212 116
Width: 1000
Flags: W
HStem: 264 79<0 1000>
LayerCount: 2
Fore
SplineSet
0 343 m 1,0,-1
 1000 343 l 1,1,-1
 1000 264 l 1,2,-1
 0 264 l 1,3,-1
 0 343 l 1,0,-1
EndSplineSet
Validated: 1
Position2: "'case' Case-Sensitive Forms lookup 0 per glyph data 1" dx=0 dy=75 dh=0 dv=0
EndChar

StartChar: tilde
Encoding: 732 732 117
Width: 380
Flags: W
HStem: 621 70<187.697 290.707> 659 70<88.2928 191.303>
VStem: 25 329
LayerCount: 2
Fore
SplineSet
354 711 m 1,0,1
 349 699 349 699 340.5 683 c 128,-1,2
 332 667 332 667 319 653.5 c 128,-1,3
 306 640 306 640 288.5 630.5 c 128,-1,4
 271 621 271 621 250 621 c 0,5,6
 230 621 230 621 212.5 628 c 128,-1,7
 195 635 195 635 179 643 c 0,8,9
 162 651 162 651 150 655 c 128,-1,10
 138 659 138 659 127 659 c 0,11,12
 110 659 110 659 95.5 645 c 128,-1,13
 81 631 81 631 73 615 c 1,14,-1
 25 639 l 1,15,16
 29 651 29 651 38 667 c 128,-1,17
 47 683 47 683 60 696.5 c 128,-1,18
 73 710 73 710 90.5 719.5 c 128,-1,19
 108 729 108 729 129 729 c 0,20,21
 149 729 149 729 166.5 722 c 128,-1,22
 184 715 184 715 200 707 c 0,23,24
 217 699 217 699 229 695 c 128,-1,25
 241 691 241 691 252 691 c 0,26,27
 269 691 269 691 283.5 705 c 128,-1,28
 298 719 298 719 306 735 c 1,29,-1
 354 711 l 1,0,1
EndSplineSet
Validated: 1
EndChar

StartChar: trademark
Encoding: 8482 8482 118
Width: 763
Flags: W
HStem: 632 61<25 130 199 304>
VStem: 130 69<360 632> 318 69<360 577.156> 642 70<360 577.156>
LayerCount: 2
Fore
SplineSet
304 693 m 1,0,-1
 304 632 l 1,1,-1
 199 632 l 1,2,-1
 199 360 l 1,3,-1
 130 360 l 1,4,-1
 130 632 l 1,5,-1
 25 632 l 1,6,-1
 25 693 l 1,7,-1
 304 693 l 1,0,-1
684 693 m 1,8,9
 692 642 692 642 698 562.5 c 128,-1,10
 704 483 704 483 712 360 c 1,11,-1
 642 360 l 1,12,13
 641 385 641 385 640 413.5 c 128,-1,14
 639 442 639 442 637.5 470.5 c 128,-1,15
 636 499 636 499 634 527 c 128,-1,16
 632 555 632 555 630 579 c 1,17,18
 619 560 619 560 606 534.5 c 128,-1,19
 593 509 593 509 580.5 484 c 128,-1,20
 568 459 568 459 556.5 437 c 128,-1,21
 545 415 545 415 539 402 c 1,22,-1
 490 402 l 1,23,24
 484 415 484 415 472.5 437 c 128,-1,25
 461 459 461 459 448.5 484 c 128,-1,26
 436 509 436 509 422.5 534.5 c 128,-1,27
 409 560 409 560 399 579 c 1,28,29
 397 555 397 555 395 527 c 128,-1,30
 393 499 393 499 391.5 470.5 c 128,-1,31
 390 442 390 442 389 413.5 c 128,-1,32
 388 385 388 385 387 360 c 1,33,-1
 318 360 l 1,34,35
 326 483 326 483 332 562.5 c 128,-1,36
 338 642 338 642 346 693 c 1,37,-1
 412 693 l 1,38,39
 420 676 420 676 432 652 c 128,-1,40
 444 628 444 628 458 600 c 128,-1,41
 472 572 472 572 486.5 543 c 128,-1,42
 501 514 501 514 515 487 c 1,43,44
 528 514 528 514 543 543 c 128,-1,45
 558 572 558 572 572 600 c 128,-1,46
 586 628 586 628 598 652 c 128,-1,47
 610 676 610 676 618 693 c 1,48,-1
 684 693 l 1,8,9
EndSplineSet
Validated: 1
EndChar

StartChar: guilsinglright
Encoding: 8250 8250 120
Width: 295
Flags: W
VStem: 42 221
LayerCount: 2
Fore
SplineSet
107 63 m 1,0,-1
 42 98 l 1,1,-1
 153 284 l 1,2,-1
 42 470 l 1,3,-1
 107 505 l 1,4,-1
 263 284 l 1,5,-1
 107 63 l 1,0,-1
EndSplineSet
Validated: 1
Position2: "'case' Case-Sensitive Forms lookup 0 per glyph data 1" dx=0 dy=75 dh=0 dv=0
EndChar

StartChar: oe
Encoding: 339 339 121
Width: 951
Flags: W
HStem: -13 82<221.052 373.043 615.192 836.509> 235 75<540 798> 451 82<221.052 372.303 600.584 750.215>
VStem: 53 97<150 369.742> 444 94<150.435 235 310 369.565> 798 97<310 398.913>
LayerCount: 2
Fore
SplineSet
703 -12 m 0,0,1
 624 -12 624 -12 571.5 17 c 128,-1,2
 519 46 519 46 490 97 c 1,3,4
 458 43 458 43 409 15 c 128,-1,5
 360 -13 360 -13 297 -13 c 0,6,7
 244 -13 244 -13 199 6.5 c 128,-1,8
 154 26 154 26 121.5 62 c 128,-1,9
 89 98 89 98 71 148 c 128,-1,10
 53 198 53 198 53 260 c 0,11,12
 53 321 53 321 71 371.5 c 128,-1,13
 89 422 89 422 121.5 458 c 128,-1,14
 154 494 154 494 199 513.5 c 128,-1,15
 244 533 244 533 297 533 c 0,16,17
 360 533 360 533 409.5 503.5 c 128,-1,18
 459 474 459 474 490 423 c 1,19,20
 523 479 523 479 573.5 506 c 128,-1,21
 624 533 624 533 678 533 c 0,22,23
 782 533 782 533 838.5 467 c 128,-1,24
 895 401 895 401 895 268 c 0,25,26
 895 260 895 260 894.5 254.5 c 128,-1,27
 894 249 894 249 894 244 c 2,28,-1
 894 235 l 1,29,-1
 538 235 l 1,30,31
 544 155 544 155 585.5 112.5 c 128,-1,32
 627 70 627 70 713 70 c 0,33,34
 762 70 762 70 795.5 78.5 c 128,-1,35
 829 87 829 87 846 95 c 1,36,-1
 859 17 l 1,37,38
 842 8 842 8 799.5 -2 c 128,-1,39
 757 -12 757 -12 703 -12 c 0,0,1
444 260 m 256,40,41
 444 348 444 348 404.5 399.5 c 128,-1,42
 365 451 365 451 297 451 c 256,43,44
 229 451 229 451 189.5 399.5 c 128,-1,45
 150 348 150 348 150 260 c 256,46,47
 150 172 150 172 189.5 120.5 c 128,-1,48
 229 69 229 69 297 69 c 256,49,50
 365 69 365 69 404.5 120.5 c 128,-1,51
 444 172 444 172 444 260 c 256,40,41
798 310 m 1,52,53
 799 373 799 373 766.5 413.5 c 128,-1,54
 734 454 734 454 677 454 c 0,55,56
 645 454 645 454 620.5 441.5 c 128,-1,57
 596 429 596 429 579.5 409 c 128,-1,58
 563 389 563 389 553 363 c 128,-1,59
 543 337 543 337 540 310 c 1,60,-1
 798 310 l 1,52,53
EndSplineSet
Validated: 33
Substitution2: "'case' Case-Sensitive Forms lookup 21 subtable" OE
EndChar

StartChar: exclamdown
Encoding: 161 161 124
Width: 280
Flags: W
HStem: -185 21G<90 190> 386 134<91.5657 188.434>
VStem: 73 134<406.627 499.373> 90 100<-185 267.61>
LayerCount: 2
Fore
SplineSet
90 2 m 2,0,1
 90 86 90 86 96 154.5 c 128,-1,2
 102 223 102 223 111 291 c 1,3,-1
 169 291 l 1,4,5
 178 223 178 223 184 154.5 c 128,-1,6
 190 86 190 86 190 2 c 2,7,-1
 190 -185 l 1,8,-1
 90 -185 l 1,9,-1
 90 2 l 2,0,1
73 453 m 256,10,11
 73 480 73 480 91 500 c 128,-1,12
 109 520 109 520 140 520 c 256,13,14
 171 520 171 520 189 500 c 128,-1,15
 207 480 207 480 207 453 c 256,16,17
 207 426 207 426 189 406 c 128,-1,18
 171 386 171 386 140 386 c 256,19,20
 109 386 109 386 91 406 c 128,-1,21
 73 426 73 426 73 453 c 256,10,11
EndSplineSet
Validated: 1
Position2: "'case' Case-Sensitive Forms lookup 0 per glyph data 3" dx=0 dy=199 dh=0 dv=0
EndChar

StartChar: cent
Encoding: 162 162 125
Width: 568
Flags: W
HStem: -109 219<281.055 363.01> 475 218<282.807 363.161>
VStem: 88 97<186.735 398.485> 281 83<-109 31.6722 552.277 693>
LayerCount: 2
Fore
SplineSet
88 291 m 256,0,1
 88 340 88 340 101.5 383 c 128,-1,2
 115 426 115 426 139.5 460 c 128,-1,3
 164 494 164 494 200 517 c 128,-1,4
 236 540 236 540 281 549 c 1,5,-1
 281 693 l 1,6,-1
 364 693 l 1,7,-1
 364 554 l 1,8,9
 422 551 422 551 474 531 c 1,10,-1
 453 454 l 1,11,12
 432 463 432 463 404.5 469 c 128,-1,13
 377 475 377 475 346 475 c 0,14,15
 268 475 268 475 226.5 428 c 128,-1,16
 185 381 185 381 185 291 c 0,17,18
 185 251 185 251 194.5 217.5 c 128,-1,19
 204 184 204 184 224.5 160 c 128,-1,20
 245 136 245 136 277 123 c 128,-1,21
 309 110 309 110 355 110 c 0,22,23
 392 110 392 110 422 117 c 128,-1,24
 452 124 452 124 469 131 c 1,25,-1
 482 55 l 1,26,27
 468 47 468 47 434 39.5 c 128,-1,28
 400 32 400 32 364 30 c 1,29,-1
 364 -109 l 1,30,-1
 281 -109 l 1,31,-1
 281 35 l 1,32,33
 233 44 233 44 197 66.5 c 128,-1,34
 161 89 161 89 137 122.5 c 128,-1,35
 113 156 113 156 100.5 199 c 128,-1,36
 88 242 88 242 88 291 c 256,0,1
EndSplineSet
Validated: 1
EndChar

StartChar: sterling
Encoding: 163 163 126
Width: 568
Flags: W
HStem: 0 80<232 521> 298 75<62 155 248 437> 624 82<294.005 473.017>
VStem: 155 93<81.9266 298 373 572.338>
LayerCount: 2
Fore
SplineSet
248 373 m 1,0,-1
 437 373 l 1,1,-1
 437 298 l 1,2,-1
 248 298 l 1,3,-1
 248 290 l 2,4,5
 248 240 248 240 244 185 c 128,-1,6
 240 130 240 130 232 80 c 1,7,-1
 521 80 l 1,8,-1
 521 0 l 1,9,-1
 127 0 l 1,10,11
 138 71 138 71 146.5 141.5 c 128,-1,12
 155 212 155 212 155 283 c 2,13,-1
 155 298 l 1,14,-1
 62 298 l 1,15,-1
 62 373 l 1,16,-1
 155 373 l 1,17,-1
 155 456 l 2,18,19
 155 530 155 530 170.5 578.5 c 128,-1,20
 186 627 186 627 214.5 655.5 c 128,-1,21
 243 684 243 684 283 695 c 128,-1,22
 323 706 323 706 371 706 c 0,23,24
 415 706 415 706 445 698 c 128,-1,25
 475 690 475 690 503 679 c 1,26,-1
 480 599 l 1,27,28
 427 624 427 624 367 624 c 0,29,30
 340 624 340 624 318 616 c 128,-1,31
 296 608 296 608 280.5 589 c 128,-1,32
 265 570 265 570 256.5 538 c 128,-1,33
 248 506 248 506 248 458 c 2,34,-1
 248 373 l 1,0,-1
EndSplineSet
Validated: 1
EndChar

StartChar: currency
Encoding: 164 164 127
Width: 568
Flags: W
HStem: 155 68<214.545 353.499> 471 68<214.638 353.166>
VStem: 91 75<272.816 420.692> 402 75<272.913 421.309>
LayerCount: 2
Fore
SplineSet
91 347 m 0,0,1
 91 408 91 408 119 453 c 1,2,-1
 46 527 l 1,3,-1
 104 585 l 1,4,-1
 178 510 l 1,5,6
 225 539 225 539 284 539 c 256,7,8
 343 539 343 539 389 510 c 1,9,-1
 464 585 l 1,10,-1
 522 527 l 1,11,-1
 448 453 l 1,12,13
 462 431 462 431 469.5 404.5 c 128,-1,14
 477 378 477 378 477 347 c 0,15,16
 477 315 477 315 469.5 289 c 128,-1,17
 462 263 462 263 448 241 c 1,18,-1
 522 167 l 1,19,-1
 464 109 l 1,20,-1
 389 183 l 1,21,22
 341 155 341 155 284 155 c 0,23,24
 255 155 255 155 228 162 c 128,-1,25
 201 169 201 169 178 183 c 1,26,-1
 104 109 l 1,27,-1
 46 167 l 1,28,-1
 119 240 l 1,29,30
 91 285 91 285 91 347 c 0,0,1
402 347 m 0,31,32
 402 375 402 375 392.5 398 c 128,-1,33
 383 421 383 421 367 437.5 c 128,-1,34
 351 454 351 454 329.5 462.5 c 128,-1,35
 308 471 308 471 284 471 c 256,36,37
 260 471 260 471 238.5 462.5 c 128,-1,38
 217 454 217 454 201 437.5 c 128,-1,39
 185 421 185 421 175.5 398 c 128,-1,40
 166 375 166 375 166 347 c 0,41,42
 166 318 166 318 175.5 295.5 c 128,-1,43
 185 273 185 273 201 256.5 c 128,-1,44
 217 240 217 240 238.5 231.5 c 128,-1,45
 260 223 260 223 284 223 c 256,46,47
 308 223 308 223 329.5 231.5 c 128,-1,48
 351 240 351 240 367 256.5 c 128,-1,49
 383 273 383 273 392.5 295.5 c 128,-1,50
 402 318 402 318 402 347 c 0,31,32
EndSplineSet
Validated: 1
EndChar

StartChar: yen
Encoding: 165 165 128
Width: 568
Flags: W
HStem: 0 21G<239 330> 106 71<77 239 330 492> 279 71<77 213 355 492> 673 20G<19 140 430.5 550>
VStem: 239 91<0 106 177 279>
LayerCount: 2
Fore
SplineSet
239 0 m 1,0,-1
 239 106 l 1,1,-1
 77 106 l 1,2,-1
 77 177 l 1,3,-1
 239 177 l 1,4,-1
 239 279 l 1,5,-1
 77 279 l 1,6,-1
 77 350 l 1,7,-1
 213 350 l 1,8,9
 159 438 159 438 110.5 524.5 c 128,-1,10
 62 611 62 611 19 693 c 1,11,-1
 122 693 l 1,12,13
 158 615 158 615 200 537 c 128,-1,14
 242 459 242 459 287 387 c 1,15,16
 331 459 331 459 371.5 537 c 128,-1,17
 412 615 412 615 449 693 c 1,18,-1
 550 693 l 1,19,20
 506 610 506 610 457.5 523.5 c 128,-1,21
 409 437 409 437 355 350 c 1,22,-1
 492 350 l 1,23,-1
 492 279 l 1,24,-1
 330 279 l 1,25,-1
 330 177 l 1,26,-1
 492 177 l 1,27,-1
 492 106 l 1,28,-1
 330 106 l 1,29,-1
 330 0 l 1,30,-1
 239 0 l 1,0,-1
EndSplineSet
Validated: 1
EndChar

StartChar: brokenbar
Encoding: 166 166 129
Width: 283
Flags: W
HStem: -185 21G<98 185>
VStem: 98 87<-185 198 400 783>
LayerCount: 2
Fore
SplineSet
98 198 m 1,0,-1
 185 198 l 1,1,-1
 185 -185 l 1,2,-1
 98 -185 l 1,3,-1
 98 198 l 1,0,-1
98 783 m 1,4,-1
 185 783 l 1,5,-1
 185 400 l 1,6,-1
 98 400 l 1,7,-1
 98 783 l 1,4,-1
EndSplineSet
Validated: 1
EndChar

StartChar: section
Encoding: 167 167 130
Width: 496
Flags: W
HStem: -109 77<93.3796 315.014> -21 20G<63.7838 85> 633 76<193.205 388.385>
VStem: 45 85<261.553 378.291> 80 88<516.54 612.132> 341 90<-10.5473 86.8808> 367 85<230.25 347.409>
LayerCount: 2
Fore
SplineSet
70 -1 m 1,0,1
 100 -14 100 -14 136 -23 c 128,-1,2
 172 -32 172 -32 228 -32 c 256,3,4
 284 -32 284 -32 312.5 -15.5 c 128,-1,5
 341 1 341 1 341 37 c 0,6,7
 341 72 341 72 314 91.5 c 128,-1,8
 287 111 287 111 223 133 c 0,9,10
 187 145 187 145 154.5 159 c 128,-1,11
 122 173 122 173 97.5 193 c 128,-1,12
 73 213 73 213 59 241 c 128,-1,13
 45 269 45 269 45 309 c 0,14,15
 45 335 45 335 53.5 357.5 c 128,-1,16
 62 380 62 380 74.5 398.5 c 128,-1,17
 87 417 87 417 103 430.5 c 128,-1,18
 119 444 119 444 134 453 c 1,19,20
 109 473 109 473 94.5 499 c 128,-1,21
 80 525 80 525 80 559 c 0,22,23
 80 628 80 628 128.5 668.5 c 128,-1,24
 177 709 177 709 265 709 c 0,25,26
 316 709 316 709 360 699 c 128,-1,27
 404 689 404 689 430 681 c 1,28,-1
 409 604 l 1,29,30
 385 613 385 613 350.5 623 c 128,-1,31
 316 633 316 633 264 633 c 0,32,33
 225 633 225 633 196.5 616.5 c 128,-1,34
 168 600 168 600 168 567 c 0,35,36
 168 549 168 549 174 536.5 c 128,-1,37
 180 524 180 524 193 513.5 c 128,-1,38
 206 503 206 503 226 494 c 128,-1,39
 246 485 246 485 274 476 c 0,40,41
 310 464 310 464 342.5 450 c 128,-1,42
 375 436 375 436 399.5 416 c 128,-1,43
 424 396 424 396 438 368 c 128,-1,44
 452 340 452 340 452 300 c 0,45,46
 452 275 452 275 444 253 c 128,-1,47
 436 231 436 231 424 213 c 128,-1,48
 412 195 412 195 396.5 180.5 c 128,-1,49
 381 166 381 166 366 157 c 1,50,51
 395 136 395 136 413 108 c 128,-1,52
 431 80 431 80 431 43 c 0,53,54
 431 -32 431 -32 378 -70.5 c 128,-1,55
 325 -109 325 -109 227 -109 c 0,56,57
 160 -109 160 -109 116.5 -98.5 c 128,-1,58
 73 -88 73 -88 47 -75 c 1,59,-1
 70 -1 l 1,0,1
222 408 m 0,60,61
 215 410 215 410 208.5 412.5 c 128,-1,62
 202 415 202 415 195 418 c 1,63,64
 166 399 166 399 148 373.5 c 128,-1,65
 130 348 130 348 130 318 c 0,66,67
 130 292 130 292 141.5 274.5 c 128,-1,68
 153 257 153 257 173.5 243.5 c 128,-1,69
 194 230 194 230 222 219.5 c 128,-1,70
 250 209 250 209 283 198 c 0,71,72
 288 196 288 196 292.5 194.5 c 128,-1,73
 297 193 297 193 302 191 c 1,74,75
 331 210 331 210 349 235 c 128,-1,76
 367 260 367 260 367 291 c 0,77,78
 367 317 367 317 355.5 334.5 c 128,-1,79
 344 352 344 352 324 365 c 128,-1,80
 304 378 304 378 278 388 c 128,-1,81
 252 398 252 398 222 408 c 0,60,61
EndSplineSet
Validated: 1
EndChar

StartChar: dieresis
Encoding: 168 168 131
Width: 380
Flags: W
HStem: 616 118<55.0482 134.952 245.048 324.952>
VStem: 37 116<633.018 716.982> 227 116<633.018 716.982>
LayerCount: 2
Fore
SplineSet
95 616 m 256,0,1
 72 616 72 616 54.5 632.5 c 128,-1,2
 37 649 37 649 37 675 c 256,3,4
 37 701 37 701 54.5 717.5 c 128,-1,5
 72 734 72 734 95 734 c 256,6,7
 118 734 118 734 135.5 717.5 c 128,-1,8
 153 701 153 701 153 675 c 256,9,10
 153 649 153 649 135.5 632.5 c 128,-1,11
 118 616 118 616 95 616 c 256,0,1
285 616 m 256,12,13
 262 616 262 616 244.5 632.5 c 128,-1,14
 227 649 227 649 227 675 c 256,15,16
 227 701 227 701 244.5 717.5 c 128,-1,17
 262 734 262 734 285 734 c 256,18,19
 308 734 308 734 325.5 717.5 c 128,-1,20
 343 701 343 701 343 675 c 256,21,22
 343 649 343 649 325.5 632.5 c 128,-1,23
 308 616 308 616 285 616 c 256,12,13
EndSplineSet
Validated: 1
EndChar

StartChar: copyright
Encoding: 169 169 132
Width: 818
Flags: W
HStem: -15 67<298.739 519.261> 140 66<354.324 530.278> 486 67<354.696 516.227> 642 67<298.739 519.261>
VStem: 67 73<222.034 471.966> 229 76<259.125 434.961> 678 73<222.034 471.966>
LayerCount: 2
Fore
SplineSet
751 347 m 256,0,1
 751 262 751 262 723 194.5 c 128,-1,2
 695 127 695 127 648 80.5 c 128,-1,3
 601 34 601 34 539 9.5 c 128,-1,4
 477 -15 477 -15 409 -15 c 256,5,6
 341 -15 341 -15 279 9.5 c 128,-1,7
 217 34 217 34 170 80.5 c 128,-1,8
 123 127 123 127 95 194.5 c 128,-1,9
 67 262 67 262 67 347 c 256,10,11
 67 432 67 432 95 499.5 c 128,-1,12
 123 567 123 567 170 613.5 c 128,-1,13
 217 660 217 660 279 684.5 c 128,-1,14
 341 709 341 709 409 709 c 256,15,16
 477 709 477 709 539 684.5 c 128,-1,17
 601 660 601 660 648 613.5 c 128,-1,18
 695 567 695 567 723 499.5 c 128,-1,19
 751 432 751 432 751 347 c 256,0,1
678 347 m 256,20,21
 678 413 678 413 658 467.5 c 128,-1,22
 638 522 638 522 602.5 561 c 128,-1,23
 567 600 567 600 517.5 621 c 128,-1,24
 468 642 468 642 409 642 c 256,25,26
 350 642 350 642 300.5 621 c 128,-1,27
 251 600 251 600 215.5 561 c 128,-1,28
 180 522 180 522 160 467.5 c 128,-1,29
 140 413 140 413 140 347 c 256,30,31
 140 281 140 281 160 226.5 c 128,-1,32
 180 172 180 172 215.5 133 c 128,-1,33
 251 94 251 94 300.5 73 c 128,-1,34
 350 52 350 52 409 52 c 256,35,36
 468 52 468 52 517.5 73 c 128,-1,37
 567 94 567 94 602.5 133 c 128,-1,38
 638 172 638 172 658 226.5 c 128,-1,39
 678 281 678 281 678 347 c 256,20,21
421 140 m 0,40,41
 378 140 378 140 343 154 c 128,-1,42
 308 168 308 168 282.5 194 c 128,-1,43
 257 220 257 220 243 258.5 c 128,-1,44
 229 297 229 297 229 347 c 0,45,46
 229 396 229 396 244.5 434 c 128,-1,47
 260 472 260 472 286 498.5 c 128,-1,48
 312 525 312 525 347 539 c 128,-1,49
 382 553 382 553 421 553 c 0,50,51
 447 553 447 553 468.5 549 c 128,-1,52
 490 545 490 545 506 539.5 c 128,-1,53
 522 534 522 534 532.5 528.5 c 128,-1,54
 543 523 543 523 547 520 c 1,55,-1
 524 460 l 1,56,57
 512 467 512 467 485.5 476.5 c 128,-1,58
 459 486 459 486 424 486 c 0,59,60
 373 486 373 486 339 450.5 c 128,-1,61
 305 415 305 415 305 347 c 0,62,63
 305 285 305 285 336 245.5 c 128,-1,64
 367 206 367 206 427 206 c 0,65,66
 466 206 466 206 491.5 214.5 c 128,-1,67
 517 223 517 223 531 230 c 1,68,-1
 550 170 l 1,69,70
 545 167 545 167 533.5 161.5 c 128,-1,71
 522 156 522 156 505 151.5 c 128,-1,72
 488 147 488 147 466.5 143.5 c 128,-1,73
 445 140 445 140 421 140 c 0,40,41
EndSplineSet
Validated: 1
EndChar

StartChar: ordfeminine
Encoding: 170 170 133
Width: 393
Flags: W
HStem: 329 62<134.239 267.875> 499 61<124.088 269> 641 65<89.6268 249.991>
VStem: 40 70<404.552 483.61> 269 69<392.266 497.59 555 621.287>
LayerCount: 2
Fore
SplineSet
198 391 m 0,0,1
 220 391 220 391 242 392 c 128,-1,2
 264 393 264 393 269 395 c 1,3,-1
 269 495 l 1,4,5
 258 497 258 497 241 498 c 128,-1,6
 224 499 224 499 208 499 c 0,7,8
 191 499 191 499 173.5 497 c 128,-1,9
 156 495 156 495 142 489 c 128,-1,10
 128 483 128 483 119 472.5 c 128,-1,11
 110 462 110 462 110 446 c 0,12,13
 110 416 110 416 133.5 403.5 c 128,-1,14
 157 391 157 391 198 391 c 0,0,1
191 706 m 0,15,16
 232 706 232 706 260 696 c 128,-1,17
 288 686 288 686 305.5 668 c 128,-1,18
 323 650 323 650 330.5 624.5 c 128,-1,19
 338 599 338 599 338 567 c 2,20,-1
 338 343 l 1,21,22
 314 338 314 338 273 333.5 c 128,-1,23
 232 329 232 329 191 329 c 0,24,25
 158 329 158 329 130.5 335.5 c 128,-1,26
 103 342 103 342 83 356 c 128,-1,27
 63 370 63 370 51.5 392 c 128,-1,28
 40 414 40 414 40 446 c 0,29,30
 40 477 40 477 53 499 c 128,-1,31
 66 521 66 521 88 534.5 c 128,-1,32
 110 548 110 548 139 554 c 128,-1,33
 168 560 168 560 200 560 c 0,34,35
 214 560 214 560 231 559 c 128,-1,36
 248 558 248 558 269 555 c 1,37,-1
 269 558 l 2,38,39
 269 573 269 573 266 588 c 128,-1,40
 263 603 263 603 254 614.5 c 128,-1,41
 245 626 245 626 229 633.5 c 128,-1,42
 213 641 213 641 187 641 c 0,43,44
 164 641 164 641 136.5 638 c 128,-1,45
 109 635 109 635 89 628 c 1,46,-1
 79 691 l 1,47,48
 98 696 98 696 128.5 701 c 128,-1,49
 159 706 159 706 191 706 c 0,15,16
EndSplineSet
Validated: 1
EndChar

StartChar: logicalnot
Encoding: 172 172 135
Width: 568
Flags: W
HStem: 310 79<55 433>
VStem: 433 80<48 310>
LayerCount: 2
Fore
SplineSet
513 389 m 1,0,-1
 513 48 l 1,1,-1
 433 48 l 1,2,-1
 433 310 l 1,3,-1
 55 310 l 1,4,-1
 55 389 l 1,5,-1
 513 389 l 1,0,-1
EndSplineSet
Validated: 1
EndChar

StartChar: registered
Encoding: 174 174 137
Width: 818
Flags: W
HStem: -15 67<298.739 519.261> 298 58<340 424.551> 486 62<340 464.777> 642 67<298.739 519.261>
VStem: 67 73<222.034 471.966> 269 71<148 298 356 485.452> 483 74<373.311 466.945> 678 73<222.034 471.966>
LayerCount: 2
Fore
SplineSet
751 347 m 256,0,1
 751 262 751 262 723 194.5 c 128,-1,2
 695 127 695 127 648 80.5 c 128,-1,3
 601 34 601 34 539 9.5 c 128,-1,4
 477 -15 477 -15 409 -15 c 256,5,6
 341 -15 341 -15 279 9.5 c 128,-1,7
 217 34 217 34 170 80.5 c 128,-1,8
 123 127 123 127 95 194.5 c 128,-1,9
 67 262 67 262 67 347 c 256,10,11
 67 432 67 432 95 499.5 c 128,-1,12
 123 567 123 567 170 613.5 c 128,-1,13
 217 660 217 660 279 684.5 c 128,-1,14
 341 709 341 709 409 709 c 256,15,16
 477 709 477 709 539 684.5 c 128,-1,17
 601 660 601 660 648 613.5 c 128,-1,18
 695 567 695 567 723 499.5 c 128,-1,19
 751 432 751 432 751 347 c 256,0,1
678 347 m 256,20,21
 678 413 678 413 658 467.5 c 128,-1,22
 638 522 638 522 602.5 561 c 128,-1,23
 567 600 567 600 517.5 621 c 128,-1,24
 468 642 468 642 409 642 c 256,25,26
 350 642 350 642 300.5 621 c 128,-1,27
 251 600 251 600 215.5 561 c 128,-1,28
 180 522 180 522 160 467.5 c 128,-1,29
 140 413 140 413 140 347 c 256,30,31
 140 281 140 281 160 226.5 c 128,-1,32
 180 172 180 172 215.5 133 c 128,-1,33
 251 94 251 94 300.5 73 c 128,-1,34
 350 52 350 52 409 52 c 256,35,36
 468 52 468 52 517.5 73 c 128,-1,37
 567 94 567 94 602.5 133 c 128,-1,38
 638 172 638 172 658 226.5 c 128,-1,39
 678 281 678 281 678 347 c 256,20,21
508 148 m 1,40,41
 485 193 485 193 456.5 233.5 c 128,-1,42
 428 274 428 274 407 298 c 1,43,-1
 340 298 l 1,44,-1
 340 148 l 1,45,-1
 269 148 l 1,46,-1
 269 536 l 1,47,48
 296 542 296 542 326 545 c 128,-1,49
 356 548 356 548 381 548 c 0,50,51
 467 548 467 548 512 516 c 128,-1,52
 557 484 557 484 557 419 c 0,53,54
 557 382 557 382 537.5 354.5 c 128,-1,55
 518 327 518 327 482 312 c 1,56,57
 492 300 492 300 505 282 c 128,-1,58
 518 264 518 264 532 242 c 128,-1,59
 546 220 546 220 560 196 c 128,-1,60
 574 172 574 172 585 148 c 1,61,-1
 508 148 l 1,40,41
340 356 m 1,62,-1
 378 356 l 2,63,64
 423 356 423 356 453 368.5 c 128,-1,65
 483 381 483 381 483 420 c 0,66,67
 483 457 483 457 454.5 471.5 c 128,-1,68
 426 486 426 486 386 486 c 0,69,70
 375 486 375 486 363 485.5 c 128,-1,71
 351 485 351 485 340 484 c 1,72,-1
 340 356 l 1,62,-1
EndSplineSet
Validated: 1
EndChar

StartChar: macron
Encoding: 175 175 138
Width: 380
Flags: W
HStem: 639 72<48 332>
VStem: 48 284<639 711>
LayerCount: 2
Fore
SplineSet
48 711 m 1,0,-1
 332 711 l 1,1,-1
 332 639 l 1,2,-1
 48 639 l 1,3,-1
 48 711 l 1,0,-1
EndSplineSet
Validated: 1
EndChar

StartChar: degree
Encoding: 176 176 139
Width: 336
Flags: W
HStem: 498 63<116.236 219.764> 713 63<116.236 219.764>
VStem: 28 67<581.797 692.203> 241 67<581.797 692.203>
LayerCount: 2
Fore
SplineSet
308 637 m 256,0,1
 308 605 308 605 296.5 579 c 128,-1,2
 285 553 285 553 266 535 c 128,-1,3
 247 517 247 517 221.5 507.5 c 128,-1,4
 196 498 196 498 168 498 c 256,5,6
 140 498 140 498 114.5 507.5 c 128,-1,7
 89 517 89 517 70 535 c 128,-1,8
 51 553 51 553 39.5 579 c 128,-1,9
 28 605 28 605 28 637 c 256,10,11
 28 669 28 669 39.5 695 c 128,-1,12
 51 721 51 721 70 739 c 128,-1,13
 89 757 89 757 114.5 766.5 c 128,-1,14
 140 776 140 776 168 776 c 256,15,16
 196 776 196 776 221.5 766.5 c 128,-1,17
 247 757 247 757 266 739 c 128,-1,18
 285 721 285 721 296.5 695 c 128,-1,19
 308 669 308 669 308 637 c 256,0,1
241 637 m 256,20,21
 241 672 241 672 219.5 692.5 c 128,-1,22
 198 713 198 713 168 713 c 256,23,24
 138 713 138 713 116.5 692.5 c 128,-1,25
 95 672 95 672 95 637 c 256,26,27
 95 602 95 602 116.5 581.5 c 128,-1,28
 138 561 138 561 168 561 c 256,29,30
 198 561 198 561 219.5 581.5 c 128,-1,31
 241 602 241 602 241 637 c 256,20,21
EndSplineSet
Validated: 1
EndChar

StartChar: plusminus
Encoding: 177 177 140
Width: 568
Flags: W
HStem: 0 79<55 513> 340 79<55 244 324 513>
VStem: 244 80<139 340 419 620>
LayerCount: 2
Fore
SplineSet
55 419 m 1,0,-1
 244 419 l 1,1,-1
 244 620 l 1,2,-1
 324 620 l 1,3,-1
 324 419 l 1,4,-1
 513 419 l 1,5,-1
 513 340 l 1,6,-1
 324 340 l 1,7,-1
 324 139 l 1,8,-1
 244 139 l 1,9,-1
 244 340 l 1,10,-1
 55 340 l 1,11,-1
 55 419 l 1,0,-1
55 79 m 1,12,-1
 513 79 l 1,13,-1
 513 0 l 1,14,-1
 55 0 l 1,15,-1
 55 79 l 1,12,-1
EndSplineSet
Validated: 1
EndChar

StartChar: twosuperior
Encoding: 178 178 141
Width: 363
Flags: W
HStem: 315 63<128 314> 646 63<93.1862 212.233>
VStem: 225 73<547.268 635.362>
LayerCount: 2
Fore
SplineSet
298 598 m 0,0,1
 298 577 298 577 288.5 557 c 128,-1,2
 279 537 279 537 263 517.5 c 128,-1,3
 247 498 247 498 226 478.5 c 128,-1,4
 205 459 205 459 181 438 c 0,5,6
 164 424 164 424 147.5 407.5 c 128,-1,7
 131 391 131 391 128 378 c 1,8,-1
 314 378 l 1,9,-1
 314 315 l 1,10,-1
 48 315 l 1,11,12
 45 348 45 348 52.5 373.5 c 128,-1,13
 60 399 60 399 74.5 420 c 128,-1,14
 89 441 89 441 108 458.5 c 128,-1,15
 127 476 127 476 148 494 c 0,16,17
 182 523 182 523 203.5 547.5 c 128,-1,18
 225 572 225 572 225 596 c 0,19,20
 225 622 225 622 208.5 634 c 128,-1,21
 192 646 192 646 163 646 c 0,22,23
 146 646 146 646 131 641.5 c 128,-1,24
 116 637 116 637 104 630.5 c 128,-1,25
 92 624 92 624 82.5 617.5 c 128,-1,26
 73 611 73 611 68 607 c 1,27,-1
 32 656 l 1,28,29
 49 674 49 674 83.5 691.5 c 128,-1,30
 118 709 118 709 163 709 c 0,31,32
 232 709 232 709 265 680 c 128,-1,33
 298 651 298 651 298 598 c 0,0,1
EndSplineSet
Validated: 33
Substitution2: "Single Substitution lookup 29 subtable" twoinferior
Substitution2: "'sinf' Scientific Inferiors lookup 15 subtable" two.sinf
Substitution2: "'subs' Subscript lookup 14 subtable" two.sinf
Substitution2: "'sups' Superscript lookup 13 subtable" two.sups
Substitution2: "'dnom' Denominators lookup 12 subtable" twoinferior
EndChar

StartChar: threesuperior
Encoding: 179 179 142
Width: 363
Flags: W
HStem: 307 62<44.2034 221.412> 491 57<110 207.882> 647 62<76.4118 208.175>
VStem: 221 70<563.01 636.794> 239 73<385.137 469.255>
LayerCount: 2
Fore
SplineSet
146 369 m 0,0,1
 199 369 199 369 219 385.5 c 128,-1,2
 239 402 239 402 239 428 c 0,3,4
 239 445 239 445 230 457 c 128,-1,5
 221 469 221 469 205.5 476.5 c 128,-1,6
 190 484 190 484 170 487.5 c 128,-1,7
 150 491 150 491 129 491 c 2,8,-1
 110 491 l 1,9,-1
 110 548 l 1,10,-1
 135 548 l 2,11,12
 149 548 149 548 164.5 550.5 c 128,-1,13
 180 553 180 553 192.5 559 c 128,-1,14
 205 565 205 565 213 575.5 c 128,-1,15
 221 586 221 586 221 601 c 0,16,17
 221 626 221 626 202.5 636.5 c 128,-1,18
 184 647 184 647 155 647 c 0,19,20
 128 647 128 647 105 637.5 c 128,-1,21
 82 628 82 628 65 620 c 1,22,-1
 40 675 l 1,23,24
 56 686 56 686 89.5 697.5 c 128,-1,25
 123 709 123 709 157 709 c 0,26,27
 230 709 230 709 260.5 679.5 c 128,-1,28
 291 650 291 650 291 604 c 0,29,30
 291 555 291 555 236 524 c 1,31,32
 271 513 271 513 291.5 487.5 c 128,-1,33
 312 462 312 462 312 427 c 0,34,35
 312 401 312 401 303 379.5 c 128,-1,36
 294 358 294 358 274 341.5 c 128,-1,37
 254 325 254 325 222.5 316 c 128,-1,38
 191 307 191 307 147 307 c 0,39,40
 116 307 116 307 84 314 c 128,-1,41
 52 321 52 321 34 330 c 1,42,-1
 49 390 l 1,43,44
 71 382 71 382 95.5 375.5 c 128,-1,45
 120 369 120 369 146 369 c 0,0,1
EndSplineSet
Validated: 1
Substitution2: "Single Substitution lookup 29 subtable" threeinferior
Substitution2: "'sinf' Scientific Inferiors lookup 15 subtable" three.sinf
Substitution2: "'subs' Subscript lookup 14 subtable" three.sinf
Substitution2: "'sups' Superscript lookup 13 subtable" three.sups
Substitution2: "'dnom' Denominators lookup 12 subtable" threeinferior
EndChar

StartChar: acute
Encoding: 180 180 143
Width: 380
Flags: W
HStem: 580 196
VStem: 112 219
LayerCount: 2
Fore
SplineSet
331 707 m 1,0,-1
 152 580 l 1,1,-1
 112 632 l 1,2,-1
 278 776 l 1,3,-1
 331 707 l 1,0,-1
EndSplineSet
Validated: 1
EndChar

StartChar: mu
Encoding: 181 181 144
Width: 584
Flags: W
HStem: -185 21G<82 174> -11 82<223.875 408.339> 500 20G<82 175 409 502>
VStem: 82 93<-185 33.1249 123.746 520> 409 93<76.8438 520>
LayerCount: 2
Fore
SplineSet
175 520 m 1,0,-1
 175 242 l 2,1,2
 175 147 175 147 206 109 c 128,-1,3
 237 71 237 71 306 71 c 0,4,5
 321 71 321 71 337 72 c 128,-1,6
 353 73 353 73 367 74.5 c 128,-1,7
 381 76 381 76 392.5 77.5 c 128,-1,8
 404 79 404 79 409 81 c 1,9,-1
 409 520 l 1,10,-1
 502 520 l 1,11,-1
 502 15 l 1,12,13
 470 7 470 7 419.5 -2 c 128,-1,14
 369 -11 369 -11 309 -11 c 0,15,16
 254 -11 254 -11 221.5 0.5 c 128,-1,17
 189 12 189 12 169 34 c 1,18,19
 172 6 172 6 173 -22.5 c 128,-1,20
 174 -51 174 -51 174 -82 c 2,21,-1
 174 -185 l 1,22,-1
 82 -185 l 1,23,-1
 82 520 l 1,24,-1
 175 520 l 1,0,-1
EndSplineSet
Validated: 1
EndChar

StartChar: paragraph
Encoding: 182 182 145
Width: 650
Flags: W
HStem: -185 21G<280 358 469 547> 623 77<358.805 468.416>
VStem: 45 313<375.502 573.715> 280 78<-185 264.423> 469 78<-185 620.462>
LayerCount: 2
Fore
SplineSet
388 623 m 0,0,1
 380 623 380 623 372 622.5 c 128,-1,2
 364 622 364 622 358 621 c 1,3,-1
 358 -185 l 1,4,-1
 280 -185 l 1,5,-1
 280 262 l 1,6,7
 169 273 169 273 107 325 c 128,-1,8
 45 377 45 377 45 479 c 0,9,10
 45 534 45 534 67.5 575 c 128,-1,11
 90 616 90 616 132 644 c 128,-1,12
 174 672 174 672 234 686 c 128,-1,13
 294 700 294 700 368 700 c 0,14,15
 410 700 410 700 458 696.5 c 128,-1,16
 506 693 506 693 547 683 c 1,17,-1
 547 -185 l 1,18,-1
 469 -185 l 1,19,-1
 469 618 l 1,20,21
 455 620 455 620 434 621.5 c 128,-1,22
 413 623 413 623 388 623 c 0,0,1
EndSplineSet
Validated: 1
EndChar

StartChar: cedilla
Encoding: 184 184 147
Width: 380
Flags: W
HStem: -189 60<82.3754 173.484>
VStem: 174 82<-127.887 -81.222>
LayerCount: 2
Fore
SplineSet
201 -37 m 1,0,1
 230 -51 230 -51 243 -67.5 c 128,-1,2
 256 -84 256 -84 256 -116 c 0,3,4
 256 -127 256 -127 251 -140 c 128,-1,5
 246 -153 246 -153 234 -164 c 128,-1,6
 222 -175 222 -175 202 -182 c 128,-1,7
 182 -189 182 -189 153 -189 c 0,8,9
 127 -189 127 -189 105.5 -185 c 128,-1,10
 84 -181 84 -181 71 -176 c 1,11,-1
 82 -119 l 1,12,13
 94 -123 94 -123 107.5 -126 c 128,-1,14
 121 -129 121 -129 138 -129 c 0,15,16
 174 -129 174 -129 174 -106 c 0,17,18
 174 -95 174 -95 163 -87.5 c 128,-1,19
 152 -80 152 -80 132 -72 c 2,20,-1
 125 -69 l 1,21,22
 128 -59 128 -59 134 -45.5 c 128,-1,23
 140 -32 140 -32 146 -19 c 128,-1,24
 152 -6 152 -6 157.5 4.5 c 128,-1,25
 163 15 163 15 166 20 c 1,26,-1
 230 20 l 1,27,28
 224 9 224 9 215 -8 c 128,-1,29
 206 -25 206 -25 201 -37 c 1,0,1
EndSplineSet
Validated: 1
EndChar

StartChar: onesuperior
Encoding: 185 185 148
Width: 363
Flags: W
HStem: 567 54<68.537 104.943> 681 20G<177.5 240>
VStem: 170 70<315 609>
LayerCount: 2
Fore
SplineSet
52 621 m 1,0,1
 90 634 90 634 127 654.5 c 128,-1,2
 164 675 164 675 191 701 c 1,3,-1
 240 701 l 1,4,-1
 240 315 l 1,5,-1
 170 315 l 1,6,-1
 170 609 l 1,7,8
 148 595 148 595 119.5 584 c 128,-1,9
 91 573 91 573 71 567 c 1,10,-1
 52 621 l 1,0,1
EndSplineSet
Validated: 1
Substitution2: "Single Substitution lookup 29 subtable" oneinferior
Substitution2: "'sinf' Scientific Inferiors lookup 15 subtable" one.sinf
Substitution2: "'subs' Subscript lookup 14 subtable" one.sinf
Substitution2: "'sups' Superscript lookup 13 subtable" one.sups
Substitution2: "'dnom' Denominators lookup 12 subtable" oneinferior
EndChar

StartChar: ordmasculine
Encoding: 186 186 149
Width: 450
Flags: W
HStem: 328 67<158.417 291.583> 641 67<159.261 291.583>
VStem: 45 74<436.715 598.741> 331 74<436.715 599.853>
LayerCount: 2
Fore
SplineSet
405 518 m 256,0,1
 405 475 405 475 391.5 440 c 128,-1,2
 378 405 378 405 354 380 c 128,-1,3
 330 355 330 355 297 341.5 c 128,-1,4
 264 328 264 328 225 328 c 256,5,6
 186 328 186 328 153 341.5 c 128,-1,7
 120 355 120 355 96 380 c 128,-1,8
 72 405 72 405 58.5 440 c 128,-1,9
 45 475 45 475 45 518 c 256,10,11
 45 561 45 561 58.5 596.5 c 128,-1,12
 72 632 72 632 96 656.5 c 128,-1,13
 120 681 120 681 153 694.5 c 128,-1,14
 186 708 186 708 225 708 c 256,15,16
 264 708 264 708 297 694.5 c 128,-1,17
 330 681 330 681 354 656.5 c 128,-1,18
 378 632 378 632 391.5 596.5 c 128,-1,19
 405 561 405 561 405 518 c 256,0,1
331 518 m 0,20,21
 331 574 331 574 303.5 607.5 c 128,-1,22
 276 641 276 641 225 641 c 0,23,24
 175 641 175 641 147 607.5 c 128,-1,25
 119 574 119 574 119 518 c 0,26,27
 119 463 119 463 146.5 429 c 128,-1,28
 174 395 174 395 225 395 c 256,29,30
 276 395 276 395 303.5 429 c 128,-1,31
 331 463 331 463 331 518 c 0,20,21
EndSplineSet
Validated: 1
EndChar

StartChar: questiondown
Encoding: 191 191 154
Width: 408
Flags: W
HStem: -188 78<159.276 335.757> 386 134<183.566 280.434>
VStem: 30 98<-79.9488 38.7668> 165 134<406.627 499.373> 199 81<195.631 291>
LayerCount: 2
Fore
SplineSet
128 -23 m 0,0,1
 128 -61 128 -61 155.5 -85.5 c 128,-1,2
 183 -110 183 -110 232 -110 c 0,3,4
 298 -110 298 -110 361 -76 c 1,5,-1
 387 -148 l 1,6,7
 353 -166 353 -166 310.5 -177 c 128,-1,8
 268 -188 268 -188 220 -188 c 0,9,10
 166 -188 166 -188 130 -174 c 128,-1,11
 94 -160 94 -160 71.5 -138 c 128,-1,12
 49 -116 49 -116 39.5 -88.5 c 128,-1,13
 30 -61 30 -61 30 -34 c 0,14,15
 30 -1 30 -1 42.5 25 c 128,-1,16
 55 51 55 51 74 74.5 c 128,-1,17
 93 98 93 98 114.5 119 c 128,-1,18
 136 140 136 140 155 163.5 c 128,-1,19
 174 187 174 187 186.5 213 c 128,-1,20
 199 239 199 239 199 272 c 0,21,22
 199 277 199 277 199 281.5 c 128,-1,23
 199 286 199 286 198 291 c 1,24,-1
 276 291 l 1,25,26
 280 271 280 271 280 252 c 0,27,28
 280 220 280 220 268.5 194 c 128,-1,29
 257 168 257 168 240.5 145.5 c 128,-1,30
 224 123 224 123 204 103 c 128,-1,31
 184 83 184 83 167.5 63 c 128,-1,32
 151 43 151 43 139.5 22 c 128,-1,33
 128 1 128 1 128 -23 c 0,0,1
165 453 m 256,34,35
 165 480 165 480 183 500 c 128,-1,36
 201 520 201 520 232 520 c 256,37,38
 263 520 263 520 281 500 c 128,-1,39
 299 480 299 480 299 453 c 256,40,41
 299 426 299 426 281 406 c 128,-1,42
 263 386 263 386 232 386 c 256,43,44
 201 386 201 386 183 406 c 128,-1,45
 165 426 165 426 165 453 c 256,34,35
EndSplineSet
Validated: 1
Position2: "'case' Case-Sensitive Forms lookup 0 per glyph data 3" dx=0 dy=199 dh=0 dv=0
EndChar

StartChar: Aring
Encoding: 197 197 160
Width: 667
Flags: W
HStem: 0 21G<10 118.079 542.5 657> 178 79<202 460> 792 47<291.746 372.254>
VStem: 229 50<694.14 779.702> 385 50<694.196 779.702>
LayerCount: 2
Fore
SplineSet
174 178 m 1,0,-1
 111 0 l 1,1,-1
 10 0 l 1,2,3
 47 102 47 102 80 190.5 c 128,-1,4
 113 279 113 279 144.5 358.5 c 128,-1,5
 176 438 176 438 206.5 510 c 128,-1,6
 237 582 237 582 270 653 c 1,7,8
 251 667 251 667 240 688 c 128,-1,9
 229 709 229 709 229 737 c 0,10,11
 229 761 229 761 237.5 779.5 c 128,-1,12
 246 798 246 798 260 811.5 c 128,-1,13
 274 825 274 825 292.5 832 c 128,-1,14
 311 839 311 839 332 839 c 256,15,16
 353 839 353 839 371.5 832 c 128,-1,17
 390 825 390 825 404 811.5 c 128,-1,18
 418 798 418 798 426.5 779.5 c 128,-1,19
 435 761 435 761 435 737 c 0,20,21
 435 710 435 710 424 689.5 c 128,-1,22
 413 669 413 669 395 655 c 1,23,24
 428 584 428 584 459 511.5 c 128,-1,25
 490 439 490 439 521.5 359.5 c 128,-1,26
 553 280 553 280 586 191.5 c 128,-1,27
 619 103 619 103 657 0 c 1,28,-1
 551 0 l 1,29,30
 534 45 534 45 519 89 c 128,-1,31
 504 133 504 133 488 178 c 1,32,-1
 174 178 l 1,0,-1
460 257 m 1,33,34
 428 344 428 344 396.5 425.5 c 128,-1,35
 365 507 365 507 331 582 c 1,36,37
 296 507 296 507 264.5 426 c 128,-1,38
 233 345 233 345 202 257 c 1,39,-1
 460 257 l 1,33,34
385 737 m 256,40,41
 385 763 385 763 369.5 777.5 c 128,-1,42
 354 792 354 792 332 792 c 256,43,44
 310 792 310 792 294.5 777.5 c 128,-1,45
 279 763 279 763 279 737 c 256,46,47
 279 711 279 711 294.5 696.5 c 128,-1,48
 310 682 310 682 332 682 c 256,49,50
 354 682 354 682 369.5 696.5 c 128,-1,51
 385 711 385 711 385 737 c 256,40,41
EndSplineSet
Validated: 1
EndChar

StartChar: AE
Encoding: 198 198 161
Width: 939
Flags: W
HStem: 0 81<574 900> 178 79<250 478> 324 79<574 839> 612 81<574 875>
VStem: 478 96<81 178 257 324 403 612>
LayerCount: 2
Fore
SplineSet
875 612 m 1,0,-1
 574 612 l 1,1,-1
 574 403 l 1,2,-1
 839 403 l 1,3,-1
 839 324 l 1,4,-1
 574 324 l 1,5,-1
 574 81 l 1,6,-1
 900 81 l 1,7,-1
 900 0 l 1,8,-1
 478 0 l 1,9,-1
 478 178 l 1,10,-1
 205 178 l 1,11,12
 181 134 181 134 157.5 89.5 c 128,-1,13
 134 45 134 45 112 0 c 1,14,-1
 8 0 l 1,15,16
 65 108 65 108 119.5 203.5 c 128,-1,17
 174 299 174 299 226 384 c 128,-1,18
 278 469 278 469 328.5 545.5 c 128,-1,19
 379 622 379 622 429 693 c 1,20,-1
 875 693 l 1,21,-1
 875 612 l 1,0,-1
478 617 m 1,22,23
 425 545 425 545 368 454 c 128,-1,24
 311 363 311 363 250 257 c 1,25,-1
 478 257 l 1,26,-1
 478 617 l 1,22,23
EndSplineSet
Validated: 1
EndChar

StartChar: Ccedilla
Encoding: 199 199 162
Width: 624
Flags: W
HStem: -189 60<265.375 356.484> -15 85<384.063 529.01> 624 85<296.551 516.84>
VStem: 60 103<211.888 477.199> 357 82<-127.887 -81.222>
LayerCount: 2
Fore
SplineSet
332 -11 m 1,0,1
 270 -3 270 -3 220 24.5 c 128,-1,2
 170 52 170 52 134.5 97.5 c 128,-1,3
 99 143 99 143 79.5 205.5 c 128,-1,4
 60 268 60 268 60 347 c 0,5,6
 60 434 60 434 86.5 501.5 c 128,-1,7
 113 569 113 569 158 615 c 128,-1,8
 203 661 203 661 263 685 c 128,-1,9
 323 709 323 709 391 709 c 0,10,11
 434 709 434 709 468.5 703 c 128,-1,12
 503 697 503 697 528.5 689 c 128,-1,13
 554 681 554 681 570 673 c 128,-1,14
 586 665 586 665 592 661 c 1,15,-1
 564 581 l 1,16,17
 555 587 555 587 538 594 c 128,-1,18
 521 601 521 601 499.5 608 c 128,-1,19
 478 615 478 615 452.5 619.5 c 128,-1,20
 427 624 427 624 401 624 c 0,21,22
 346 624 346 624 302 605 c 128,-1,23
 258 586 258 586 227 550 c 128,-1,24
 196 514 196 514 179.5 462.5 c 128,-1,25
 163 411 163 411 163 347 c 0,26,27
 163 285 163 285 177.5 234 c 128,-1,28
 192 183 192 183 221 146.5 c 128,-1,29
 250 110 250 110 293.5 90 c 128,-1,30
 337 70 337 70 395 70 c 0,31,32
 462 70 462 70 506 84 c 128,-1,33
 550 98 550 98 572 109 c 1,34,-1
 597 29 l 1,35,36
 583 18 583 18 529.5 2.5 c 128,-1,37
 476 -13 476 -13 394 -15 c 1,38,39
 391 -21 391 -21 388.5 -26.5 c 128,-1,40
 386 -32 386 -32 384 -37 c 1,41,42
 413 -51 413 -51 426 -67.5 c 128,-1,43
 439 -84 439 -84 439 -116 c 0,44,45
 439 -127 439 -127 434 -140 c 128,-1,46
 429 -153 429 -153 417 -164 c 128,-1,47
 405 -175 405 -175 385 -182 c 128,-1,48
 365 -189 365 -189 336 -189 c 0,49,50
 310 -189 310 -189 288.5 -185 c 128,-1,51
 267 -181 267 -181 254 -176 c 1,52,-1
 265 -119 l 1,53,54
 277 -123 277 -123 290.5 -126 c 128,-1,55
 304 -129 304 -129 321 -129 c 0,56,57
 357 -129 357 -129 357 -106 c 0,58,59
 357 -95 357 -95 346 -87.5 c 128,-1,60
 335 -80 335 -80 315 -72 c 2,61,-1
 308 -69 l 1,62,63
 312 -57 312 -57 318.5 -41 c 128,-1,64
 325 -25 325 -25 332 -11 c 1,0,1
EndSplineSet
Validated: 1
EndChar

StartChar: Eth
Encoding: 208 208 171
Width: 730
Flags: W
HStem: -6 85<198 423.002> 324 75<21 101 198 328> 615 85<198 423.002>
VStem: 101 97<80.4688 324 399 613.531> 567 103<222.482 471.518>
LayerCount: 2
Fore
SplineSet
670 347 m 256,0,1
 670 257 670 257 642 190.5 c 128,-1,2
 614 124 614 124 563 80.5 c 128,-1,3
 512 37 512 37 441 15.5 c 128,-1,4
 370 -6 370 -6 285 -6 c 0,5,6
 243 -6 243 -6 192.5 -2.5 c 128,-1,7
 142 1 142 1 101 11 c 1,8,-1
 101 324 l 1,9,-1
 21 324 l 1,10,-1
 21 399 l 1,11,-1
 101 399 l 1,12,-1
 101 683 l 1,13,14
 142 693 142 693 192.5 696.5 c 128,-1,15
 243 700 243 700 285 700 c 0,16,17
 370 700 370 700 441 678.5 c 128,-1,18
 512 657 512 657 563 613.5 c 128,-1,19
 614 570 614 570 642 503.5 c 128,-1,20
 670 437 670 437 670 347 c 256,0,1
293 79 m 0,21,22
 431 79 431 79 499 149.5 c 128,-1,23
 567 220 567 220 567 347 c 256,24,25
 567 474 567 474 499 544.5 c 128,-1,26
 431 615 431 615 293 615 c 0,27,28
 252 615 252 615 229.5 614 c 128,-1,29
 207 613 207 613 198 612 c 1,30,-1
 198 399 l 1,31,-1
 328 399 l 1,32,-1
 328 324 l 1,33,-1
 198 324 l 1,34,-1
 198 82 l 1,35,36
 207 81 207 81 229.5 80 c 128,-1,37
 252 79 252 79 293 79 c 0,21,22
EndSplineSet
Validated: 1
EndChar

StartChar: multiply
Encoding: 215 215 178
Width: 568
Flags: W
LayerCount: 2
Fore
SplineSet
430 92 m 1,0,-1
 284 238 l 1,1,-1
 138 92 l 1,2,-1
 82 148 l 1,3,-1
 228 294 l 1,4,-1
 82 440 l 1,5,-1
 138 496 l 1,6,-1
 284 350 l 1,7,-1
 430 496 l 1,8,-1
 486 440 l 1,9,-1
 340 294 l 1,10,-1
 486 148 l 1,11,-1
 430 92 l 1,0,-1
EndSplineSet
Validated: 1
EndChar

StartChar: Oslash
Encoding: 216 216 179
Width: 782
Flags: W
HStem: -15 85<290.203 490.554> 624 85<291.436 490.143>
VStem: 60 102<213.12 478.253> 619 103<215.747 478.539>
LayerCount: 2
Fore
SplineSet
60 347 m 0,0,1
 60 436 60 436 86.5 504 c 128,-1,2
 113 572 113 572 158.5 617.5 c 128,-1,3
 204 663 204 663 264.5 686 c 128,-1,4
 325 709 325 709 393 709 c 0,5,6
 499 709 499 709 581 653 c 1,7,-1
 640 730 l 1,8,-1
 702 684 l 1,9,-1
 638 601 l 1,10,11
 677 556 677 556 699.5 492.5 c 128,-1,12
 722 429 722 429 722 347 c 0,13,14
 722 258 722 258 695.5 190 c 128,-1,15
 669 122 669 122 624 76.5 c 128,-1,16
 579 31 579 31 519.5 8 c 128,-1,17
 460 -15 460 -15 393 -15 c 0,18,19
 340 -15 340 -15 292.5 -1.5 c 128,-1,20
 245 12 245 12 204 39 c 1,21,-1
 146 -36 l 1,22,-1
 84 10 l 1,23,-1
 146 90 l 1,24,25
 106 135 106 135 83 199 c 128,-1,26
 60 263 60 263 60 347 c 0,0,1
162 347 m 0,27,28
 162 238 162 238 206 168 c 1,29,-1
 525 581 l 1,30,31
 470 624 470 624 391 624 c 0,32,33
 338 624 338 624 295.5 604.5 c 128,-1,34
 253 585 253 585 223.5 549 c 128,-1,35
 194 513 194 513 178 461.5 c 128,-1,36
 162 410 162 410 162 347 c 0,27,28
391 70 m 0,37,38
 444 70 444 70 486 89.5 c 128,-1,39
 528 109 528 109 557.5 145 c 128,-1,40
 587 181 587 181 603 232.5 c 128,-1,41
 619 284 619 284 619 347 c 0,42,43
 619 400 619 400 608 443.5 c 128,-1,44
 597 487 597 487 577 522 c 1,45,-1
 259 111 l 1,46,47
 312 70 312 70 391 70 c 0,37,38
EndSplineSet
Validated: 1
EndChar

StartChar: Thorn
Encoding: 222 222 185
Width: 613
Flags: W
HStem: 0 21G<88 185> 142 80<185 400.182> 499 84<185 400.062> 673 20G<88 185>
VStem: 88 97<0 142 222 498.617 580 693> 473 102<283.669 438.078>
LayerCount: 2
Fore
SplineSet
185 222 m 1,0,-1
 258 222 l 2,1,2
 308 222 308 222 348 228.5 c 128,-1,3
 388 235 388 235 415.5 251 c 128,-1,4
 443 267 443 267 458 294 c 128,-1,5
 473 321 473 321 473 363 c 0,6,7
 473 403 473 403 457.5 429.5 c 128,-1,8
 442 456 442 456 414 471.5 c 128,-1,9
 386 487 386 487 347 493 c 128,-1,10
 308 499 308 499 261 499 c 0,11,12
 243 499 243 499 223.5 499 c 128,-1,13
 204 499 204 499 185 497 c 1,14,-1
 185 222 l 1,0,-1
185 693 m 1,15,-1
 185 580 l 1,16,17
 204 582 204 582 224.5 582.5 c 128,-1,18
 245 583 245 583 264 583 c 0,19,20
 575 583 575 583 575 362 c 0,21,22
 575 302 575 302 553.5 260.5 c 128,-1,23
 532 219 532 219 491.5 192.5 c 128,-1,24
 451 166 451 166 393 154 c 128,-1,25
 335 142 335 142 262 142 c 2,26,-1
 185 142 l 1,27,-1
 185 0 l 1,28,-1
 88 0 l 1,29,-1
 88 693 l 1,30,-1
 185 693 l 1,15,-1
EndSplineSet
Validated: 1
EndChar

StartChar: germandbls
Encoding: 223 223 186
Width: 627
Flags: W
HStem: -12 79<288.618 465.01> 0 21G<82 175> 695 81<223.22 377.692>
VStem: 82 93<0 643.717> 278 96<354.723 443.191> 407 93<546.985 666.057> 491 94<91.8309 210.285>
LayerCount: 2
Fore
SplineSet
500 616 m 0,0,1
 500 591 500 591 493 571.5 c 128,-1,2
 486 552 486 552 475.5 535.5 c 128,-1,3
 465 519 465 519 452.5 505 c 128,-1,4
 440 491 440 491 429 479 c 0,5,6
 406 454 406 454 390 437.5 c 128,-1,7
 374 421 374 421 374 396 c 0,8,9
 374 381 374 381 381.5 370 c 128,-1,10
 389 359 389 359 401 351 c 128,-1,11
 413 343 413 343 427.5 336 c 128,-1,12
 442 329 442 329 457 322 c 0,13,14
 484 309 484 309 507.5 294 c 128,-1,15
 531 279 531 279 548.5 259.5 c 128,-1,16
 566 240 566 240 575.5 213.5 c 128,-1,17
 585 187 585 187 585 150 c 0,18,19
 585 72 585 72 536.5 30 c 128,-1,20
 488 -12 488 -12 386 -12 c 0,21,22
 365 -12 365 -12 344 -9 c 128,-1,23
 323 -6 323 -6 305 -1.5 c 128,-1,24
 287 3 287 3 273.5 8 c 128,-1,25
 260 13 260 13 254 16 c 1,26,-1
 270 97 l 1,27,28
 276 94 276 94 288.5 89 c 128,-1,29
 301 84 301 84 317.5 79 c 128,-1,30
 334 74 334 74 353.5 70.5 c 128,-1,31
 373 67 373 67 393 67 c 0,32,33
 443 67 443 67 467 89 c 128,-1,34
 491 111 491 111 491 148 c 0,35,36
 491 187 491 187 468 212 c 128,-1,37
 445 237 445 237 388 263 c 0,38,39
 355 278 355 278 333.5 291.5 c 128,-1,40
 312 305 312 305 300 319 c 128,-1,41
 288 333 288 333 283 348 c 128,-1,42
 278 363 278 363 278 383 c 0,43,44
 278 423 278 423 300 450 c 128,-1,45
 322 477 322 477 347 503 c 0,46,47
 357 513 357 513 367.5 525 c 128,-1,48
 378 537 378 537 387 549.5 c 128,-1,49
 396 562 396 562 401.5 575 c 128,-1,50
 407 588 407 588 407 602 c 0,51,52
 407 646 407 646 381 670.5 c 128,-1,53
 355 695 355 695 303 695 c 0,54,55
 236 695 236 695 205.5 657 c 128,-1,56
 175 619 175 619 175 552 c 2,57,-1
 175 0 l 1,58,-1
 82 0 l 1,59,-1
 82 554 l 2,60,61
 82 604 82 604 96 645 c 128,-1,62
 110 686 110 686 137 715 c 128,-1,63
 164 744 164 744 204 760 c 128,-1,64
 244 776 244 776 296 776 c 0,65,66
 350 776 350 776 389 764 c 128,-1,67
 428 752 428 752 452.5 730.5 c 128,-1,68
 477 709 477 709 488.5 679.5 c 128,-1,69
 500 650 500 650 500 616 c 0,0,1
EndSplineSet
Validated: 1
EndChar

StartChar: ae
Encoding: 230 230 193
Width: 863
Flags: W
HStem: -12 82<164.098 375.703 524.667 750.701> 241 75<174.811 357.654 452 710> 453 80<107.531 318.881 515.564 659.667>
VStem: 46 94<94.5312 208.791> 359 93<310 382.397> 710 97<310 398.913>
LayerCount: 2
Fore
SplineSet
615 -12 m 0,0,1
 558 -12 558 -12 515.5 1.5 c 128,-1,2
 473 15 473 15 441 41 c 1,3,4
 431 34 431 34 414.5 25 c 128,-1,5
 398 16 398 16 375 7.5 c 128,-1,6
 352 -1 352 -1 323.5 -6.5 c 128,-1,7
 295 -12 295 -12 261 -12 c 0,8,9
 211 -12 211 -12 171.5 -3 c 128,-1,10
 132 6 132 6 104 26 c 128,-1,11
 76 46 76 46 61 78 c 128,-1,12
 46 110 46 110 46 155 c 0,13,14
 46 198 46 198 63.5 229 c 128,-1,15
 81 260 81 260 111 279 c 128,-1,16
 141 298 141 298 181 307 c 128,-1,17
 221 316 221 316 265 316 c 0,18,19
 279 316 279 316 294 314.5 c 128,-1,20
 309 313 309 313 322 310.5 c 128,-1,21
 335 308 335 308 345 306 c 128,-1,22
 355 304 355 304 359 303 c 1,23,-1
 359 329 l 2,24,25
 359 352 359 352 354 374.5 c 128,-1,26
 349 397 349 397 336 414.5 c 128,-1,27
 323 432 323 432 300.5 442.5 c 128,-1,28
 278 453 278 453 242 453 c 0,29,30
 196 453 196 453 161.5 446.5 c 128,-1,31
 127 440 127 440 110 433 c 1,32,-1
 99 510 l 1,33,34
 117 518 117 518 158.5 525.5 c 128,-1,35
 200 533 200 533 248 533 c 0,36,37
 317 533 317 533 357.5 509.5 c 128,-1,38
 398 486 398 486 418 444 c 1,39,40
 451 489 451 489 496 511 c 128,-1,41
 541 533 541 533 590 533 c 0,42,43
 694 533 694 533 750.5 467 c 128,-1,44
 807 401 807 401 807 268 c 0,45,46
 807 260 807 260 806.5 254.5 c 128,-1,47
 806 249 806 249 806 244 c 2,48,-1
 806 235 l 1,49,-1
 450 235 l 1,50,51
 456 155 456 155 497.5 112.5 c 128,-1,52
 539 70 539 70 625 70 c 0,53,54
 674 70 674 70 707.5 78.5 c 128,-1,55
 741 87 741 87 758 95 c 1,56,-1
 771 17 l 1,57,58
 754 8 754 8 711.5 -2 c 128,-1,59
 669 -12 669 -12 615 -12 c 0,0,1
263 67 m 0,60,61
 315 67 315 67 345 78.5 c 128,-1,62
 375 90 375 90 391 101 c 1,63,64
 376 129 376 129 367.5 161 c 128,-1,65
 359 193 359 193 358 229 c 1,66,67
 347 234 347 234 326 237.5 c 128,-1,68
 305 241 305 241 273 241 c 0,69,70
 252 241 252 241 228.5 238 c 128,-1,71
 205 235 205 235 185.5 225.5 c 128,-1,72
 166 216 166 216 153 199.5 c 128,-1,73
 140 183 140 183 140 156 c 0,74,75
 140 105 140 105 172.5 86 c 128,-1,76
 205 67 205 67 263 67 c 0,60,61
710 310 m 1,77,78
 711 373 711 373 678.5 413.5 c 128,-1,79
 646 454 646 454 589 454 c 0,80,81
 557 454 557 454 532.5 441.5 c 128,-1,82
 508 429 508 429 491.5 409 c 128,-1,83
 475 389 475 389 465 363 c 128,-1,84
 455 337 455 337 452 310 c 1,85,-1
 710 310 l 1,77,78
EndSplineSet
Validated: 33
Substitution2: "'case' Case-Sensitive Forms lookup 21 subtable" AE
EndChar

StartChar: ccedilla
Encoding: 231 231 194
Width: 469
Flags: W
HStem: -189 60<190.375 281.484> 451 82<224.344 417.342>
VStem: 53 97<149.586 370.719> 282 82<-127.887 -81.222>
LayerCount: 2
Fore
SplineSet
320 -12 m 1,0,-1
 309 -37 l 1,1,2
 338 -51 338 -51 351 -67.5 c 128,-1,3
 364 -84 364 -84 364 -116 c 0,4,5
 364 -127 364 -127 359 -140 c 128,-1,6
 354 -153 354 -153 342 -164 c 128,-1,7
 330 -175 330 -175 310 -182 c 128,-1,8
 290 -189 290 -189 261 -189 c 0,9,10
 235 -189 235 -189 213.5 -185 c 128,-1,11
 192 -181 192 -181 179 -176 c 1,12,-1
 190 -119 l 1,13,14
 202 -123 202 -123 215.5 -126 c 128,-1,15
 229 -129 229 -129 246 -129 c 0,16,17
 282 -129 282 -129 282 -106 c 0,18,19
 282 -95 282 -95 271 -87.5 c 128,-1,20
 260 -80 260 -80 240 -72 c 2,21,-1
 233 -69 l 1,22,23
 237 -57 237 -57 244 -40 c 128,-1,24
 251 -23 251 -23 259 -8 c 1,25,26
 208 -1 208 -1 169.5 21.5 c 128,-1,27
 131 44 131 44 105 79 c 128,-1,28
 79 114 79 114 66 159.5 c 128,-1,29
 53 205 53 205 53 259 c 0,30,31
 53 319 53 319 70.5 369 c 128,-1,32
 88 419 88 419 120 455.5 c 128,-1,33
 152 492 152 492 198.5 512.5 c 128,-1,34
 245 533 245 533 302 533 c 0,35,36
 337 533 337 533 372 527 c 128,-1,37
 407 521 407 521 439 508 c 1,38,-1
 418 429 l 1,39,40
 397 439 397 439 369.5 445 c 128,-1,41
 342 451 342 451 311 451 c 0,42,43
 233 451 233 451 191.5 402 c 128,-1,44
 150 353 150 353 150 259 c 0,45,46
 150 217 150 217 159.5 182 c 128,-1,47
 169 147 169 147 189.5 122 c 128,-1,48
 210 97 210 97 242 83.5 c 128,-1,49
 274 70 274 70 320 70 c 0,50,51
 357 70 357 70 387 77 c 128,-1,52
 417 84 417 84 434 92 c 1,53,-1
 447 14 l 1,54,55
 439 10 439 10 425.5 5.5 c 128,-1,56
 412 1 412 1 395 -2.5 c 128,-1,57
 378 -6 378 -6 358.5 -8.5 c 128,-1,58
 339 -11 339 -11 320 -12 c 1,0,-1
EndSplineSet
Validated: 1
Substitution2: "'case' Case-Sensitive Forms lookup 21 subtable" Ccedilla
EndChar

StartChar: eth
Encoding: 240 240 203
Width: 593
Flags: W
HStem: -13 82<215.918 364.278> 409 81<211.917 389.061> 756 20G<287.863 322>
VStem: 53 95<145.543 342.436> 440 95<168.816 373.138>
LayerCount: 2
Fore
SplineSet
566 657 m 1,0,-1
 459 620 l 1,1,2
 491 566 491 566 513 494 c 128,-1,3
 535 422 535 422 535 328 c 0,4,5
 535 262 535 262 523.5 200.5 c 128,-1,6
 512 139 512 139 484 91.5 c 128,-1,7
 456 44 456 44 408.5 15.5 c 128,-1,8
 361 -13 361 -13 289 -13 c 0,9,10
 230 -13 230 -13 185.5 9 c 128,-1,11
 141 31 141 31 111.5 67 c 128,-1,12
 82 103 82 103 67.5 150 c 128,-1,13
 53 197 53 197 53 248 c 0,14,15
 53 304 53 304 69.5 349 c 128,-1,16
 86 394 86 394 116 425.5 c 128,-1,17
 146 457 146 457 189.5 473.5 c 128,-1,18
 233 490 233 490 287 490 c 0,19,20
 338 490 338 490 376 474 c 128,-1,21
 414 458 414 458 432 444 c 1,22,23
 420 524 420 524 377 592 c 1,24,-1
 257 551 l 1,25,-1
 234 614 l 1,26,-1
 336 649 l 1,27,28
 303 688 303 688 252 725 c 1,29,-1
 311 776 l 1,30,31
 333 762 333 762 361.5 737.5 c 128,-1,32
 390 713 390 713 419 677 c 1,33,-1
 543 720 l 1,34,-1
 566 657 l 1,0,-1
440 325 m 0,35,36
 440 333 440 333 439.5 341 c 128,-1,37
 439 349 439 349 439 357 c 1,38,39
 405 387 405 387 368 398 c 128,-1,40
 331 409 331 409 299 409 c 0,41,42
 258 409 258 409 229.5 396.5 c 128,-1,43
 201 384 201 384 183 362 c 128,-1,44
 165 340 165 340 156.5 311 c 128,-1,45
 148 282 148 282 148 248 c 0,46,47
 148 212 148 212 157 179.5 c 128,-1,48
 166 147 166 147 183.5 122.5 c 128,-1,49
 201 98 201 98 227.5 83.5 c 128,-1,50
 254 69 254 69 289 69 c 0,51,52
 335 69 335 69 364.5 91 c 128,-1,53
 394 113 394 113 410.5 149 c 128,-1,54
 427 185 427 185 433.5 231 c 128,-1,55
 440 277 440 277 440 325 c 0,35,36
EndSplineSet
Validated: 1
Substitution2: "'case' Case-Sensitive Forms lookup 21 subtable" Eth
EndChar

StartChar: divide
Encoding: 247 247 210
Width: 568
Flags: W
HStem: 40 122<242.049 325.951> 255 79<55 513> 426 122<242.049 325.951>
VStem: 224 120<57.0184 144.982 443.018 530.982>
LayerCount: 2
Fore
SplineSet
284 40 m 256,0,1
 259 40 259 40 241.5 56.5 c 128,-1,2
 224 73 224 73 224 101 c 256,3,4
 224 129 224 129 241.5 145.5 c 128,-1,5
 259 162 259 162 284 162 c 256,6,7
 309 162 309 162 326.5 145.5 c 128,-1,8
 344 129 344 129 344 101 c 256,9,10
 344 73 344 73 326.5 56.5 c 128,-1,11
 309 40 309 40 284 40 c 256,0,1
284 426 m 256,12,13
 259 426 259 426 241.5 442.5 c 128,-1,14
 224 459 224 459 224 487 c 256,15,16
 224 515 224 515 241.5 531.5 c 128,-1,17
 259 548 259 548 284 548 c 256,18,19
 309 548 309 548 326.5 531.5 c 128,-1,20
 344 515 344 515 344 487 c 256,21,22
 344 459 344 459 326.5 442.5 c 128,-1,23
 309 426 309 426 284 426 c 256,12,13
55 334 m 1,24,-1
 513 334 l 1,25,-1
 513 255 l 1,26,-1
 55 255 l 1,27,-1
 55 334 l 1,24,-1
EndSplineSet
Validated: 1
EndChar

StartChar: oslash
Encoding: 248 248 211
Width: 594
Flags: W
HStem: -13 81<219.315 373.383> 452 81<220.617 372.724>
VStem: 53 96<150.792 370.992> 445 96<149.535 367.681>
LayerCount: 2
Fore
SplineSet
482 445 m 1,0,1
 510 410 510 410 525.5 363.5 c 128,-1,2
 541 317 541 317 541 260 c 0,3,4
 541 198 541 198 523 148 c 128,-1,5
 505 98 505 98 472.5 62 c 128,-1,6
 440 26 440 26 395 6.5 c 128,-1,7
 350 -13 350 -13 297 -13 c 0,8,9
 218 -13 218 -13 160 28 c 1,10,-1
 111 -36 l 1,11,-1
 58 4 l 1,12,-1
 112 74 l 1,13,14
 84 109 84 109 68.5 156 c 128,-1,15
 53 203 53 203 53 260 c 0,16,17
 53 321 53 321 71 371.5 c 128,-1,18
 89 422 89 422 121.5 458 c 128,-1,19
 154 494 154 494 199 513.5 c 128,-1,20
 244 533 244 533 297 533 c 0,21,22
 336 533 336 533 370.5 522 c 128,-1,23
 405 511 405 511 434 491 c 1,24,-1
 483 555 l 1,25,-1
 536 515 l 1,26,-1
 482 445 l 1,0,1
149 260 m 0,27,28
 149 195 149 195 170 150 c 1,29,-1
 382 424 l 1,30,31
 346 452 346 452 297 452 c 0,32,33
 228 452 228 452 188.5 400.5 c 128,-1,34
 149 349 149 349 149 260 c 0,27,28
445 260 m 0,35,36
 445 322 445 322 423 369 c 1,37,-1
 212 95 l 1,38,39
 246 68 246 68 297 68 c 0,40,41
 366 68 366 68 405.5 119.5 c 128,-1,42
 445 171 445 171 445 260 c 0,35,36
EndSplineSet
Validated: 1
Substitution2: "'case' Case-Sensitive Forms lookup 21 subtable" Oslash
EndChar

StartChar: thorn
Encoding: 254 254 217
Width: 593
Flags: W
HStem: -185 21G<82 175> -12 82<204.289 374.7> 449 82<175.813 363.518> 756 20G<82 175>
VStem: 82 93<-185 23 95.8284 438.469 511 760> 443 97<145.117 364.521>
LayerCount: 2
Fore
SplineSet
443 259 m 0,0,1
 443 350 443 350 398 399.5 c 128,-1,2
 353 449 353 449 278 449 c 0,3,4
 263 449 263 449 247 447 c 128,-1,5
 231 445 231 445 216.5 442.5 c 128,-1,6
 202 440 202 440 191 437 c 128,-1,7
 180 434 180 434 175 432 c 1,8,-1
 175 110 l 1,9,10
 192 96 192 96 224 83 c 128,-1,11
 256 70 256 70 294 70 c 0,12,13
 334 70 334 70 362.5 84.5 c 128,-1,14
 391 99 391 99 409 124.5 c 128,-1,15
 427 150 427 150 435 184.5 c 128,-1,16
 443 219 443 219 443 259 c 0,0,1
540 259 m 0,17,18
 540 200 540 200 524.5 150 c 128,-1,19
 509 100 509 100 479 64 c 128,-1,20
 449 28 449 28 405.5 8 c 128,-1,21
 362 -12 362 -12 306 -12 c 0,22,23
 261 -12 261 -12 226.5 0 c 128,-1,24
 192 12 192 12 175 23 c 1,25,-1
 175 -185 l 1,26,-1
 82 -185 l 1,27,-1
 82 760 l 1,28,-1
 175 776 l 1,29,-1
 175 511 l 1,30,31
 201 520 201 520 229.5 525.5 c 128,-1,32
 258 531 258 531 284 531 c 0,33,34
 341 531 341 531 388.5 512 c 128,-1,35
 436 493 436 493 469.5 458 c 128,-1,36
 503 423 503 423 521.5 372.5 c 128,-1,37
 540 322 540 322 540 259 c 0,17,18
EndSplineSet
Validated: 1
Substitution2: "'case' Case-Sensitive Forms lookup 21 subtable" Thorn
EndChar

StartChar: Aogonek
Encoding: 260 260 223
Width: 667
Flags: W
HStem: -187 65<574.02 652.656> 0 21G<10 118.119> 177 80<202 460> 673 20G<271 396>
VStem: 484 88<-119.739 -51.9602>
LayerCount: 2
Fore
SplineSet
552 -2 m 1,0,1
 535 43 535 43 519.5 87.5 c 128,-1,2
 504 132 504 132 488 177 c 1,3,-1
 174 177 l 1,4,-1
 111 0 l 1,5,-1
 10 0 l 1,6,7
 50 110 50 110 85 203.5 c 128,-1,8
 120 297 120 297 153.5 381 c 128,-1,9
 187 465 187 465 220 541.5 c 128,-1,10
 253 618 253 618 289 693 c 1,11,-1
 378 693 l 1,12,13
 414 618 414 618 447 541.5 c 128,-1,14
 480 465 480 465 513 381.5 c 128,-1,15
 546 298 546 298 581 204.5 c 128,-1,16
 616 111 616 111 656 2 c 1,17,18
 647 -3 647 -3 632 -13 c 128,-1,19
 617 -23 617 -23 602 -39 c 0,20,21
 588 -55 588 -55 580 -67 c 128,-1,22
 572 -79 572 -79 572 -93 c 0,23,24
 572 -122 572 -122 612 -122 c 0,25,26
 619 -122 619 -122 630.5 -120.5 c 128,-1,27
 642 -119 642 -119 653 -115 c 1,28,-1
 660 -176 l 1,29,30
 649 -181 649 -181 631.5 -184 c 128,-1,31
 614 -187 614 -187 594 -187 c 0,32,33
 538 -187 538 -187 511 -166.5 c 128,-1,34
 484 -146 484 -146 484 -111 c 0,35,36
 484 -88 484 -88 496.5 -66.5 c 128,-1,37
 509 -45 509 -45 526 -27 c 0,38,39
 534 -19 534 -19 540.5 -13 c 128,-1,40
 547 -7 547 -7 552 -2 c 1,0,1
460 257 m 1,41,42
 428 344 428 344 396.5 425.5 c 128,-1,43
 365 507 365 507 331 582 c 1,44,45
 296 507 296 507 264.5 425.5 c 128,-1,46
 233 344 233 344 202 257 c 1,47,-1
 460 257 l 1,41,42
EndSplineSet
Validated: 1
EndChar

StartChar: aogonek
Encoding: 261 261 224
Width: 526
Flags: W
HStem: -187 65<364.02 442.656> -11 78<168.319 342.498> 241 75<173.811 358.684> 453 80<107.536 319.117>
VStem: 45 94<94.4583 208.791> 274 88<-119.739 -55.0981> 359 91<70.291 235.535 303 412.211>
LayerCount: 2
Fore
SplineSet
258 67 m 0,0,1
 291 67 291 67 316.5 68.5 c 128,-1,2
 342 70 342 70 359 74 c 1,3,-1
 359 229 l 1,4,5
 349 234 349 234 326.5 237.5 c 128,-1,6
 304 241 304 241 272 241 c 0,7,8
 251 241 251 241 227.5 238 c 128,-1,9
 204 235 204 235 184.5 225.5 c 128,-1,10
 165 216 165 216 152 199.5 c 128,-1,11
 139 183 139 183 139 156 c 0,12,13
 139 106 139 106 171 86.5 c 128,-1,14
 203 67 203 67 258 67 c 0,0,1
250 533 m 0,15,16
 306 533 306 533 344.5 518.5 c 128,-1,17
 383 504 383 504 406.5 477.5 c 128,-1,18
 430 451 430 451 440 414.5 c 128,-1,19
 450 378 450 378 450 334 c 2,20,-1
 450 9 l 1,21,22
 438 0 438 0 423.5 -11.5 c 128,-1,23
 409 -23 409 -23 394 -39 c 0,24,25
 380 -55 380 -55 371 -67 c 128,-1,26
 362 -79 362 -79 362 -93 c 0,27,28
 362 -122 362 -122 402 -122 c 0,29,30
 409 -122 409 -122 420.5 -120.5 c 128,-1,31
 432 -119 432 -119 443 -115 c 1,32,-1
 450 -176 l 1,33,34
 439 -181 439 -181 421.5 -184 c 128,-1,35
 404 -187 404 -187 384 -187 c 0,36,37
 328 -187 328 -187 301 -166.5 c 128,-1,38
 274 -146 274 -146 274 -111 c 0,39,40
 274 -88 274 -88 288 -66.5 c 128,-1,41
 302 -45 302 -45 319 -27 c 0,42,43
 324 -21 324 -21 331 -15.5 c 128,-1,44
 338 -10 338 -10 343 -5 c 1,45,46
 320 -7 320 -7 295.5 -9 c 128,-1,47
 271 -11 271 -11 247 -11 c 0,48,49
 203 -11 203 -11 166 -2 c 128,-1,50
 129 7 129 7 102 26.5 c 128,-1,51
 75 46 75 46 60 78 c 128,-1,52
 45 110 45 110 45 155 c 0,53,54
 45 198 45 198 62.5 229 c 128,-1,55
 80 260 80 260 110 279 c 128,-1,56
 140 298 140 298 180 307 c 128,-1,57
 220 316 220 316 264 316 c 0,58,59
 278 316 278 316 293 314.5 c 128,-1,60
 308 313 308 313 321.5 310.5 c 128,-1,61
 335 308 335 308 345 306 c 128,-1,62
 355 304 355 304 359 303 c 1,63,-1
 359 329 l 2,64,65
 359 352 359 352 354 374.5 c 128,-1,66
 349 397 349 397 336 414.5 c 128,-1,67
 323 432 323 432 300.5 442.5 c 128,-1,68
 278 453 278 453 242 453 c 0,69,70
 196 453 196 453 161.5 446.5 c 128,-1,71
 127 440 127 440 110 433 c 1,72,-1
 99 510 l 1,73,74
 117 518 117 518 159 525.5 c 128,-1,75
 201 533 201 533 250 533 c 0,15,16
EndSplineSet
Validated: 1
Substitution2: "'case' Case-Sensitive Forms lookup 21 subtable" Aogonek
EndChar

StartChar: dcroat
Encoding: 273 273 236
Width: 593
Flags: W
HStem: -12 82<229.321 417.721> 446 82<217.149 388.711> 614 69<241 418 511 585> 756 20G<418 511>
VStem: 53 97<153.014 372.247> 418 93<76.1953 420.172 493 614 683 760>
LayerCount: 2
Fore
SplineSet
418 406 m 1,0,1
 401 420 401 420 369 433 c 128,-1,2
 337 446 337 446 299 446 c 0,3,4
 259 446 259 446 230.5 432 c 128,-1,5
 202 418 202 418 184 393 c 128,-1,6
 166 368 166 368 158 333.5 c 128,-1,7
 150 299 150 299 150 259 c 0,8,9
 150 168 150 168 195 119 c 128,-1,10
 240 70 240 70 315 70 c 0,11,12
 353 70 353 70 378.5 73.5 c 128,-1,13
 404 77 404 77 418 81 c 1,14,-1
 418 406 l 1,0,1
418 760 m 1,15,-1
 511 776 l 1,16,-1
 511 683 l 1,17,-1
 585 683 l 1,18,-1
 585 614 l 1,19,-1
 511 614 l 1,20,-1
 511 15 l 1,21,22
 479 6 479 6 429 -3 c 128,-1,23
 379 -12 379 -12 314 -12 c 0,24,25
 254 -12 254 -12 206 6.5 c 128,-1,26
 158 25 158 25 124 60.5 c 128,-1,27
 90 96 90 96 71.5 146 c 128,-1,28
 53 196 53 196 53 259 c 0,29,30
 53 319 53 319 68.5 368.5 c 128,-1,31
 84 418 84 418 114 453.5 c 128,-1,32
 144 489 144 489 187.5 508.5 c 128,-1,33
 231 528 231 528 287 528 c 0,34,35
 332 528 332 528 366.5 516 c 128,-1,36
 401 504 401 504 418 493 c 1,37,-1
 418 614 l 1,38,-1
 241 614 l 1,39,-1
 241 683 l 1,40,-1
 418 683 l 1,41,-1
 418 760 l 1,15,-1
EndSplineSet
Validated: 1
Substitution2: "'case' Case-Sensitive Forms lookup 21 subtable" Dcroat
EndChar

StartChar: Eogonek
Encoding: 280 280 243
Width: 575
Flags: W
HStem: -187 65<454.02 532.656> 0 83<185 435> 323 81<185 475> 610 83<185 511>
VStem: 88 97<83 323 404 610> 364 88<-119.739 -51.9602>
LayerCount: 2
Fore
SplineSet
88 0 m 1,0,-1
 88 693 l 1,1,-1
 511 693 l 1,2,-1
 511 610 l 1,3,-1
 185 610 l 1,4,-1
 185 404 l 1,5,-1
 475 404 l 1,6,-1
 475 323 l 1,7,-1
 185 323 l 1,8,-1
 185 83 l 1,9,-1
 536 83 l 1,10,-1
 536 2 l 1,11,12
 527 -3 527 -3 512 -13 c 128,-1,13
 497 -23 497 -23 482 -39 c 0,14,15
 468 -55 468 -55 460 -67 c 128,-1,16
 452 -79 452 -79 452 -93 c 0,17,18
 452 -122 452 -122 492 -122 c 0,19,20
 499 -122 499 -122 510.5 -120.5 c 128,-1,21
 522 -119 522 -119 533 -115 c 1,22,-1
 540 -176 l 1,23,24
 529 -181 529 -181 511.5 -184 c 128,-1,25
 494 -187 494 -187 474 -187 c 0,26,27
 418 -187 418 -187 391 -166.5 c 128,-1,28
 364 -146 364 -146 364 -111 c 0,29,30
 364 -88 364 -88 376.5 -66.5 c 128,-1,31
 389 -45 389 -45 406 -27 c 0,32,33
 414 -19 414 -19 420.5 -12.5 c 128,-1,34
 427 -6 427 -6 435 0 c 1,35,-1
 88 0 l 1,0,-1
EndSplineSet
Validated: 1
EndChar

StartChar: eogonek
Encoding: 281 281 244
Width: 563
Flags: W
HStem: -187 65<383.861 452.78> -12 82<223.701 347.117> 235 75<152 410> 454 79<216.691 359.323>
VStem: 53 97<148.984 235 310 379.49> 284 88<-117.648 -54.3181> 410 97<310 397.076>
LayerCount: 2
Fore
SplineSet
53 259 m 0,0,1
 53 328 53 328 73 379.5 c 128,-1,2
 93 431 93 431 126 465 c 128,-1,3
 159 499 159 499 202 516 c 128,-1,4
 245 533 245 533 290 533 c 0,5,6
 395 533 395 533 451 467.5 c 128,-1,7
 507 402 507 402 507 268 c 0,8,9
 507 262 507 262 507 252.5 c 128,-1,10
 507 243 507 243 506 235 c 1,11,-1
 150 235 l 1,12,13
 156 154 156 154 197 112 c 128,-1,14
 238 70 238 70 325 70 c 0,15,16
 374 70 374 70 407.5 78.5 c 128,-1,17
 441 87 441 87 458 95 c 1,18,-1
 471 17 l 1,19,20
 454 4 454 4 437 -9 c 128,-1,21
 420 -22 420 -22 404 -39 c 0,22,23
 387 -56 387 -56 379.5 -68.5 c 128,-1,24
 372 -81 372 -81 372 -93 c 0,25,26
 372 -110 372 -110 383.5 -116 c 128,-1,27
 395 -122 395 -122 412 -122 c 0,28,29
 424 -122 424 -122 435 -119.5 c 128,-1,30
 446 -117 446 -117 453 -115 c 1,31,-1
 460 -176 l 1,32,33
 448 -182 448 -182 429 -184.5 c 128,-1,34
 410 -187 410 -187 394 -187 c 0,35,36
 343 -187 343 -187 313.5 -169 c 128,-1,37
 284 -151 284 -151 284 -111 c 0,38,39
 284 -88 284 -88 300.5 -62 c 128,-1,40
 317 -36 317 -36 348 -10 c 1,41,42
 340 -11 340 -11 331.5 -11.5 c 128,-1,43
 323 -12 323 -12 315 -12 c 0,44,45
 247 -12 247 -12 197.5 8.5 c 128,-1,46
 148 29 148 29 116 65 c 128,-1,47
 84 101 84 101 68.5 150.5 c 128,-1,48
 53 200 53 200 53 259 c 0,0,1
410 310 m 1,49,50
 411 373 411 373 378.5 413.5 c 128,-1,51
 346 454 346 454 289 454 c 0,52,53
 257 454 257 454 232.5 441.5 c 128,-1,54
 208 429 208 429 191 409 c 128,-1,55
 174 389 174 389 164.5 363 c 128,-1,56
 155 337 155 337 152 310 c 1,57,-1
 410 310 l 1,49,50
EndSplineSet
Validated: 33
Substitution2: "'case' Case-Sensitive Forms lookup 21 subtable" Eogonek
EndChar

StartChar: Hbar
Encoding: 294 294 257
Width: 735
Flags: W
HStem: 0 21G<101 198 537 634> 320 84<198 537> 523 71<21 101 198 537 634 714> 673 20G<101 198 537 634>
VStem: 101 97<0 320 404 523 594 693> 537 97<0 320 404 523 594 693>
LayerCount: 2
Fore
SplineSet
21 594 m 1,0,-1
 101 594 l 1,1,-1
 101 693 l 1,2,-1
 198 693 l 1,3,-1
 198 594 l 1,4,-1
 537 594 l 1,5,-1
 537 693 l 1,6,-1
 634 693 l 1,7,-1
 634 594 l 1,8,-1
 714 594 l 1,9,-1
 714 523 l 1,10,-1
 634 523 l 1,11,-1
 634 0 l 1,12,-1
 537 0 l 1,13,-1
 537 320 l 1,14,-1
 198 320 l 1,15,-1
 198 0 l 1,16,-1
 101 0 l 1,17,-1
 101 523 l 1,18,-1
 21 523 l 1,19,-1
 21 594 l 1,0,-1
537 523 m 1,20,-1
 198 523 l 1,21,-1
 198 404 l 1,22,-1
 537 404 l 1,23,-1
 537 523 l 1,20,-1
EndSplineSet
Validated: 1
EndChar

StartChar: hbar
Encoding: 295 295 258
Width: 575
Flags: W
HStem: 0 21G<82 175 409 502> 445 82<175.813 362.833> 614 69<8 82 175 352> 756 20G<82 175>
VStem: 82 93<0 434.289 506 614 683 760> 409 93<0 394.475>
LayerCount: 2
Fore
SplineSet
82 0 m 1,0,-1
 82 614 l 1,1,-1
 8 614 l 1,2,-1
 8 683 l 1,3,-1
 82 683 l 1,4,-1
 82 760 l 1,5,-1
 175 776 l 1,6,-1
 175 683 l 1,7,-1
 352 683 l 1,8,-1
 352 614 l 1,9,-1
 175 614 l 1,10,-1
 175 506 l 1,11,12
 201 516 201 516 230.5 521.5 c 128,-1,13
 260 527 260 527 289 527 c 0,14,15
 351 527 351 527 392 509.5 c 128,-1,16
 433 492 433 492 457.5 460.5 c 128,-1,17
 482 429 482 429 492 385 c 128,-1,18
 502 341 502 341 502 288 c 2,19,-1
 502 0 l 1,20,-1
 409 0 l 1,21,-1
 409 268 l 2,22,23
 409 316 409 316 402.5 350 c 128,-1,24
 396 384 396 384 381 405 c 128,-1,25
 366 426 366 426 341 435.5 c 128,-1,26
 316 445 316 445 279 445 c 0,27,28
 264 445 264 445 248 443 c 128,-1,29
 232 441 232 441 217.5 438.5 c 128,-1,30
 203 436 203 436 191.5 433 c 128,-1,31
 180 430 180 430 175 428 c 1,32,-1
 175 0 l 1,33,-1
 82 0 l 1,0,-1
EndSplineSet
Validated: 1
Substitution2: "'case' Case-Sensitive Forms lookup 21 subtable" Hbar
EndChar

StartChar: Iogonek
Encoding: 302 302 265
Width: 273
Flags: W
HStem: -187 65<108.244 189.398> 673 20G<88 185>
VStem: 19 88<-119.739 -52.9443> 88 97<0 693>
LayerCount: 2
Fore
SplineSet
88 693 m 1,0,-1
 185 693 l 1,1,-1
 185 0 l 1,2,3
 174 -8 174 -8 162.5 -17 c 128,-1,4
 151 -26 151 -26 139 -39 c 0,5,6
 125 -55 125 -55 116 -67 c 128,-1,7
 107 -79 107 -79 107 -93 c 0,8,9
 107 -122 107 -122 147 -122 c 0,10,11
 154 -122 154 -122 165.5 -120.5 c 128,-1,12
 177 -119 177 -119 188 -115 c 1,13,-1
 195 -176 l 1,14,15
 171 -187 171 -187 129 -187 c 0,16,17
 72 -187 72 -187 45.5 -166.5 c 128,-1,18
 19 -146 19 -146 19 -111 c 0,19,20
 19 -88 19 -88 32 -66.5 c 128,-1,21
 45 -45 45 -45 62 -27 c 0,22,23
 70 -19 70 -19 76.5 -12.5 c 128,-1,24
 83 -6 83 -6 88 -2 c 1,25,-1
 88 693 l 1,0,-1
EndSplineSet
Validated: 1
EndChar

StartChar: iogonek
Encoding: 303 303 266
Width: 257
Flags: W
HStem: -187 65<100.244 181.398> 500 20G<82 175> 614 122<86.0487 169.951>
VStem: 11 88<-119.739 -53.4978> 68 120<631.018 718.982> 82 93<-17.5342 520>
LayerCount: 2
Fore
SplineSet
175 0 m 1,0,1
 151 -18 151 -18 131 -39 c 0,2,3
 117 -55 117 -55 108 -67 c 128,-1,4
 99 -79 99 -79 99 -93 c 0,5,6
 99 -122 99 -122 139 -122 c 0,7,8
 146 -122 146 -122 157.5 -120.5 c 128,-1,9
 169 -119 169 -119 180 -115 c 1,10,-1
 187 -176 l 1,11,12
 163 -187 163 -187 121 -187 c 0,13,14
 64 -187 64 -187 37.5 -166.5 c 128,-1,15
 11 -146 11 -146 11 -111 c 0,16,17
 11 -88 11 -88 24 -67 c 128,-1,18
 37 -46 37 -46 54 -27 c 0,19,20
 62 -18 62 -18 69 -11.5 c 128,-1,21
 76 -5 76 -5 82 0 c 1,22,-1
 82 520 l 1,23,-1
 175 520 l 1,24,-1
 175 0 l 1,0,1
128 614 m 256,25,26
 103 614 103 614 85.5 630.5 c 128,-1,27
 68 647 68 647 68 675 c 256,28,29
 68 703 68 703 85.5 719.5 c 128,-1,30
 103 736 103 736 128 736 c 256,31,32
 153 736 153 736 170.5 719.5 c 128,-1,33
 188 703 188 703 188 675 c 256,34,35
 188 647 188 647 170.5 630.5 c 128,-1,36
 153 614 153 614 128 614 c 256,25,26
EndSplineSet
Validated: 1
Substitution2: "'case' Case-Sensitive Forms lookup 21 subtable" Iogonek
EndChar

StartChar: dotlessi
Encoding: 305 305 268
Width: 257
Flags: W
HStem: 0 21G<82 175> 500 20G<82 175>
VStem: 82 93<0 520>
LayerCount: 2
Fore
SplineSet
175 0 m 1,0,-1
 82 0 l 1,1,-1
 82 520 l 1,2,-1
 175 520 l 1,3,-1
 175 0 l 1,0,-1
EndSplineSet
Validated: 1
EndChar

StartChar: kgreenlandic
Encoding: 312 312 277
Width: 541
Flags: W
HStem: 0 21G<82 175 404 525> 500 20G<82 175 386.5 503>
VStem: 82 93<0 246 297 520>
LayerCount: 2
Fore
SplineSet
272 283 m 1,0,1
 303 261 303 261 339 227.5 c 128,-1,2
 375 194 375 194 409.5 155 c 128,-1,3
 444 116 444 116 474 75.5 c 128,-1,4
 504 35 504 35 525 0 c 1,5,-1
 415 0 l 1,6,7
 393 34 393 34 363.5 69.5 c 128,-1,8
 334 105 334 105 302 138 c 128,-1,9
 270 171 270 171 237 199 c 128,-1,10
 204 227 204 227 175 246 c 1,11,-1
 175 0 l 1,12,-1
 82 0 l 1,13,-1
 82 520 l 1,14,-1
 175 520 l 1,15,-1
 175 297 l 1,16,17
 199 320 199 320 230 350.5 c 128,-1,18
 261 381 261 381 292.5 412.5 c 128,-1,19
 324 444 324 444 351 472.5 c 128,-1,20
 378 501 378 501 395 520 c 1,21,-1
 503 520 l 1,22,23
 481 496 481 496 451.5 465.5 c 128,-1,24
 422 435 422 435 390.5 403 c 128,-1,25
 359 371 359 371 328 339.5 c 128,-1,26
 297 308 297 308 272 283 c 1,0,1
EndSplineSet
Validated: 1
Substitution2: "'case' Case-Sensitive Forms lookup 21 subtable" kgreenlandic.case
EndChar

StartChar: Lslash
Encoding: 321 321 286
Width: 541
Flags: W
HStem: 0 84<203 523> 673 20G<106 203>
VStem: 106 97<84 286 419 693>
LayerCount: 2
Fore
SplineSet
523 84 m 1,0,-1
 523 0 l 1,1,-1
 106 0 l 1,2,-1
 106 286 l 1,3,-1
 33 249 l 1,4,-1
 0 315 l 1,5,-1
 106 369 l 1,6,-1
 106 693 l 1,7,-1
 203 693 l 1,8,-1
 203 419 l 1,9,-1
 319 479 l 1,10,-1
 351 413 l 1,11,-1
 203 336 l 1,12,-1
 203 84 l 1,13,-1
 523 84 l 1,0,-1
EndSplineSet
Validated: 1
EndChar

StartChar: lslash
Encoding: 322 322 287
Width: 291
Flags: W
HStem: -10 78<203.167 252> 756 20G<94 187>
VStem: 94 93<85.9844 340 466 760>
LayerCount: 2
Fore
SplineSet
252 -10 m 1,0,1
 166 -8 166 -8 130 27 c 128,-1,2
 94 62 94 62 94 136 c 2,3,-1
 94 340 l 1,4,-1
 37 311 l 1,5,-1
 5 373 l 1,6,-1
 94 418 l 1,7,-1
 94 760 l 1,8,-1
 187 776 l 1,9,-1
 187 466 l 1,10,-1
 260 504 l 1,11,-1
 291 442 l 1,12,-1
 187 388 l 1,13,-1
 187 151 l 2,14,15
 187 128 187 128 191 113 c 128,-1,16
 195 98 195 98 204 89 c 128,-1,17
 213 80 213 80 228 75.5 c 128,-1,18
 243 71 243 71 265 68 c 1,19,-1
 252 -10 l 1,0,1
EndSplineSet
Validated: 1
Substitution2: "'case' Case-Sensitive Forms lookup 21 subtable" Lslash
EndChar

StartChar: Eng
Encoding: 330 330 296
Width: 732
Flags: W
HStem: -187 76<444.251 534.496> 0 21G<88 183> 673 20G<88 188.5 549 644>
VStem: 88 95<0 541> 549 95<-85.7294 24 180 693>
LayerCount: 2
Fore
SplineSet
549 24 m 1,0,1
 514 81 514 81 467.5 152 c 128,-1,2
 421 223 421 223 371 294 c 128,-1,3
 321 365 321 365 272 430.5 c 128,-1,4
 223 496 223 496 183 541 c 1,5,-1
 183 0 l 1,6,-1
 88 0 l 1,7,-1
 88 693 l 1,8,-1
 165 693 l 1,9,10
 212 643 212 643 265.5 576.5 c 128,-1,11
 319 510 319 510 371.5 439.5 c 128,-1,12
 424 369 424 369 470.5 301 c 128,-1,13
 517 233 517 233 549 180 c 1,14,-1
 549 693 l 1,15,-1
 644 693 l 1,16,-1
 644 0 l 2,17,18
 644 -46 644 -46 638 -81 c 128,-1,19
 632 -116 632 -116 616 -139.5 c 128,-1,20
 600 -163 600 -163 571 -175 c 128,-1,21
 542 -187 542 -187 497 -187 c 0,22,23
 483 -187 483 -187 464.5 -184.5 c 128,-1,24
 446 -182 446 -182 435 -179 c 1,25,-1
 444 -106 l 1,26,27
 452 -109 452 -109 465.5 -110 c 128,-1,28
 479 -111 479 -111 487 -111 c 0,29,30
 524 -111 524 -111 536.5 -86.5 c 128,-1,31
 549 -62 549 -62 549 -17 c 2,32,-1
 549 24 l 1,0,1
EndSplineSet
Validated: 1
EndChar

StartChar: eng
Encoding: 331 331 297
Width: 578
Flags: W
HStem: -187 76<300.251 392.6> 0 21G<82 175> 449 82<175.379 362.833>
VStem: 82 93<0 442.851> 409 93<-85.7294 398.475>
LayerCount: 2
Fore
SplineSet
82 505 m 1,0,1
 114 513 114 513 167 522 c 128,-1,2
 220 531 220 531 289 531 c 0,3,4
 351 531 351 531 392 513.5 c 128,-1,5
 433 496 433 496 457.5 464.5 c 128,-1,6
 482 433 482 433 492 389 c 128,-1,7
 502 345 502 345 502 292 c 2,8,-1
 502 0 l 2,9,10
 502 -46 502 -46 495.5 -81 c 128,-1,11
 489 -116 489 -116 472.5 -139.5 c 128,-1,12
 456 -163 456 -163 427 -175 c 128,-1,13
 398 -187 398 -187 353 -187 c 0,14,15
 339 -187 339 -187 320.5 -184.5 c 128,-1,16
 302 -182 302 -182 291 -179 c 1,17,-1
 300 -106 l 1,18,19
 308 -109 308 -109 321.5 -110 c 128,-1,20
 335 -111 335 -111 343 -111 c 0,21,22
 380 -111 380 -111 394.5 -86.5 c 128,-1,23
 409 -62 409 -62 409 -17 c 2,24,-1
 409 272 l 2,25,26
 409 320 409 320 402.5 354 c 128,-1,27
 396 388 396 388 381 409 c 128,-1,28
 366 430 366 430 341 439.5 c 128,-1,29
 316 449 316 449 279 449 c 0,30,31
 264 449 264 449 248 448 c 128,-1,32
 232 447 232 447 217.5 445.5 c 128,-1,33
 203 444 203 444 191.5 442 c 128,-1,34
 180 440 180 440 175 439 c 1,35,-1
 175 0 l 1,36,-1
 82 0 l 1,37,-1
 82 505 l 1,0,1
EndSplineSet
Validated: 1
Substitution2: "'case' Case-Sensitive Forms lookup 21 subtable" Eng
EndChar

StartChar: Scedilla
Encoding: 350 350 314
Width: 536
Flags: W
HStem: -189 60<166.375 257.484> -15 84<117.249 232> 625 84<194.148 408.328>
VStem: 51 100<464.865 586.039> 258 82<-127.887 -81.222> 401 102<109.533 239.513>
LayerCount: 2
Fore
SplineSet
249 69 m 0,0,1
 401 69 401 69 401 173 c 0,2,3
 401 205 401 205 387.5 227.5 c 128,-1,4
 374 250 374 250 351 266.5 c 128,-1,5
 328 283 328 283 298.5 295 c 128,-1,6
 269 307 269 307 236 319 c 0,7,8
 198 332 198 332 164 348.5 c 128,-1,9
 130 365 130 365 105 387.5 c 128,-1,10
 80 410 80 410 65.5 441 c 128,-1,11
 51 472 51 472 51 516 c 0,12,13
 51 607 51 607 113 658 c 128,-1,14
 175 709 175 709 284 709 c 0,15,16
 347 709 347 709 398.5 695.5 c 128,-1,17
 450 682 450 682 474 666 c 1,18,-1
 443 587 l 1,19,20
 422 600 422 600 380.5 612.5 c 128,-1,21
 339 625 339 625 284 625 c 0,22,23
 256 625 256 625 232 619 c 128,-1,24
 208 613 208 613 190 601 c 128,-1,25
 172 589 172 589 161.5 570.5 c 128,-1,26
 151 552 151 552 151 527 c 0,27,28
 151 499 151 499 162 480 c 128,-1,29
 173 461 173 461 193 446.5 c 128,-1,30
 213 432 213 432 239.5 420 c 128,-1,31
 266 408 266 408 298 396 c 0,32,33
 343 378 343 378 380.5 360 c 128,-1,34
 418 342 418 342 445.5 317 c 128,-1,35
 473 292 473 292 488 257.5 c 128,-1,36
 503 223 503 223 503 174 c 0,37,38
 503 93 503 93 449.5 45 c 128,-1,39
 396 -3 396 -3 296 -13 c 1,40,-1
 285 -37 l 1,41,42
 314 -51 314 -51 327 -67.5 c 128,-1,43
 340 -84 340 -84 340 -116 c 0,44,45
 340 -127 340 -127 335 -140 c 128,-1,46
 330 -153 330 -153 318 -164 c 128,-1,47
 306 -175 306 -175 286 -182 c 128,-1,48
 266 -189 266 -189 237 -189 c 0,49,50
 211 -189 211 -189 189.5 -185 c 128,-1,51
 168 -181 168 -181 155 -176 c 1,52,-1
 166 -119 l 1,53,54
 178 -123 178 -123 191.5 -126 c 128,-1,55
 205 -129 205 -129 222 -129 c 0,56,57
 258 -129 258 -129 258 -106 c 0,58,59
 258 -95 258 -95 247 -87.5 c 128,-1,60
 236 -80 236 -80 216 -72 c 2,61,-1
 209 -69 l 1,62,63
 213 -58 213 -58 219 -43.5 c 128,-1,64
 225 -29 225 -29 232 -15 c 1,65,66
 194 -14 194 -14 162.5 -8.5 c 128,-1,67
 131 -3 131 -3 106 4.5 c 128,-1,68
 81 12 81 12 63 20 c 128,-1,69
 45 28 45 28 35 34 c 1,70,-1
 64 114 l 1,71,72
 87 101 87 101 134 85 c 128,-1,73
 181 69 181 69 249 69 c 0,0,1
EndSplineSet
Validated: 1
Substitution2: "'locl' Localized Forms in Latin lookup 3 subtable" Scommaaccent
Substitution2: "'locl' Localized Forms in Latin lookup 2 subtable" Scommaaccent
EndChar

StartChar: scedilla
Encoding: 351 351 315
Width: 450
Flags: W
HStem: -189 60<122.375 213.484> -12 79<81.9766 189> 455 78<168.17 357.683>
VStem: 50 93<341.819 434.577> 214 82<-127.887 -81.222> 315 94<85.9058 179.448>
LayerCount: 2
Fore
SplineSet
203 67 m 0,0,1
 260 67 260 67 287.5 82 c 128,-1,2
 315 97 315 97 315 130 c 0,3,4
 315 164 315 164 288 184 c 128,-1,5
 261 204 261 204 199 229 c 0,6,7
 169 241 169 241 141.5 253.5 c 128,-1,8
 114 266 114 266 94 283 c 128,-1,9
 74 300 74 300 62 324 c 128,-1,10
 50 348 50 348 50 383 c 0,11,12
 50 452 50 452 101 492.5 c 128,-1,13
 152 533 152 533 240 533 c 0,14,15
 262 533 262 533 284 530.5 c 128,-1,16
 306 528 306 528 325 524.5 c 128,-1,17
 344 521 344 521 358.5 517 c 128,-1,18
 373 513 373 513 381 510 c 1,19,-1
 364 430 l 1,20,21
 349 438 349 438 317 446.5 c 128,-1,22
 285 455 285 455 240 455 c 0,23,24
 201 455 201 455 172 439.5 c 128,-1,25
 143 424 143 424 143 391 c 0,26,27
 143 373 143 373 149.5 360.5 c 128,-1,28
 156 348 156 348 169.5 338 c 128,-1,29
 183 328 183 328 203 318.5 c 128,-1,30
 223 309 223 309 251 299 c 0,31,32
 287 285 287 285 316 271.5 c 128,-1,33
 345 258 345 258 366 240 c 128,-1,34
 387 222 387 222 398 196.5 c 128,-1,35
 409 171 409 171 409 134 c 0,36,37
 409 72 409 72 369 36 c 128,-1,38
 329 0 329 0 254 -9 c 1,39,40
 250 -17 250 -17 246.5 -24 c 128,-1,41
 243 -31 243 -31 241 -37 c 1,42,43
 270 -51 270 -51 283 -67.5 c 128,-1,44
 296 -84 296 -84 296 -116 c 0,45,46
 296 -127 296 -127 291 -140 c 128,-1,47
 286 -153 286 -153 274 -164 c 128,-1,48
 262 -175 262 -175 242 -182 c 128,-1,49
 222 -189 222 -189 193 -189 c 0,50,51
 167 -189 167 -189 145.5 -185 c 128,-1,52
 124 -181 124 -181 111 -176 c 1,53,-1
 122 -119 l 1,54,55
 134 -123 134 -123 147.5 -126 c 128,-1,56
 161 -129 161 -129 178 -129 c 0,57,58
 214 -129 214 -129 214 -106 c 0,59,60
 214 -95 214 -95 203 -87.5 c 128,-1,61
 192 -80 192 -80 172 -72 c 2,62,-1
 165 -69 l 1,63,64
 169 -57 169 -57 175.5 -41.5 c 128,-1,65
 182 -26 182 -26 189 -12 c 1,66,67
 126 -10 126 -10 90.5 0.5 c 128,-1,68
 55 11 55 11 42 17 c 1,69,-1
 59 97 l 1,70,71
 75 91 75 91 110 79 c 128,-1,72
 145 67 145 67 203 67 c 0,0,1
EndSplineSet
Validated: 1
Substitution2: "'case' Case-Sensitive Forms lookup 21 subtable" Scedilla
Substitution2: "'locl' Localized Forms in Latin lookup 3 subtable" scommaaccent
Substitution2: "'locl' Localized Forms in Latin lookup 2 subtable" scommaaccent
EndChar

StartChar: uni0162
Encoding: 354 354 316
Width: 569
Flags: W
HStem: -189 60<177.375 268.484> 609 84<18 236 333 551>
VStem: 236 97<0 609> 269 82<-127.887 -81.222>
LayerCount: 2
Fore
SplineSet
296 -37 m 1,0,1
 325 -51 325 -51 338 -67.5 c 128,-1,2
 351 -84 351 -84 351 -116 c 0,3,4
 351 -127 351 -127 346 -140 c 128,-1,5
 341 -153 341 -153 329 -164 c 128,-1,6
 317 -175 317 -175 297 -182 c 128,-1,7
 277 -189 277 -189 248 -189 c 0,8,9
 222 -189 222 -189 200.5 -185 c 128,-1,10
 179 -181 179 -181 166 -176 c 1,11,-1
 177 -119 l 1,12,13
 189 -123 189 -123 202.5 -126 c 128,-1,14
 216 -129 216 -129 233 -129 c 0,15,16
 269 -129 269 -129 269 -106 c 0,17,18
 269 -95 269 -95 258 -87.5 c 128,-1,19
 247 -80 247 -80 227 -72 c 2,20,-1
 220 -69 l 1,21,22
 224 -55 224 -55 233 -35 c 128,-1,23
 242 -15 242 -15 250 0 c 1,24,-1
 236 0 l 1,25,-1
 236 609 l 1,26,-1
 18 609 l 1,27,-1
 18 693 l 1,28,-1
 551 693 l 1,29,-1
 551 609 l 1,30,-1
 333 609 l 1,31,-1
 333 0 l 1,32,-1
 314 0 l 1,33,34
 309 -10 309 -10 304 -19.5 c 128,-1,35
 299 -29 299 -29 296 -37 c 1,0,1
EndSplineSet
Validated: 1
Substitution2: "'locl' Localized Forms in Latin lookup 3 subtable" uni021A
Substitution2: "'locl' Localized Forms in Latin lookup 2 subtable" uni021A
EndChar

StartChar: uni0163
Encoding: 355 355 317
Width: 406
Flags: W
HStem: -189 60<146.375 237.484> 442 78<169 366>
VStem: 76 93<100.967 442 520 665> 238 82<-127.887 -81.222>
LayerCount: 2
Fore
SplineSet
265 -37 m 1,0,1
 294 -51 294 -51 307 -67.5 c 128,-1,2
 320 -84 320 -84 320 -116 c 0,3,4
 320 -127 320 -127 315 -140 c 128,-1,5
 310 -153 310 -153 298 -164 c 128,-1,6
 286 -175 286 -175 266 -182 c 128,-1,7
 246 -189 246 -189 217 -189 c 0,8,9
 191 -189 191 -189 169.5 -185 c 128,-1,10
 148 -181 148 -181 135 -176 c 1,11,-1
 146 -119 l 1,12,13
 158 -123 158 -123 171.5 -126 c 128,-1,14
 185 -129 185 -129 202 -129 c 0,15,16
 238 -129 238 -129 238 -106 c 0,17,18
 238 -95 238 -95 227 -87.5 c 128,-1,19
 216 -80 216 -80 196 -72 c 2,20,-1
 189 -69 l 1,21,22
 193 -56 193 -56 199.5 -39.5 c 128,-1,23
 206 -23 206 -23 214 -8 c 1,24,25
 174 -3 174 -3 147.5 13 c 128,-1,26
 121 29 121 29 105 55 c 128,-1,27
 89 81 89 81 82.5 117.5 c 128,-1,28
 76 154 76 154 76 201 c 2,29,-1
 76 665 l 1,30,-1
 169 681 l 1,31,-1
 169 520 l 1,32,-1
 366 520 l 1,33,-1
 366 442 l 1,34,-1
 169 442 l 1,35,-1
 169 202 l 2,36,37
 169 163 169 163 175 137.5 c 128,-1,38
 181 112 181 112 193 97.5 c 128,-1,39
 205 83 205 83 223 77 c 128,-1,40
 241 71 241 71 265 71 c 0,41,42
 307 71 307 71 332.5 80.5 c 128,-1,43
 358 90 358 90 368 94 c 1,44,-1
 386 17 l 1,45,46
 373 11 373 11 344.5 1.5 c 128,-1,47
 316 -8 316 -8 278 -10 c 1,48,49
 274 -18 274 -18 270.5 -24.5 c 128,-1,50
 267 -31 267 -31 265 -37 c 1,0,1
EndSplineSet
Validated: 1
Substitution2: "'case' Case-Sensitive Forms lookup 21 subtable" uni0162
Substitution2: "'locl' Localized Forms in Latin lookup 3 subtable" uni021B
Substitution2: "'locl' Localized Forms in Latin lookup 2 subtable" uni021B
EndChar

StartChar: Tbar
Encoding: 358 358 320
Width: 569
Flags: W
HStem: 0 21G<236 333> 318 75<106 236 333 463> 609 84<18 236 333 551>
VStem: 236 97<0 318 393 609>
LayerCount: 2
Fore
SplineSet
551 693 m 1,0,-1
 551 609 l 1,1,-1
 333 609 l 1,2,-1
 333 393 l 1,3,-1
 463 393 l 1,4,-1
 463 318 l 1,5,-1
 333 318 l 1,6,-1
 333 0 l 1,7,-1
 236 0 l 1,8,-1
 236 318 l 1,9,-1
 106 318 l 1,10,-1
 106 393 l 1,11,-1
 236 393 l 1,12,-1
 236 609 l 1,13,-1
 18 609 l 1,14,-1
 18 693 l 1,15,-1
 551 693 l 1,0,-1
EndSplineSet
Validated: 1
EndChar

StartChar: tbar
Encoding: 359 359 321
Width: 406
Flags: W
HStem: -11 82<197.639 365.228> 236 70<169 366> 442 78<169 366>
VStem: 76 93<101.009 236 306 442 520 665>
LayerCount: 2
Fore
SplineSet
169 520 m 1,0,-1
 366 520 l 1,1,-1
 366 442 l 1,2,-1
 169 442 l 1,3,-1
 169 306 l 1,4,-1
 366 306 l 1,5,-1
 366 236 l 1,6,-1
 169 236 l 1,7,-1
 169 202 l 2,8,9
 169 163 169 163 175 137.5 c 128,-1,10
 181 112 181 112 193 97.5 c 128,-1,11
 205 83 205 83 223 77 c 128,-1,12
 241 71 241 71 265 71 c 0,13,14
 307 71 307 71 332.5 80.5 c 128,-1,15
 358 90 358 90 368 94 c 1,16,-1
 386 17 l 1,17,18
 372 10 372 10 337 -0.5 c 128,-1,19
 302 -11 302 -11 257 -11 c 0,20,21
 204 -11 204 -11 169.5 2.5 c 128,-1,22
 135 16 135 16 114 43 c 128,-1,23
 93 70 93 70 84.5 109.5 c 128,-1,24
 76 149 76 149 76 201 c 2,25,-1
 76 665 l 1,26,-1
 169 681 l 1,27,-1
 169 520 l 1,0,-1
EndSplineSet
Validated: 1
Substitution2: "'case' Case-Sensitive Forms lookup 21 subtable" Tbar
EndChar

StartChar: Uogonek
Encoding: 370 370 332
Width: 692
Flags: W
HStem: -187 65<385.02 463.656> -15 86<259.274 350.6> 673 20G<83 180 512 609>
VStem: 83 97<153.133 693> 295 88<-119.739 -52.9573> 512 97<155.133 693>
LayerCount: 2
Fore
SplineSet
346 -15 m 2,0,1
 278 -15 278 -15 228 6 c 128,-1,2
 178 27 178 27 146 63.5 c 128,-1,3
 114 100 114 100 98.5 150 c 128,-1,4
 83 200 83 200 83 258 c 2,5,-1
 83 693 l 1,6,-1
 180 693 l 1,7,-1
 180 269 l 2,8,9
 180 165 180 165 226 118 c 128,-1,10
 272 71 272 71 346 71 c 0,11,12
 383 71 383 71 413.5 82.5 c 128,-1,13
 444 94 444 94 466 118 c 128,-1,14
 488 142 488 142 500 179.5 c 128,-1,15
 512 217 512 217 512 269 c 2,16,-1
 512 693 l 1,17,-1
 609 693 l 1,18,-1
 609 258 l 2,19,20
 609 177 609 177 579.5 114 c 128,-1,21
 550 51 550 51 487 15 c 0,22,23
 464 1 464 1 445.5 -11 c 128,-1,24
 427 -23 427 -23 412 -39 c 0,25,26
 398 -55 398 -55 390.5 -67 c 128,-1,27
 383 -79 383 -79 383 -93 c 0,28,29
 383 -122 383 -122 423 -122 c 0,30,31
 430 -122 430 -122 441.5 -120.5 c 128,-1,32
 453 -119 453 -119 464 -115 c 1,33,-1
 471 -176 l 1,34,35
 460 -181 460 -181 442.5 -184 c 128,-1,36
 425 -187 425 -187 405 -187 c 0,37,38
 349 -187 349 -187 322 -166.5 c 128,-1,39
 295 -146 295 -146 295 -111 c 0,40,41
 295 -83 295 -83 313.5 -57.5 c 128,-1,42
 332 -32 332 -32 351 -15 c 1,43,-1
 346 -15 l 2,0,1
EndSplineSet
Validated: 1
EndChar

StartChar: uogonek
Encoding: 371 371 333
Width: 578
Flags: W
HStem: -187 65<410.02 488.656> -11 82<219.433 389.281> 500 20G<76 169 403 496>
VStem: 76 93<126.131 520> 320 88<-119.739 -55.0981> 403 93<76.8438 520>
LayerCount: 2
Fore
SplineSet
496 12 m 1,0,1
 484 3 484 3 469.5 -10 c 128,-1,2
 455 -23 455 -23 440 -39 c 0,3,4
 426 -55 426 -55 417 -67 c 128,-1,5
 408 -79 408 -79 408 -93 c 0,6,7
 408 -122 408 -122 448 -122 c 0,8,9
 455 -122 455 -122 466.5 -120.5 c 128,-1,10
 478 -119 478 -119 489 -115 c 1,11,-1
 496 -176 l 1,12,13
 485 -181 485 -181 467.5 -184 c 128,-1,14
 450 -187 450 -187 430 -187 c 0,15,16
 374 -187 374 -187 347 -166.5 c 128,-1,17
 320 -146 320 -146 320 -111 c 0,18,19
 320 -88 320 -88 334 -66.5 c 128,-1,20
 348 -45 348 -45 365 -27 c 0,21,22
 370 -21 370 -21 377.5 -15 c 128,-1,23
 385 -9 385 -9 390 -4 c 1,24,25
 367 -7 367 -7 342.5 -9 c 128,-1,26
 318 -11 318 -11 290 -11 c 0,27,28
 230 -11 230 -11 189 6.5 c 128,-1,29
 148 24 148 24 123 56 c 128,-1,30
 98 88 98 88 87 131.5 c 128,-1,31
 76 175 76 175 76 228 c 2,32,-1
 76 520 l 1,33,-1
 169 520 l 1,34,-1
 169 248 l 2,35,36
 169 153 169 153 199 112 c 128,-1,37
 229 71 229 71 300 71 c 0,38,39
 315 71 315 71 331 72 c 128,-1,40
 347 73 347 73 361 74.5 c 128,-1,41
 375 76 375 76 386.5 77.5 c 128,-1,42
 398 79 398 79 403 81 c 1,43,-1
 403 520 l 1,44,-1
 496 520 l 1,45,-1
 496 12 l 1,0,1
EndSplineSet
Validated: 1
Substitution2: "'case' Case-Sensitive Forms lookup 21 subtable" Uogonek
EndChar

StartChar: longs
Encoding: 383 383 344
Width: 277
Flags: W
HStem: 0 21G<82 175> 696 80<214.241 379.623>
VStem: 82 93<0 653.2>
LayerCount: 2
Fore
SplineSet
285 776 m 0,0,1
 326 776 326 776 355.5 770 c 128,-1,2
 385 764 385 764 397 759 c 1,3,-1
 380 679 l 1,4,5
 368 685 368 685 346 690.5 c 128,-1,6
 324 696 324 696 292 696 c 0,7,8
 227 696 227 696 201 660.5 c 128,-1,9
 175 625 175 625 175 565 c 2,10,-1
 175 0 l 1,11,-1
 82 0 l 1,12,-1
 82 567 l 2,13,14
 82 667 82 667 131 721.5 c 128,-1,15
 180 776 180 776 285 776 c 0,0,1
EndSplineSet
Validated: 1
Substitution2: "'case' Case-Sensitive Forms lookup 20 subtable" S
EndChar

StartChar: dotlessj
Encoding: 567 567 349
Width: 257
Flags: W
HStem: -185 80<-53.6868 54.1715> 500 20G<82 175>
VStem: 82 93<-77.3149 520>
LayerCount: 2
Fore
SplineSet
-3 -185 m 0,0,1
 -15 -185 -15 -185 -34 -182 c 128,-1,2
 -53 -179 -53 -179 -66 -174 c 1,3,-1
 -54 -98 l 1,4,5
 -44 -101 -44 -101 -31 -103 c 128,-1,6
 -18 -105 -18 -105 -7 -105 c 0,7,8
 41 -105 41 -105 61.5 -75.5 c 128,-1,9
 82 -46 82 -46 82 11 c 2,10,-1
 82 520 l 1,11,-1
 175 520 l 1,12,-1
 175 12 l 2,13,14
 175 -88 175 -88 129.5 -136.5 c 128,-1,15
 84 -185 84 -185 -3 -185 c 0,0,1
EndSplineSet
Validated: 1
Substitution2: "'case' Case-Sensitive Forms lookup 20 subtable" J
EndChar

StartChar: apostrophe
Encoding: 700 700 350
Width: 380
Flags: W
HStem: 566 210
VStem: 152 96<646.508 663.5 757.5 776>
LayerCount: 2
Fore
SplineSet
248 776 m 1,0,1
 248 765 248 765 248 757.5 c 128,-1,2
 248 750 248 750 247 740 c 0,3,4
 243 689 243 689 226 646.5 c 128,-1,5
 209 604 209 604 185 566 c 1,6,-1
 118 589 l 1,7,8
 137 627 137 627 145.5 663.5 c 128,-1,9
 154 700 154 700 154 738 c 0,10,11
 154 748 154 748 153.5 759 c 128,-1,12
 153 770 153 770 152 776 c 1,13,-1
 248 776 l 1,0,1
EndSplineSet
Validated: 1
EndChar

StartChar: caron
Encoding: 711 711 351
Width: 380
Flags: W
HStem: 586 187
VStem: 54 272
LayerCount: 2
Fore
SplineSet
54 729 m 1,0,-1
 93 773 l 1,1,-1
 190 685 l 1,2,-1
 287 773 l 1,3,-1
 326 729 l 1,4,-1
 190 586 l 1,5,-1
 54 729 l 1,0,-1
EndSplineSet
Validated: 1
EndChar

StartChar: breve
Encoding: 728 728 353
Width: 380
Flags: W
HStem: 610 67<138.155 247.845>
VStem: 60 60<694.986 749> 266 60<694.986 749>
LayerCount: 2
Fore
SplineSet
193 610 m 256,0,1
 165 610 165 610 140.5 619.5 c 128,-1,2
 116 629 116 629 97.5 646.5 c 128,-1,3
 79 664 79 664 69 690 c 128,-1,4
 59 716 59 716 60 749 c 1,5,-1
 120 749 l 1,6,7
 121 738 121 738 124.5 725 c 128,-1,8
 128 712 128 712 136 701.5 c 128,-1,9
 144 691 144 691 158 684 c 128,-1,10
 172 677 172 677 193 677 c 256,11,12
 214 677 214 677 228 684 c 128,-1,13
 242 691 242 691 250 701.5 c 128,-1,14
 258 712 258 712 261.5 725 c 128,-1,15
 265 738 265 738 266 749 c 1,16,-1
 326 749 l 1,17,18
 327 716 327 716 317 690 c 128,-1,19
 307 664 307 664 288.5 646.5 c 128,-1,20
 270 629 270 629 245.5 619.5 c 128,-1,21
 221 610 221 610 193 610 c 256,0,1
EndSplineSet
Validated: 33
EndChar

StartChar: dotaccent
Encoding: 729 729 354
Width: 380
Flags: W
HStem: 614 122<148.049 231.951>
VStem: 130 120<631.018 718.982>
LayerCount: 2
Fore
SplineSet
190 614 m 256,0,1
 165 614 165 614 147.5 630.5 c 128,-1,2
 130 647 130 647 130 675 c 256,3,4
 130 703 130 703 147.5 719.5 c 128,-1,5
 165 736 165 736 190 736 c 256,6,7
 215 736 215 736 232.5 719.5 c 128,-1,8
 250 703 250 703 250 675 c 256,9,10
 250 647 250 647 232.5 630.5 c 128,-1,11
 215 614 215 614 190 614 c 256,0,1
EndSplineSet
Validated: 1
EndChar

StartChar: ring
Encoding: 730 730 355
Width: 380
Flags: W
HStem: 575 47<149.746 230.254> 732 47<149.746 230.254>
VStem: 87 50<634.298 719.702> 243 50<634.298 719.702>
LayerCount: 2
Fore
SplineSet
293 677 m 256,0,1
 293 653 293 653 284.5 634.5 c 128,-1,2
 276 616 276 616 262 602.5 c 128,-1,3
 248 589 248 589 229.5 582 c 128,-1,4
 211 575 211 575 190 575 c 256,5,6
 169 575 169 575 150.5 582 c 128,-1,7
 132 589 132 589 118 602.5 c 128,-1,8
 104 616 104 616 95.5 634.5 c 128,-1,9
 87 653 87 653 87 677 c 256,10,11
 87 701 87 701 95.5 719.5 c 128,-1,12
 104 738 104 738 118 751.5 c 128,-1,13
 132 765 132 765 150.5 772 c 128,-1,14
 169 779 169 779 190 779 c 256,15,16
 211 779 211 779 229.5 772 c 128,-1,17
 248 765 248 765 262 751.5 c 128,-1,18
 276 738 276 738 284.5 719.5 c 128,-1,19
 293 701 293 701 293 677 c 256,0,1
243 677 m 256,20,21
 243 703 243 703 227.5 717.5 c 128,-1,22
 212 732 212 732 190 732 c 256,23,24
 168 732 168 732 152.5 717.5 c 128,-1,25
 137 703 137 703 137 677 c 256,26,27
 137 651 137 651 152.5 636.5 c 128,-1,28
 168 622 168 622 190 622 c 256,29,30
 212 622 212 622 227.5 636.5 c 128,-1,31
 243 651 243 651 243 677 c 256,20,21
EndSplineSet
Validated: 1
EndChar

StartChar: ogonek
Encoding: 731 731 356
Width: 380
Flags: W
HStem: -187 65<163.02 241.656>
VStem: 73 88<-119.739 -52.9443>
LayerCount: 2
Fore
SplineSet
183 -187 m 0,0,1
 127 -187 127 -187 100 -166.5 c 128,-1,2
 73 -146 73 -146 73 -111 c 0,3,4
 73 -88 73 -88 86 -66.5 c 128,-1,5
 99 -45 99 -45 116 -27 c 0,6,7
 128 -14 128 -14 137.5 -5.5 c 128,-1,8
 147 3 147 3 155 8 c 1,9,-1
 248 8 l 1,10,11
 237 0 237 0 222.5 -11.5 c 128,-1,12
 208 -23 208 -23 193 -39 c 0,13,14
 179 -55 179 -55 170 -67 c 128,-1,15
 161 -79 161 -79 161 -93 c 0,16,17
 161 -122 161 -122 201 -122 c 0,18,19
 208 -122 208 -122 219.5 -120.5 c 128,-1,20
 231 -119 231 -119 242 -115 c 1,21,-1
 249 -176 l 1,22,23
 238 -181 238 -181 220.5 -184 c 128,-1,24
 203 -187 203 -187 183 -187 c 0,0,1
EndSplineSet
Validated: 1
EndChar

StartChar: hungarumlaut
Encoding: 733 733 357
Width: 380
Flags: W
HStem: 580 196
LayerCount: 2
Fore
SplineSet
209 720 m 1,0,-1
 86 580 l 1,1,-1
 38 616 l 1,2,-1
 153 776 l 1,3,-1
 209 720 l 1,0,-1
374 720 m 1,4,-1
 251 580 l 1,5,-1
 203 616 l 1,6,-1
 318 776 l 1,7,-1
 374 720 l 1,4,-1
EndSplineSet
Validated: 1
EndChar

StartChar: fraction
Encoding: 8260 8260 366
Width: 152
Flags: W
HStem: 0 21G<-165 -66.7157> 673 20G<214.716 313>
LayerCount: 2
Fore
SplineSet
313 693 m 1,0,-1
 -78 0 l 1,1,-1
 -165 0 l 1,2,-1
 226 693 l 1,3,-1
 313 693 l 1,0,-1
EndSplineSet
Validated: 1
EndChar

